{
.appVersion = "3151";
.formatVersion = 3;
customParameters = (
{
name = vendorID;
value = "1BOU";
},
{
name = panose;
value = (
0,
0,
9,
0,
0,
0,
0,
0,
0,
0
);
},
{
name = unicodeRanges;
value = (
0,
1,
2,
3,
5,
13,
31,
33,
35,
38,
45,
60,
63,
67
);
},
{
name = codePageRanges;
value = (
"1252",
"1256"
);
},
{
name = fsType;
value = (
);
},
{
name = glyphOrder;
value = (
.notdef,
uni000D,
space,
exclam,
quotedbl,
numbersign,
dollar,
percent,
ampersand,
quotesingle,
parenleft,
parenright,
asterisk,
plus,
comma,
hyphen,
period,
slash,
zero,
one,
two,
three,
four,
five,
six,
seven,
eight,
nine,
colon,
semicolon,
less,
equal,
greater,
question,
at,
A,
B,
C,
D,
E,
F,
G,
H,
I,
J,
K,
L,
M,
N,
O,
P,
Q,
R,
S,
T,
U,
V,
W,
X,
Y,
Z,
bracketleft,
backslash,
bracketright,
asciicircum,
underscore,
grave,
a,
b,
c,
d,
e,
f,
g,
h,
i,
j,
k,
l,
m,
n,
o,
p,
q,
r,
s,
t,
u,
v,
w,
x,
y,
z,
braceleft,
bar,
braceright,
asciitilde,
exclamdown,
cent,
sterling,
yen,
brokenbar,
section,
dieresis,
copyright,
ordfeminine,
guillemotleft,
uni00AD,
registered,
macron,
degree,
plusminus,
twosuperior,
threesuperior,
acute,
paragraph,
periodcentered,
cedilla,
onesuperior,
ordmasculine,
guillemotright,
onequarter,
onehalf,
threequarters,
questiondown,
Agrave,
Aacute,
Acircumflex,
Atilde,
Adieresis,
Aring,
AE,
Ccedilla,
Egrave,
Eacute,
Ecircumflex,
Edieresis,
Igrave,
Iacute,
Icircumflex,
Idieresis,
Eth,
Ntilde,
Ograve,
Oacute,
Ocircumflex,
Otilde,
Odieresis,
multiply,
Oslash,
Ugrave,
Uacute,
Ucircumflex,
Udieresis,
Yacute,
Thorn,
germandbls,
agrave,
aacute,
acircumflex,
atilde,
adieresis,
aring,
ae,
ccedilla,
egrave,
eacute,
ecircumflex,
edieresis,
igrave,
iacute,
icircumflex,
idieresis,
eth,
ntilde,
ograve,
oacute,
ocircumflex,
otilde,
odieresis,
divide,
oslash,
ugrave,
uacute,
ucircumflex,
udieresis,
yacute,
thorn,
ydieresis,
dotlessi,
Lslash,
lslash,
OE,
oe,
Scaron,
scaron,
Ydieresis,
Zcaron,
zcaron,
florin,
circumflex,
caron,
breve,
dotaccent,
ring,
ogonek,
tilde,
hungarumlaut,
uni03BC,
uni060C,

glyphs = (
{
glyphname = .notdef;
layers = (
{
layerId = m01;
shapes = (
{
closed = 1;
nodes = (
(252,-72,qs),
(270,-72,o),
(293,-48,o),
(293,-29,qs),
(293,-10,o),
(270,14,o),
(252,14,qs),
(211,14,o),
(209,-29,q),
(212,-72,o)
);
},
{
closed = 1;
nodes = (
(275,75,ls),
(275,97,o),
(295,112,qs),
(359,160,o),
(402,221,o),
(402,262,qs),
(401,308,o),
(368,335,qs),
(332,365,o),
(261,365,qs),
(213,365,o),
(169,347,qs),
(136,334,o),
(138,312,qs),
(139,304,o),
(142,294,qs),
(147,277,l),
(212,308,o),
(259,307,qs),
(293,307,o),
(331,274,o),
(331,247,qs),
(330,209,o),
(277,165,qs),
(225,123,o),
(225,88,qs),
(225,67,l),
(275,67,l)
);
},
{
closed = 1;
nodes = (
(496,-254,l),
(496,545,l),
(35,545,l),
(35,-254,l)
);
},
{
closed = 1;
nodes = (
(448,-206,l),
(83,-206,l),
(83,497,l),
(448,497,l)
);
}
);
userData = {
assembly = "NPUSHB[ ]	/* 81 values pushed */
20 1 4 2 1 76 9 1 4 2 0 2 4 0 128 0 5 10 1 8 3 5 8 103 0 3 0 2 4 3 2 105 0 0 0 1 7 0 1 105 0 7 6 6 7 87 0 7 7 6 95 0 6 7 6 79 42 42 10 10 42 45 42 45 44 43 41 40 39 38 10 37 10 37 39 40 36 33 11 6 26 
CALL[ ]	/* CallFunction */";
};
width = 531;
}
);
note = ".notdef";
},
{
glyphname = exclam;
layers = (
{
layerId = m01;
shapes = (
{
closed = 1;
nodes = (
(40,556,o),
(49,556,qs),
(55,556,ls),
(119,556,o),
(117,485,qs),
(111,162,ls),
(111,154,o),
(103,154,qs),
(55,154,ls),
(48,154,o),
(48,162,qs),
(40,547,ls)
);
},
{
closed = 1;
nodes = (
(134,67,o),
(134,44,qs),
(134,21,o),
(102,-11,o),
(80,-11,qs),
(58,-11,o),
(26,21,o),
(26,44,qs),
(26,66,o),
(58,99,o),
(80,99,qs),
(102,99,o)
);
}
);
userData = {
assembly = "NPUSHB[ ]	/* 35 values pushed */
0 0 0 1 97 0 1 1 39 77 4 1 2 2 3 97 0 3 3 46 3 78 13 12 19 17 12 23 13 23 51 49 5 9 24 
CALL[ ]	/* CallFunction */";
};
width = 160;
}
);
note = exclam;
unicode = 33;
},
{
glyphname = quotedbl;
layers = (
{
layerId = m01;
shapes = (
{
closed = 1;
nodes = (
(27,556,o),
(37,556,qs),
(49,556,ls),
(82,556,o),
(106,525,o),
(104,488,qs),
(95,379,l),
(93,371,o),
(87,371,qs),
(52,371,ls),
(46,371,o),
(44,379,q),
(29,547,l)
);
},
{
closed = 1;
nodes = (
(150,556,o),
(159,556,qs),
(172,556,ls),
(205,556,o),
(229,525,o),
(226,488,qs),
(217,379,ls),
(217,371,o),
(209,371,qs),
(174,371,ls),
(168,371,o),
(166,379,q),
(151,547,ls)
);
}
);
userData = {
assembly = "NPUSHB[ ]	/* 27 values pushed */
18 6 2 0 1 1 76 2 1 0 0 1 97 3 1 1 1 39 0 78 52 51 53 33 4 9 26 
CALL[ ]	/* CallFunction */";
};
width = 257;
}
);
note = quotedbl;
unicode = 34;
},
{
glyphname = numbersign;
layers = (
{
layerId = m01;
shapes = (
{
closed = 1;
nodes = (
(23,151,o),
(26,159,q),
(36,198,ls),
(39,207,o),
(47,207,qs),
(116,207,l),
(151,347,l),
(83,347,ls),
(73,347,o),
(76,356,qs),
(86,394,ls),
(89,403,o),
(96,403,qs),
(165,403,l),
(200,547,ls),
(202,556,o),
(209,556,qs),
(226,556,ls),
(274,556,o),
(261,502,qs),
(236,403,l),
(380,403,l),
(416,547,l),
(417,556,o),
(425,556,qs),
(442,556,ls),
(490,556,o),
(476,502,qs),
(452,403,l),
(519,403,ls),
(528,403,o),
(526,394,qs),
(516,356,ls),
(513,347,o),
(506,347,qs),
(438,347,l),
(403,207,l),
(471,207,ls),
(481,207,o),
(477,198,q),
(467,159,ls),
(465,151,o),
(457,151,qs),
(389,151,l),
(353,9,l),
(352,0,o),
(345,0,qs),
(287,0,ls),
(280,0,o),
(282,9,qs),
(316,151,l),
(173,151,l),
(137,9,l),
(137,0,o),
(130,0,qs),
(72,0,ls),
(64,0,o),
(66,9,qs),
(101,151,l),
(33,151,ls)
);
},
{
closed = 1;
nodes = (
(366,347,l),
(223,347,l),
(187,207,l),
(330,207,l)
);
}
);
userData = {
assembly = "NPUSHB[ ]	/* 79 values pushed */
6 1 0 1 1 76 10 8 2 6 14 11 2 5 4 6 5 104 17 15 12 3 4 16 13 3 3 1 0 4 1 103 9 1 7 7 39 77 2 1 0 0 40 0 78 60 60 0 0 60 63 60 63 62 61 0 59 0 58 55 53 52 50 47 45 43 40 18 50 35 33 35 34 50 18 50 18 9 31 
CALL[ ]	/* CallFunction */";
};
width = 548;
}
);
note = numbersign;
unicode = 35;
},
{
glyphname = dollar;
layers = (
{
layerId = m01;
shapes = (
{
closed = 1;
nodes = (
(116,287,o),
(44,356,o),
(44,414,qs),
(44,473,o),
(85,514,qs),
(131,559,o),
(210,566,q),
(210,612,ls),
(210,621,o),
(218,621,qs),
(250,621,ls),
(258,621,o),
(258,612,qs),
(258,566,l),
(314,562,o),
(367,539,qs),
(416,520,o),
(405,479,qs),
(400,461,ls),
(397,451,o),
(391,451,qs),
(388,451,o),
(381,454,qs),
(378,456,o),
(377,456,q),
(322,491,o),
(258,497,q),
(258,311,l),
(351,281,o),
(422,215,o),
(422,159,qs),
(422,95,o),
(384,52,qs),
(340,2,o),
(258,-8,q),
(258,-56,ls),
(258,-64,o),
(250,-64,qs),
(218,-64,ls),
(210,-64,o),
(210,-56,qs),
(210,-11,l),
(128,-9,o),
(77,31,qs),
(27,70,o),
(27,120,qs),
(27,141,o),
(40,141,qs),
(47,141,o),
(53,133,qs),
(115,60,o),
(210,57,q),
(210,254,l)
);
},
{
closed = 1;
nodes = (
(301,68,o),
(349,115,o),
(349,149,qs),
(349,178,o),
(308,218,o),
(258,238,q),
(258,61,l)
);
},
{
closed = 1;
nodes = (
(167,495,o),
(116,452,o),
(116,418,qs),
(116,389,o),
(159,347,o),
(210,328,q),
(210,498,l)
);
}
);
userData = {
assembly = "NPUSHB[ ]	/* 74 values pushed */
45 38 25 3 6 5 60 53 52 24 4 1 4 59 1 0 1 17 1 2 0 4 76 0 6 5 4 5 6 4 128 0 4 1 5 4 1 126 0 1 0 5 1 0 126 0 5 0 3 5 3 101 0 0 0 2 97 0 2 2 46 2 78 66 65 56 47 50 20 34 16 7 9 28 
CALL[ ]	/* CallFunction */";
};
width = 454;
}
);
note = dollar;
unicode = 36;
},
{
glyphname = percent;
layers = (
{
layerId = m01;
shapes = (
{
closed = 1;
nodes = (
(667,162,qs),
(667,281,o),
(590,281,qs),
(513,281,o),
(513,162,qs),
(513,45,o),
(590,45,qs),
(667,45,o)
);
},
{
closed = 1;
nodes = (
(248,393,qs),
(248,513,o),
(171,513,qs),
(95,513,o),
(95,393,qs),
(95,276,o),
(171,276,qs),
(248,278,o)
);
},
{
closed = 1;
nodes = (
(195,9,q),
(490,547,ls),
(495,556,o),
(502,556,qs),
(515,556,ls),
(539,556,o),
(552,522,o),
(538,496,qs),
(270,9,ls),
(265,0,o),
(257,0,qs),
(198,0,ls),
(189,0,o)
);
},
{
closed = 1;
nodes = (
(494,32,qs),
(452,79,o),
(452,163,qs),
(452,235,o),
(485,281,qs),
(522,335,o),
(590,335,qs),
(648,335,o),
(685,294,qs),
(728,246,o),
(728,163,qs),
(728,90,o),
(695,44,qs),
(658,-9,o),
(590,-9,qs),
(531,-9,o)
);
},
{
closed = 1;
nodes = (
(76,264,qs),
(34,310,o),
(34,394,qs),
(34,467,o),
(66,513,qs),
(104,567,o),
(171,567,qs),
(230,567,o),
(267,525,qs),
(309,478,o),
(309,394,qs),
(309,321,o),
(277,276,qs),
(240,223,o),
(171,223,qs),
(112,223,o)
);
}
);
userData = {
assembly = "MPPEM[ ]	/* MeasurePixelPerEm */
PUSHB[ ]	/* 1 value pushed */
18 
LT[ ]	/* LessThan */
IF[ ]	/* If */
NPUSHB[ ]	/* 44 values pushed */
0 7 0 1 2 7 1 106 11 1 2 14 1 8 0 2 8 105 0 3 3 5 97 9 1 5 5 39 77 10 1 0 0 4 97 13 6 12 3 4 4 40 4 78 
ELSE[ ]	/* Else */
MPPEM[ ]	/* MeasurePixelPerEm */
PUSHB[ ]	/* 1 value pushed */
20 
LT[ ]	/* LessThan */
IF[ ]	/* If */
NPUSHB[ ]	/* 48 values pushed */
0 7 0 1 2 7 1 106 11 1 2 14 1 8 0 2 8 105 0 5 5 39 77 0 3 3 9 97 0 9 9 39 77 10 1 0 0 4 97 13 6 12 3 4 4 40 4 78 
ELSE[ ]	/* Else */
MPPEM[ ]	/* MeasurePixelPerEm */
PUSHB[ ]	/* 1 value pushed */
35 
LT[ ]	/* LessThan */
IF[ ]	/* If */
NPUSHB[ ]	/* 52 values pushed */
0 7 0 1 2 7 1 106 11 1 2 14 1 8 0 2 8 105 0 5 5 39 77 0 3 3 9 97 0 9 9 39 77 12 1 4 4 40 77 10 1 0 0 6 97 13 1 6 6 49 6 78 
ELSE[ ]	/* Else */
NPUSHB[ ]	/* 50 values pushed */
0 9 0 3 7 9 3 105 0 7 0 1 2 7 1 106 11 1 2 14 1 8 0 2 8 105 0 5 5 39 77 12 1 4 4 40 77 10 1 0 0 6 97 13 1 6 6 49 6 78 
EIF[ ]	/* EndIf */
EIF[ ]	/* EndIf */
EIF[ ]	/* EndIf */
NPUSHB[ ]	/* 43 values pushed */
46 45 30 29 18 16 9 8 1 0 54 52 45 60 46 60 38 36 29 44 30 44 25 22 16 28 18 28 13 11 8 15 9 15 5 3 0 7 1 7 15 9 22 
CALL[ ]	/* CallFunction */";
};
width = 761;
}
);
note = percent;
unicode = 37;
},
{
glyphname = ampersand;
layers = (
{
layerId = m01;
shapes = (
{
closed = 1;
nodes = (
(432,290,o),
(445,290,qs),
(496,290,ls),
(505,290,o),
(501,281,q),
(403,133,l),
(507,10,ls),
(509,7,o),
(507,0,o),
(503,0,qs),
(455,0,ls),
(422,0,o),
(405,22,qs),
(361,73,l),
(296,-7,o),
(205,-7,qs),
(136,-7,o),
(91,31,qs),
(39,75,o),
(39,148,qs),
(39,198,o),
(96,272,o),
(161,307,q),
(123,349,o),
(93,406,o),
(93,438,qs),
(93,493,o),
(130,527,qs),
(172,567,o),
(246,567,qs),
(308,567,o),
(347,538,qs),
(393,505,o),
(393,444,qs),
(393,360,o),
(266,291,q),
(363,180,l),
(426,279,ls)
);
},
{
closed = 1;
nodes = (
(321,442,qs),
(321,470,o),
(279,506,o),
(247,506,qs),
(212,506,o),
(170,470,o),
(170,439,qs),
(170,397,o),
(228,337,q),
(321,385,o)
);
},
{
closed = 1;
nodes = (
(154,233,o),
(115,184,o),
(115,152,qs),
(115,109,o),
(167,57,o),
(211,57,qs),
(243,57,o),
(292,84,o),
(322,120,q),
(202,259,l)
);
}
);
userData = {
assembly = "NPUSHB[ ]	/* 13 values pushed */
14 1 2 3 4 57 31 23 3 5 3 2 76 
MPPEM[ ]	/* MeasurePixelPerEm */
PUSHB[ ]	/* 1 value pushed */
27 
LT[ ]	/* LessThan */
IF[ ]	/* If */
NPUSHB[ ]	/* 33 values pushed */
0 4 4 0 97 0 0 0 39 77 0 3 3 1 97 2 1 1 1 49 77 0 5 5 1 97 2 1 1 1 49 1 78 
ELSE[ ]	/* Else */
MPPEM[ ]	/* MeasurePixelPerEm */
PUSHB[ ]	/* 1 value pushed */
35 
LT[ ]	/* LessThan */
IF[ ]	/* If */
NPUSHB[ ]	/* 31 values pushed */
0 4 4 0 97 0 0 0 39 77 0 3 3 2 97 0 2 2 40 77 0 5 5 1 97 0 1 1 49 1 78 
ELSE[ ]	/* Else */
NPUSHB[ ]	/* 29 values pushed */
0 0 0 4 3 0 4 105 0 3 3 2 97 0 2 2 40 77 0 5 5 1 97 0 1 1 49 1 78 
EIF[ ]	/* EndIf */
EIF[ ]	/* EndIf */
NPUSHB[ ]	/* 9 values pushed */
38 38 54 35 44 38 6 9 28 
CALL[ ]	/* CallFunction */";
};
width = 532;
}
);
note = ampersand;
unicode = 38;
},
{
glyphname = quotesingle;
layers = (
{
layerId = m01;
shapes = (
{
closed = 1;
nodes = (
(27,556,o),
(37,556,qs),
(50,556,ls),
(83,556,o),
(106,525,o),
(104,488,qs),
(95,379,ls),
(95,371,o),
(87,371,qs),
(52,371,ls),
(46,371,o),
(44,379,q),
(29,547,l)
);
}
);
userData = {
assembly = "NPUSHB[ ]	/* 23 values pushed */
6 5 2 0 1 1 76 0 0 0 1 97 0 1 1 39 0 78 52 49 2 9 24 
CALL[ ]	/* CallFunction */";
};
width = 134;
}
);
note = quotesingle;
unicode = 39;
},
{
glyphname = parenleft;
layers = (
{
layerId = m01;
shapes = (
{
closed = 1;
nodes = (
(116,545,qs),
(176,659,o),
(269,697,qs),
(278,700,o),
(278,691,qs),
(278,690,o),
(278,689,qs),
(278,677,o),
(277,671,q),
(276,639,o),
(257,621,qs),
(250,615,o),
(249,614,qs),
(127,494,o),
(128,277,qs),
(127,59,o),
(249,-61,qs),
(251,-63,o),
(254,-66,qs),
(276,-86,o),
(277,-118,q),
(278,-124,o),
(278,-135,qs),
(278,-138,ls),
(278,-148,o),
(269,-144,qs),
(189,-112,o),
(132,-21,qs),
(56,101,o),
(57,277,qs),
(56,431,o)
);
}
);
userData = {
assembly = "PUSHB[ ]	/* 4 values pushed */
26 5 1 50 
CALL[ ]	/* CallFunction */";
};
width = 343;
}
);
note = parenleft;
unicode = 40;
},
{
glyphname = parenright;
layers = (
{
layerId = m01;
shapes = (
{
closed = 1;
nodes = (
(217,7,qs),
(158,-106,o),
(65,-144,qs),
(56,-148,o),
(56,-138,qs),
(56,-136,ls),
(55,-124,o),
(57,-118,q),
(58,-86,o),
(77,-69,qs),
(84,-63,o),
(85,-61,q),
(207,59,o),
(206,277,qs),
(207,494,o),
(85,614,qs),
(83,616,o),
(80,619,qs),
(58,639,o),
(57,671,q),
(55,677,o),
(55,688,q),
(56,690,o),
(56,691,qs),
(56,700,o),
(65,697,qs),
(145,664,o),
(201,574,qs),
(278,452,o),
(277,277,qs),
(277,122,o)
);
}
);
userData = {
assembly = "PUSHB[ ]	/* 4 values pushed */
26 5 1 50 
CALL[ ]	/* CallFunction */";
};
width = 338;
}
);
note = parenright;
unicode = 41;
},
{
glyphname = asterisk;
layers = (
{
layerId = m01;
shapes = (
{
closed = 1;
nodes = (
(31,403,o),
(34,413,qs),
(51,463,ls),
(53,471,o),
(61,468,qs),
(150,431,l),
(143,531,ls),
(143,539,o),
(151,539,qs),
(209,539,ls),
(216,539,o),
(216,531,qs),
(210,431,l),
(299,468,ls),
(307,471,o),
(310,463,qs),
(326,413,ls),
(329,404,o),
(321,402,qs),
(228,377,l),
(288,300,l),
(294,294,o),
(286,289,qs),
(244,262,ls),
(236,256,o),
(233,262,qs),
(179,348,l),
(129,262,l),
(126,255,o),
(118,262,q),
(74,289,ls),
(67,293,o),
(71,300,q),
(133,377,l),
(39,402,l)
);
}
);
userData = {
assembly = "PUSHB[ ]	/* 7 values pushed */
28 21 14 7 4 0 73 
MPPEM[ ]	/* MeasurePixelPerEm */
PUSHB[ ]	/* 1 value pushed */
22 
LT[ ]	/* LessThan */
IF[ ]	/* If */
PUSHB[ ]	/* 6 values pushed */
0 0 0 39 0 78 
ELSE[ ]	/* Else */
PUSHB[ ]	/* 4 values pushed */
0 0 0 118 
EIF[ ]	/* EndIf */
PUSHB[ ]	/* 5 values pushed */
26 23 1 9 22 
CALL[ ]	/* CallFunction */";
};
width = 356;
}
);
note = asterisk;
unicode = 42;
},
{
glyphname = plus;
layers = (
{
layerId = m01;
shapes = (
{
closed = 1;
nodes = (
(37,238,o),
(37,247,qs),
(37,295,ls),
(37,304,o),
(45,304,qs),
(168,304,l),
(168,441,ls),
(168,450,o),
(176,450,qs),
(208,450,o),
(235,422,o),
(235,389,qs),
(235,304,l),
(358,304,ls),
(366,304,o),
(366,295,qs),
(366,247,ls),
(366,238,o),
(358,238,qs),
(235,238,l),
(235,101,ls),
(235,92,o),
(227,92,qs),
(176,92,ls),
(168,92,o),
(168,101,qs),
(168,238,l),
(45,238,ls)
);
}
);
userData = {
assembly = "NPUSHB[ ]	/* 41 values pushed */
0 3 2 0 3 89 4 1 2 6 5 2 1 0 2 1 103 0 3 3 0 97 0 0 3 0 81 0 0 0 27 0 26 34 35 35 34 50 7 9 27 
CALL[ ]	/* CallFunction */";
};
width = 403;
}
);
note = plus;
unicode = 43;
},
{
glyphname = comma;
layers = (
{
layerId = m01;
shapes = (
{
closed = 1;
nodes = (
(135,65,o),
(135,42,qs),
(135,-39,o),
(51,-106,q),
(50,-108,o),
(46,-105,qs),
(24,-84,o),
(47,-59,qs),
(69,-32,o),
(74,-11,q),
(53,-7,o),
(28,23,o),
(28,44,qs),
(28,67,o),
(59,99,o),
(81,99,qs),
(104,99,o)
);
}
);
userData = {
assembly = "NPUSHB[ ]	/* 18 values pushed */
6 1 0 73 1 1 0 0 118 1 0 0 16 1 16 2 9 22 
CALL[ ]	/* CallFunction */";
};
width = 155;
}
);
note = comma;
unicode = 44;
},
{
glyphname = hyphen;
layers = (
{
layerId = m01;
shapes = (
{
closed = 1;
nodes = (
(37,177,qs),
(37,229,ls),
(37,238,o),
(45,238,qs),
(257,238,ls),
(265,238,o),
(265,229,qs),
(265,177,ls),
(265,168,o),
(257,168,qs),
(45,168,ls),
(37,168,o)
);
}
);
userData = {
assembly = "NPUSHB[ ]	/* 28 values pushed */
0 1 0 0 1 87 0 1 1 0 95 2 1 0 1 0 79 2 0 8 5 0 11 2 11 3 9 22 
CALL[ ]	/* CallFunction */";
};
width = 301;
}
);
note = hyphen;
unicode = 45;
},
{
glyphname = period;
layers = (
{
layerId = m01;
shapes = (
{
closed = 1;
nodes = (
(132,67,o),
(132,44,qs),
(132,21,o),
(100,-11,o),
(78,-11,qs),
(56,-11,o),
(24,21,o),
(24,44,qs),
(24,66,o),
(56,99,o),
(78,99,qs),
(100,99,o)
);
}
);
userData = {
assembly = "NPUSHB[ ]	/* 23 values pushed */
2 1 0 0 1 97 0 1 1 46 1 78 1 0 7 5 0 11 1 11 3 9 22 
CALL[ ]	/* CallFunction */";
};
width = 156;
}
);
note = period;
unicode = 46;
},
{
glyphname = slash;
layers = (
{
layerId = m01;
shapes = (
{
closed = 1;
nodes = (
(5,9,qs),
(231,547,l),
(236,556,o),
(245,556,qs),
(254,556,ls),
(278,556,o),
(293,520,o),
(281,493,qs),
(77,9,ls),
(73,0,o),
(65,0,qs),
(9,0,ls),
(1,0,o)
);
}
);
userData = {
assembly = "NPUSHB[ ]	/* 23 values pushed */
0 1 1 39 77 2 1 0 0 40 0 78 2 0 9 6 0 12 2 12 3 9 22 
CALL[ ]	/* CallFunction */";
};
width = 286;
}
);
note = slash;
unicode = 47;
},
{
glyphname = zero;
layers = (
{
layerId = m01;
shapes = (
{
closed = 1;
nodes = (
(339,101,qs),
(378,154,o),
(378,278,qs),
(378,496,o),
(252,496,qs),
(194,496,o),
(163,455,qs),
(125,403,o),
(125,278,qs),
(125,168,o),
(154,115,qs),
(185,61,o),
(252,61,qs),
(309,61,o)
);
},
{
closed = 1;
nodes = (
(107,54,qs),
(48,128,o),
(48,278,qs),
(48,409,o),
(95,483,qs),
(147,567,o),
(252,567,qs),
(342,567,o),
(394,502,qs),
(455,428,o),
(455,278,qs),
(455,147,o),
(409,73,qs),
(357,-10,o),
(252,-10,qs),
(159,-10,o)
);
}
);
userData = {
assembly = "MPPEM[ ]	/* MeasurePixelPerEm */
PUSHB[ ]	/* 1 value pushed */
35 
LT[ ]	/* LessThan */
IF[ ]	/* If */
NPUSHB[ ]	/* 23 values pushed */
0 1 1 3 97 0 3 3 39 77 4 1 0 0 2 97 5 1 2 2 46 2 78 
ELSE[ ]	/* Else */
NPUSHB[ ]	/* 21 values pushed */
0 3 0 1 0 3 1 105 4 1 0 0 2 97 5 1 2 2 46 2 78 
EIF[ ]	/* EndIf */
NPUSHB[ ]	/* 19 values pushed */
15 14 1 0 23 21 14 29 15 29 9 7 0 13 1 13 6 9 22 
CALL[ ]	/* CallFunction */";
};
width = 502;
}
);
note = zero;
unicode = 48;
},
{
glyphname = one;
layers = (
{
layerId = m01;
shapes = (
{
closed = 1;
nodes = (
(46,447,ls),
(37,443,o),
(37,453,qs),
(37,511,ls),
(37,522,o),
(47,525,qs),
(108,547,ls),
(133,556,o),
(157,556,qs),
(170,556,ls),
(219,556,o),
(219,501,qs),
(219,69,l),
(285,69,ls),
(330,69,o),
(330,26,qs),
(330,11,ls),
(330,0,o),
(319,0,qs),
(44,0,ls),
(36,0,o),
(36,9,qs),
(36,61,ls),
(36,69,o),
(44,69,qs),
(144,69,l),
(144,484,l)
);
}
);
userData = {
assembly = "NPUSHB[ ]	/* 30 values pushed */
26 1 0 3 1 76 0 3 3 39 77 2 1 0 0 1 96 0 1 1 40 1 78 50 35 51 32 4 9 26 
CALL[ ]	/* CallFunction */";
};
width = 353;
}
);
note = one;
unicode = 49;
},
{
glyphname = two;
layers = (
{
layerId = m01;
shapes = (
{
closed = 1;
nodes = (
(399,69,o),
(399,27,qs),
(399,11,ls),
(399,0,o),
(388,0,qs),
(45,0,ls),
(37,0,o),
(37,9,qs),
(37,98,o),
(86,160,qs),
(118,200,o),
(192,249,qs),
(270,301,o),
(318,361,o),
(318,406,qs),
(318,449,o),
(263,498,o),
(213,498,qs),
(146,498,o),
(79,455,qs),
(70,450,o),
(66,450,qs),
(61,450,o),
(58,458,qs),
(52,478,ls),
(40,517,o),
(88,538,qs),
(155,567,o),
(218,567,qs),
(295,567,o),
(341,531,qs),
(395,490,o),
(395,407,qs),
(395,341,o),
(349,288,qs),
(320,254,o),
(251,207,qs),
(177,156,o),
(129,104,o),
(125,69,q),
(354,69,ls)
);
}
);
userData = {
assembly = "MPPEM[ ]	/* MeasurePixelPerEm */
PUSHB[ ]	/* 1 value pushed */
35 
LT[ ]	/* LessThan */
IF[ ]	/* If */
NPUSHB[ ]	/* 30 values pushed */
0 1 2 4 2 1 4 128 0 2 2 0 97 0 0 0 39 77 5 1 4 4 3 95 0 3 3 40 3 78 
ELSE[ ]	/* Else */
NPUSHB[ ]	/* 28 values pushed */
0 1 2 4 2 1 4 128 0 0 0 2 1 0 2 105 5 1 4 4 3 95 0 3 3 40 3 78 
EIF[ ]	/* EndIf */
NPUSHB[ ]	/* 13 values pushed */
0 0 0 40 0 39 58 34 37 42 6 9 26 
CALL[ ]	/* CallFunction */";
};
width = 446;
}
);
note = two;
unicode = 50;
},
{
glyphname = three;
layers = (
{
layerId = m01;
shapes = (
{
closed = 1;
nodes = (
(401,208,o),
(401,157,qs),
(401,88,o),
(354,43,qs),
(300,-10,o),
(208,-10,qs),
(127,-10,o),
(75,30,qs),
(25,69,o),
(25,117,qs),
(25,139,o),
(39,139,qs),
(45,139,o),
(54,129,qs),
(110,58,o),
(202,58,qs),
(258,58,o),
(324,113,o),
(324,159,qs),
(324,205,o),
(292,230,qs),
(260,254,o),
(205,254,qs),
(148,254,ls),
(106,254,o),
(106,294,qs),
(106,311,ls),
(106,324,o),
(116,324,qs),
(207,324,ls),
(308,324,o),
(308,412,qs),
(308,499,o),
(201,499,qs),
(134,499,o),
(68,456,qs),
(67,455,o),
(65,454,qs),
(58,450,o),
(56,450,qs),
(50,450,o),
(47,458,qs),
(41,478,ls),
(29,515,o),
(77,538,qs),
(143,567,o),
(204,567,qs),
(279,567,o),
(326,534,qs),
(383,494,o),
(383,419,qs),
(383,327,o),
(294,291,q),
(343,280,o)
);
}
);
userData = {
assembly = "MPPEM[ ]	/* MeasurePixelPerEm */
PUSHB[ ]	/* 1 value pushed */
35 
LT[ ]	/* LessThan */
IF[ ]	/* If */
NPUSHB[ ]	/* 45 values pushed */
0 1 2 3 2 1 3 128 0 6 4 5 4 6 5 128 0 3 0 4 6 3 4 103 0 2 2 0 97 0 0 0 39 77 0 5 5 7 97 0 7 7 46 7 78 
ELSE[ ]	/* Else */
NPUSHB[ ]	/* 43 values pushed */
0 1 2 3 2 1 3 128 0 6 4 5 4 6 5 128 0 0 0 2 1 0 2 105 0 3 0 4 6 3 4 103 0 5 5 7 97 0 7 7 46 7 78 
EIF[ ]	/* EndIf */
NPUSHB[ ]	/* 11 values pushed */
36 34 37 51 50 36 37 37 8 9 30 
CALL[ ]	/* CallFunction */";
};
width = 441;
}
);
note = three;
unicode = 51;
},
{
glyphname = four;
layers = (
{
layerId = m01;
shapes = (
{
closed = 1;
nodes = (
(16,128,o),
(16,136,qs),
(16,177,ls),
(16,194,o),
(26,208,qs),
(243,537,l),
(254,556,o),
(277,556,qs),
(307,556,ls),
(354,556,o),
(354,508,qs),
(354,197,l),
(390,197,ls),
(435,197,o),
(435,154,qs),
(435,138,ls),
(435,128,o),
(424,128,qs),
(354,128,l),
(354,9,ls),
(354,0,o),
(347,0,qs),
(287,0,ls),
(279,0,o),
(279,9,qs),
(279,128,l),
(24,128,ls)
);
},
{
closed = 1;
nodes = (
(279,476,l),
(95,197,l),
(279,197,l)
);
}
);
userData = {
assembly = "NPUSHB[ ]	/* 48 values pushed */
28 1 2 3 1 76 7 5 2 2 6 4 2 1 0 2 1 104 0 3 3 39 77 0 0 0 40 0 78 27 27 0 0 27 29 27 29 0 26 0 25 50 35 34 50 8 9 26 
CALL[ ]	/* CallFunction */";
};
width = 458;
}
);
note = four;
unicode = 52;
},
{
glyphname = five;
layers = (
{
layerId = m01;
shapes = (
{
closed = 1;
nodes = (
(177,353,o),
(224,353,qs),
(303,353,o),
(352,312,qs),
(407,265,o),
(407,179,qs),
(407,100,o),
(357,48,qs),
(302,-10,o),
(210,-10,qs),
(135,-10,o),
(83,27,qs),
(29,65,o),
(29,116,qs),
(29,137,o),
(44,137,qs),
(51,137,o),
(59,128,qs),
(115,58,o),
(203,58,qs),
(259,58,o),
(293,86,qs),
(331,118,o),
(331,175,qs),
(331,225,o),
(303,254,qs),
(272,286,o),
(211,286,qs),
(142,286,o),
(68,259,qs),
(56,255,o),
(56,268,qs),
(56,547,ls),
(56,556,o),
(63,556,qs),
(329,556,ls),
(375,556,o),
(375,513,qs),
(375,497,ls),
(375,486,o),
(364,486,qs),
(130,486,l),
(130,340,l)
);
}
);
userData = {
assembly = "PUSHB[ ]	/* 6 values pushed */
42 1 2 6 1 76 
MPPEM[ ]	/* MeasurePixelPerEm */
PUSHB[ ]	/* 1 value pushed */
27 
LT[ ]	/* LessThan */
IF[ ]	/* If */
NPUSHB[ ]	/* 39 values pushed */
0 4 2 3 2 4 3 128 0 0 0 1 95 0 1 1 39 77 0 2 2 6 97 0 6 6 42 77 0 3 3 5 97 0 5 5 46 5 78 
ELSE[ ]	/* Else */
NPUSHB[ ]	/* 37 values pushed */
0 4 2 3 2 4 3 128 0 6 0 2 4 6 2 105 0 0 0 1 95 0 1 1 39 77 0 3 3 5 97 0 5 5 46 5 78 
EIF[ ]	/* EndIf */
NPUSHB[ ]	/* 10 values pushed */
38 36 34 38 37 51 32 7 9 29 
CALL[ ]	/* CallFunction */";
};
width = 448;
}
);
note = five;
unicode = 53;
},
{
glyphname = six;
layers = (
{
layerId = m01;
shapes = (
{
closed = 1;
nodes = (
(253,362,qs),
(324,362,o),
(373,315,qs),
(428,263,o),
(428,184,qs),
(428,101,o),
(381,49,qs),
(328,-10,o),
(236,-10,qs),
(158,-10,o),
(104,35,qs),
(42,87,o),
(42,174,qs),
(42,213,o),
(71,291,o),
(108,353,qs),
(232,557,ls),
(238,567,o),
(247,567,qs),
(272,567,o),
(281,544,qs),
(292,516,o),
(270,479,qs),
(191,349,l),
(222,362,o)
);
},
{
closed = 1;
nodes = (
(145,96,qs),
(178,59,o),
(237,59,qs),
(286,59,o),
(318,88,qs),
(353,121,o),
(353,177,qs),
(353,225,o),
(326,257,qs),
(293,296,o),
(236,296,qs),
(187,296,o),
(154,267,qs),
(116,233,o),
(116,177,qs),
(116,128,o)
);
}
);
userData = {
assembly = "MPPEM[ ]	/* MeasurePixelPerEm */
PUSHB[ ]	/* 1 value pushed */
35 
LT[ ]	/* LessThan */
IF[ ]	/* If */
NPUSHB[ ]	/* 26 values pushed */
0 0 0 39 77 0 3 3 2 97 0 2 2 42 77 0 4 4 1 97 0 1 1 46 1 78 
ELSE[ ]	/* Else */
NPUSHB[ ]	/* 26 values pushed */
0 0 2 0 133 0 3 3 2 97 0 2 2 42 77 0 4 4 1 97 0 1 1 46 1 78 
EIF[ ]	/* EndIf */
PUSHB[ ]	/* 8 values pushed */
38 36 38 40 36 5 9 27 
CALL[ ]	/* CallFunction */";
};
width = 463;
}
);
note = six;
unicode = 54;
},
{
glyphname = seven;
layers = (
{
layerId = m01;
shapes = (
{
closed = 1;
nodes = (
(27,486,o),
(27,495,qs),
(27,547,ls),
(27,556,o),
(35,556,qs),
(339,556,ls),
(385,556,o),
(385,513,qs),
(385,502,ls),
(385,480,o),
(374,456,qs),
(170,12,ls),
(165,0,o),
(154,0,qs),
(93,0,ls),
(83,0,o),
(87,9,qs),
(306,486,l),
(35,486,ls)
);
}
);
userData = {
assembly = "NPUSHB[ ]	/* 28 values pushed */
3 1 2 2 1 95 0 1 1 39 77 0 0 0 40 0 78 0 0 0 18 0 17 54 50 4 9 24 
CALL[ ]	/* CallFunction */";
};
width = 423;
}
);
note = seven;
unicode = 55;
},
{
glyphname = eight;
layers = (
{
layerId = m01;
shapes = (
{
closed = 1;
nodes = (
(139,86,qs),
(172,54,o),
(231,54,qs),
(286,54,o),
(352,109,o),
(352,156,qs),
(352,201,o),
(321,230,qs),
(287,261,o),
(231,261,qs),
(178,261,o),
(111,203,o),
(111,156,qs),
(111,113,o)
);
},
{
closed = 1;
nodes = (
(150,353,qs),
(180,324,o),
(231,324,qs),
(278,324,o),
(337,373,o),
(337,412,qs),
(337,453,o),
(279,503,o),
(231,503,qs),
(183,503,o),
(125,453,o),
(125,412,qs),
(125,377,o)
);
},
{
closed = 1;
nodes = (
(52,422,qs),
(52,483,o),
(98,523,qs),
(148,567,o),
(231,567,qs),
(303,567,o),
(352,533,qs),
(410,492,o),
(410,422,qs),
(410,332,o),
(322,294,q),
(427,258,o),
(427,155,qs),
(427,87,o),
(381,42,qs),
(327,-11,o),
(231,-11,qs),
(148,-11,o),
(95,30,qs),
(36,76,o),
(36,155,qs),
(36,258,o),
(140,294,q),
(52,332,o)
);
}
);
userData = {
assembly = "PUSHB[ ]	/* 6 values pushed */
39 1 0 3 1 76 
MPPEM[ ]	/* MeasurePixelPerEm */
PUSHB[ ]	/* 1 value pushed */
35 
LT[ ]	/* LessThan */
IF[ ]	/* If */
NPUSHB[ ]	/* 29 values pushed */
0 3 0 0 1 3 0 105 0 2 2 5 97 0 5 5 39 77 0 1 1 4 97 0 4 4 46 4 78 
ELSE[ ]	/* Else */
NPUSHB[ ]	/* 27 values pushed */
0 5 0 2 3 5 2 105 0 3 0 0 1 3 0 105 0 1 1 4 97 0 4 4 46 4 78 
EIF[ ]	/* EndIf */
NPUSHB[ ]	/* 9 values pushed */
42 40 36 37 37 34 6 9 28 
CALL[ ]	/* CallFunction */";
};
width = 462;
}
);
note = eight;
unicode = 56;
},
{
glyphname = nine;
layers = (
{
layerId = m01;
shapes = (
{
closed = 1;
nodes = (
(212,194,qs),
(141,194,o),
(92,239,qs),
(36,291,o),
(36,372,qs),
(36,455,o),
(85,508,qs),
(140,567,o),
(231,567,qs),
(310,567,o),
(362,522,qs),
(422,470,o),
(422,382,qs),
(422,342,o),
(394,265,o),
(356,204,qs),
(233,1,ls),
(227,-10,o),
(217,-10,qs),
(192,-10,o),
(183,14,qs),
(173,42,o),
(194,77,qs),
(275,209,l),
(246,194,o)
);
},
{
closed = 1;
nodes = (
(310,290,qs),
(347,323,o),
(347,379,qs),
(347,429,o),
(320,461,qs),
(287,498,o),
(229,498,qs),
(180,498,o),
(147,469,qs),
(111,435,o),
(111,379,qs),
(111,329,o),
(138,297,qs),
(170,261,o),
(228,261,qs),
(277,261,o)
);
}
);
userData = {
assembly = "MPPEM[ ]	/* MeasurePixelPerEm */
PUSHB[ ]	/* 1 value pushed */
35 
LT[ ]	/* LessThan */
IF[ ]	/* If */
NPUSHB[ ]	/* 25 values pushed */
5 1 3 0 2 0 3 2 105 0 4 4 1 97 0 1 1 39 77 0 0 0 46 0 78 
ELSE[ ]	/* Else */
NPUSHB[ ]	/* 23 values pushed */
0 1 0 4 3 1 4 105 5 1 3 0 2 0 3 2 105 0 0 0 46 0 78 
EIF[ ]	/* EndIf */
NPUSHB[ ]	/* 14 values pushed */
26 25 34 32 25 40 26 40 38 40 36 6 9 25 
CALL[ ]	/* CallFunction */";
};
width = 463;
}
);
note = nine;
unicode = 57;
},
{
glyphname = colon;
layers = (
{
layerId = m01;
shapes = (
{
closed = 1;
nodes = (
(142,292,o),
(142,269,qs),
(142,246,o),
(110,214,o),
(88,214,qs),
(66,214,o),
(34,246,o),
(34,269,qs),
(34,291,o),
(66,324,o),
(88,324,qs),
(110,324,o)
);
},
{
closed = 1;
nodes = (
(142,67,o),
(142,44,qs),
(142,21,o),
(110,-11,o),
(88,-11,qs),
(66,-11,o),
(34,21,o),
(34,44,qs),
(34,66,o),
(66,99,o),
(88,99,qs),
(110,99,o)
);
}
);
userData = {
assembly = "NPUSHB[ ]	/* 40 values pushed */
4 1 0 0 1 2 0 1 105 5 1 2 2 3 97 0 3 3 46 3 78 13 12 1 0 19 17 12 23 13 23 7 5 0 11 1 11 6 9 22 
CALL[ ]	/* CallFunction */";
};
width = 176;
}
);
note = colon;
unicode = 58;
},
{
glyphname = semicolon;
layers = (
{
layerId = m01;
shapes = (
{
closed = 1;
nodes = (
(38,246,o),
(38,269,qs),
(38,291,o),
(70,324,o),
(92,324,qs),
(114,324,o),
(146,292,o),
(146,269,qs),
(146,246,o),
(114,214,o),
(92,214,qs),
(70,214,o)
);
},
{
closed = 1;
nodes = (
(145,65,o),
(145,42,qs),
(145,-39,o),
(61,-106,q),
(60,-108,o),
(56,-105,qs),
(34,-84,o),
(57,-59,qs),
(79,-32,o),
(84,-11,q),
(63,-7,o),
(38,23,o),
(38,44,qs),
(38,67,o),
(69,99,o),
(91,99,qs),
(114,99,o)
);
}
);
userData = {
assembly = "NPUSHB[ ]	/* 44 values pushed */
18 1 2 73 4 1 2 0 2 134 0 1 0 0 1 89 0 1 1 0 97 3 1 0 1 0 81 13 12 1 0 12 28 13 28 7 5 0 11 1 11 5 9 22 
CALL[ ]	/* CallFunction */";
};
width = 176;
}
);
note = semicolon;
unicode = 59;
},
{
glyphname = less;
layers = (
{
layerId = m01;
shapes = (
{
closed = 1;
nodes = (
(407,158,o),
(407,99,qs),
(407,94,ls),
(407,86,o),
(399,88,q),
(45,238,l),
(37,240,o),
(37,251,qs),
(37,290,ls),
(37,299,o),
(45,303,qs),
(397,451,ls),
(407,455,o),
(407,445,qs),
(407,396,ls),
(407,382,o),
(393,377,qs),
(133,271,l),
(354,180,ls)
);
}
);
userData = {
assembly = "PUSHB[ ]	/* 4 values pushed */
14 5 1 50 
CALL[ ]	/* CallFunction */";
};
width = 450;
}
);
note = less;
unicode = 60;
},
{
glyphname = equal;
layers = (
{
layerId = m01;
shapes = (
{
closed = 1;
nodes = (
(37,334,qs),
(37,382,ls),
(37,391,o),
(45,391,qs),
(315,391,ls),
(366,391,o),
(366,343,qs),
(366,334,ls),
(366,325,o),
(358,325,qs),
(45,325,ls),
(37,325,o)
);
},
{
closed = 1;
nodes = (
(37,157,qs),
(37,205,ls),
(37,214,o),
(45,214,qs),
(315,214,ls),
(366,214,o),
(366,166,qs),
(366,157,ls),
(366,148,o),
(358,148,qs),
(45,148,ls),
(37,148,o)
);
}
);
userData = {
assembly = "NPUSHB[ ]	/* 45 values pushed */
0 1 4 1 0 3 1 0 103 0 3 2 2 3 87 0 3 3 2 95 5 1 2 3 2 79 14 12 2 0 20 17 12 23 14 23 8 5 0 11 2 11 6 9 22 
CALL[ ]	/* CallFunction */";
};
width = 403;
}
);
note = equal;
unicode = 61;
},
{
glyphname = greater;
layers = (
{
layerId = m01;
shapes = (
{
closed = 1;
nodes = (
(43,383,o),
(43,396,qs),
(43,445,ls),
(43,456,o),
(53,451,qs),
(406,303,ls),
(414,299,o),
(414,290,qs),
(414,251,ls),
(414,240,o),
(406,238,q),
(52,88,ls),
(43,85,o),
(43,94,qs),
(43,99,ls),
(43,159,o),
(96,180,qs),
(318,271,l),
(57,377,ls)
);
}
);
userData = {
assembly = "PUSHB[ ]	/* 4 values pushed */
14 5 1 50 
CALL[ ]	/* CallFunction */";
};
width = 450;
}
);
note = greater;
unicode = 62;
},
{
glyphname = question;
layers = (
{
layerId = m01;
shapes = (
{
closed = 1;
nodes = (
(148,219,o),
(163,242,qs),
(177,263,o),
(213,292,qs),
(262,331,o),
(292,375,o),
(292,407,qs),
(292,449,o),
(236,497,o),
(188,497,qs),
(121,497,o),
(57,456,q),
(47,451,o),
(44,451,qs),
(38,451,o),
(36,459,qs),
(30,479,ls),
(17,518,o),
(65,539,qs),
(126,567,o),
(188,567,qs),
(265,567,o),
(312,532,qs),
(368,492,o),
(368,413,qs),
(368,362,o),
(332,317,qs),
(307,285,o),
(232,226,qs),
(213,211,o),
(213,183,qs),
(213,160,ls),
(213,152,o),
(205,152,qs),
(156,152,ls),
(148,152,o),
(148,160,qs),
(148,192,ls)
);
},
{
closed = 1;
nodes = (
(235,67,o),
(235,44,qs),
(235,21,o),
(204,-11,o),
(182,-11,qs),
(159,-11,o),
(127,21,o),
(127,44,qs),
(127,66,o),
(159,99,o),
(182,99,qs),
(203,99,o)
);
}
);
userData = {
assembly = "MPPEM[ ]	/* MeasurePixelPerEm */
PUSHB[ ]	/* 1 value pushed */
35 
LT[ ]	/* LessThan */
IF[ ]	/* If */
NPUSHB[ ]	/* 37 values pushed */
0 2 3 0 3 2 0 128 0 0 4 3 0 4 126 0 3 3 1 97 0 1 1 39 77 6 1 4 4 5 97 0 5 5 46 5 78 
ELSE[ ]	/* Else */
NPUSHB[ ]	/* 35 values pushed */
0 2 3 0 3 2 0 128 0 0 4 3 0 4 126 0 1 0 3 2 1 3 105 6 1 4 4 5 97 0 5 5 46 5 78 
EIF[ ]	/* EndIf */
NPUSHB[ ]	/* 15 values pushed */
39 38 45 43 38 49 39 49 34 37 43 49 7 9 26 
CALL[ ]	/* CallFunction */";
};
width = 393;
}
);
note = question;
unicode = 63;
},
{
glyphname = at;
layers = (
{
layerId = m01;
shapes = (
{
closed = 1;
nodes = (
(444,135,qs),
(480,173,o),
(480,242,qs),
(480,289,o),
(429,344,o),
(384,344,qs),
(336,344,o),
(305,310,qs),
(269,271,o),
(269,208,qs),
(269,159,o),
(319,101,o),
(361,101,qs),
(413,101,o)
);
},
{
closed = 1;
nodes = (
(347,34,qs),
(287,34,o),
(245,77,qs),
(195,128,o),
(195,214,qs),
(195,290,o),
(242,345,qs),
(296,409,o),
(379,409,qs),
(458,409,o),
(492,352,q),
(503,403,o),
(551,403,qs),
(557,403,ls),
(564,403,o),
(564,393,q),
(542,163,ls),
(541,158,o),
(541,149,qs),
(539,133,o),
(539,126,qs),
(539,96,o),
(567,96,qs),
(603,96,o),
(626,131,qs),
(656,176,o),
(656,267,qs),
(656,373,o),
(592,437,qs),
(522,507,o),
(397,507,qs),
(280,507,o),
(202,435,qs),
(114,353,o),
(114,221,qs),
(114,95,o),
(185,17,qs),
(264,-69,o),
(403,-69,qs),
(528,-69,o),
(614,-7,qs),
(615,-6,ls),
(624,1,o),
(630,1,qs),
(639,1,o),
(639,-11,qs),
(639,-43,o),
(583,-80,qs),
(506,-131,o),
(396,-131,qs),
(249,-131,o),
(154,-47,qs),
(43,51,o),
(43,222,qs),
(43,357,o),
(133,455,qs),
(237,568,o),
(396,568,qs),
(525,568,o),
(615,500,qs),
(724,416,o),
(724,271,qs),
(724,174,o),
(682,110,qs),
(633,35,o),
(551,35,qs),
(519,35,o),
(476,73,o),
(474,103,q),
(433,34,o)
);
}
);
userData = {
assembly = "NPUSHB[ ]	/* 12 values pushed */
72 67 2 1 9 64 14 2 0 1 2 76 
MPPEM[ ]	/* MeasurePixelPerEm */
PUSHB[ ]	/* 1 value pushed */
31 
LT[ ]	/* LessThan */
IF[ ]	/* If */
NPUSHB[ ]	/* 46 values pushed */
0 5 2 6 2 5 6 128 10 1 9 0 1 0 9 1 105 8 12 2 0 11 1 2 5 0 2 106 0 6 0 4 6 4 101 0 7 7 3 97 0 3 3 39 7 78 
ELSE[ ]	/* Else */
MPPEM[ ]	/* MeasurePixelPerEm */
PUSHB[ ]	/* 1 value pushed */
33 
LT[ ]	/* LessThan */
IF[ ]	/* If */
NPUSHB[ ]	/* 53 values pushed */
0 9 10 1 10 9 1 128 0 5 2 6 2 5 6 128 0 10 0 1 0 10 1 105 8 12 2 0 11 1 2 5 0 2 106 0 6 0 4 6 4 101 0 7 7 3 97 0 3 3 39 7 78 
ELSE[ ]	/* Else */
MPPEM[ ]	/* MeasurePixelPerEm */
PUSHB[ ]	/* 1 value pushed */
37 
LT[ ]	/* LessThan */
IF[ ]	/* If */
NPUSHB[ ]	/* 59 values pushed */
0 9 10 1 10 9 1 128 0 5 2 6 2 5 6 128 0 3 0 7 10 3 7 105 0 10 0 1 0 10 1 105 8 12 2 0 11 1 2 5 0 2 106 0 6 4 4 6 89 0 6 6 4 97 0 4 6 4 81 
ELSE[ ]	/* Else */
NPUSHB[ ]	/* 64 values pushed */
0 9 10 1 10 9 1 128 0 5 2 6 2 5 6 128 0 3 0 7 10 3 7 105 0 10 0 1 0 10 1 105 12 1 0 8 2 0 89 0 8 11 1 2 5 8 2 106 0 6 4 4 6 89 0 6 6 4 97 0 4 6 4 81 
EIF[ ]	/* EndIf */
EIF[ ]	/* EndIf */
EIF[ ]	/* EndIf */
NPUSHB[ ]	/* 31 values pushed */
1 0 83 81 75 73 71 68 61 59 53 51 45 43 39 38 34 32 26 24 18 16 8 6 0 13 1 13 13 9 22 
CALL[ ]	/* CallFunction */";
};
width = 766;
}
);
note = at;
unicode = 64;
},
{
glyphname = A;
kernLeft = A;
kernRight = A;
layers = (
{
layerId = m01;
shapes = (
{
closed = 1;
nodes = (
(255,463,l),
(167,221,l),
(344,221,l)
);
},
{
closed = 1;
nodes = (
(89,0,o),
(78,0,qs),
(19,0,ls),
(9,0,o),
(13,9,qs),
(215,547,ls),
(218,556,o),
(226,556,qs),
(245,556,ls),
(275,556,o),
(306,532,o),
(318,500,qs),
(503,9,ls),
(506,0,o),
(496,0,qs),
(437,0,ls),
(424,0,o),
(419,12,qs),
(368,153,l),
(143,153,l),
(93,12,ls)
);
}
);
userData = {
assembly = "NPUSHB[ ]	/* 44 values pushed */
1 1 0 3 1 76 5 1 0 0 1 2 0 1 104 0 3 3 39 77 4 1 2 2 40 2 78 0 0 22 19 16 13 9 6 4 3 0 2 0 2 6 9 22 
CALL[ ]	/* CallFunction */";
};
width = 510;
}
);
note = A;
unicode = 65;
},
{
glyphname = B;
layers = (
{
layerId = m01;
shapes = (
{
closed = 1;
nodes = (
(324,68,o),
(376,114,o),
(376,164,qs),
(376,209,o),
(319,258,o),
(268,258,qs),
(140,258,l),
(140,68,l),
(267,68,ls)
);
},
{
closed = 1;
nodes = (
(311,325,o),
(356,369,o),
(356,409,qs),
(356,488,o),
(264,488,qs),
(140,488,l),
(140,325,l),
(271,325,ls)
);
},
{
closed = 1;
nodes = (
(455,207,o),
(455,157,qs),
(455,88,o),
(414,47,qs),
(368,0,o),
(277,0,qs),
(72,0,ls),
(64,0,o),
(64,9,qs),
(64,547,ls),
(64,556,o),
(72,556,qs),
(260,556,ls),
(336,556,o),
(380,524,qs),
(431,487,o),
(431,414,qs),
(431,326,o),
(346,292,q),
(394,281,o)
);
}
);
userData = {
assembly = "NPUSHB[ ]	/* 53 values pushed */
7 1 3 0 0 1 3 0 103 0 2 2 4 95 0 4 4 39 77 6 1 1 1 5 95 0 5 5 40 5 78 9 9 0 0 31 28 25 22 9 16 9 15 12 10 0 8 0 7 33 8 9 23 
CALL[ ]	/* CallFunction */";
};
width = 486;
}
);
note = B;
unicode = 66;
},
{
glyphname = C;
kernLeft = C;
kernRight = C;
layers = (
{
layerId = m01;
shapes = (
{
closed = 1;
nodes = (
(128,56,qs),
(50,134,o),
(50,277,qs),
(50,401,o),
(114,479,qs),
(186,567,o),
(309,567,qs),
(371,567,o),
(439,538,qs),
(487,516,o),
(477,477,qs),
(472,456,ls),
(470,446,o),
(462,446,qs),
(458,446,o),
(448,452,qs),
(382,495,o),
(309,495,qs),
(231,495,o),
(183,445,qs),
(128,388,o),
(128,276,qs),
(128,180,o),
(171,124,qs),
(219,61,o),
(311,61,qs),
(405,61,o),
(462,132,qs),
(470,142,o),
(477,142,qs),
(491,142,o),
(491,122,qs),
(491,84,o),
(454,46,qs),
(399,-11,o),
(301,-11,qs),
(195,-11,o)
);
}
);
userData = {
assembly = "MPPEM[ ]	/* MeasurePixelPerEm */
PUSHB[ ]	/* 1 value pushed */
35 
LT[ ]	/* LessThan */
IF[ ]	/* If */
NPUSHB[ ]	/* 37 values pushed */
0 4 3 1 3 4 1 128 0 1 2 3 1 2 126 0 3 3 5 97 0 5 5 39 77 0 2 2 0 97 6 1 0 0 46 0 78 
ELSE[ ]	/* Else */
NPUSHB[ ]	/* 35 values pushed */
0 4 3 1 3 4 1 128 0 1 2 3 1 2 126 0 5 0 3 4 5 3 105 0 2 2 0 97 6 1 0 0 46 0 78 
EIF[ ]	/* EndIf */
NPUSHB[ ]	/* 19 values pushed */
1 0 30 28 23 21 19 17 11 9 7 5 0 36 1 36 7 9 22 
CALL[ ]	/* CallFunction */";
};
width = 512;
}
);
note = C;
unicode = 67;
},
{
glyphname = D;
layers = (
{
layerId = m01;
shapes = (
{
closed = 1;
nodes = (
(427,71,o),
(427,283,qs),
(427,384,o),
(382,433,qs),
(333,485,o),
(224,485,qs),
(140,485,l),
(140,71,l),
(228,71,ls)
);
},
{
closed = 1;
nodes = (
(64,9,qs),
(64,547,ls),
(64,556,o),
(72,556,qs),
(228,556,ls),
(347,556,o),
(418,500,qs),
(506,431,o),
(506,286,qs),
(506,151,o),
(437,78,qs),
(364,0,o),
(220,0,qs),
(72,0,ls),
(64,0,o)
);
}
);
userData = {
assembly = "NPUSHB[ ]	/* 41 values pushed */
0 0 0 3 95 0 3 3 39 77 4 1 1 1 2 95 5 1 2 2 40 2 78 11 9 0 0 20 17 9 23 11 23 0 8 0 7 33 6 9 23 
CALL[ ]	/* CallFunction */";
};
width = 556;
}
);
note = D;
unicode = 68;
},
{
glyphname = E;
kernRight = E;
layers = (
{
layerId = m01;
shapes = (
{
closed = 1;
nodes = (
(382,71,o),
(382,27,qs),
(382,11,ls),
(382,0,o),
(371,0,qs),
(72,0,ls),
(64,0,o),
(64,9,qs),
(64,547,ls),
(64,556,o),
(72,556,qs),
(328,556,ls),
(373,556,o),
(373,513,qs),
(373,496,ls),
(373,485,o),
(362,485,qs),
(140,485,l),
(140,312,l),
(310,312,ls),
(354,312,o),
(354,268,qs),
(354,252,ls),
(354,242,o),
(343,242,qs),
(140,242,l),
(140,71,l),
(337,71,ls)
);
}
);
userData = {
assembly = "NPUSHB[ ]	/* 44 values pushed */
0 1 0 0 5 1 0 103 0 2 2 3 95 0 3 3 39 77 6 1 5 5 4 95 0 4 4 40 4 78 0 0 0 27 0 26 51 51 33 35 33 7 9 27 
CALL[ ]	/* CallFunction */";
};
width = 412;
}
);
note = E;
unicode = 69;
},
{
glyphname = F;
layers = (
{
layerId = m01;
shapes = (
{
closed = 1;
nodes = (
(140,0,o),
(132,0,qs),
(72,0,ls),
(64,0,o),
(64,9,qs),
(64,547,ls),
(64,556,o),
(72,556,qs),
(328,556,ls),
(373,556,o),
(373,513,qs),
(373,496,ls),
(373,485,o),
(362,485,qs),
(140,485,l),
(140,310,l),
(308,310,ls),
(353,310,o),
(353,266,qs),
(353,251,ls),
(353,239,o),
(341,239,qs),
(140,239,l),
(140,9,ls)
);
}
);
userData = {
assembly = "NPUSHB[ ]	/* 32 values pushed */
0 1 0 0 4 1 0 103 0 2 2 3 95 0 3 3 39 77 0 4 4 40 4 78 51 51 33 35 32 5 9 27 
CALL[ ]	/* CallFunction */";
};
width = 397;
}
);
note = F;
unicode = 70;
},
{
glyphname = G;
layers = (
{
layerId = m01;
shapes = (
{
closed = 1;
nodes = (
(338,224,ls),
(293,224,o),
(293,268,qs),
(293,284,ls),
(293,295,o),
(303,295,qs),
(505,295,ls),
(515,295,o),
(515,285,qs),
(515,101,ls),
(515,77,o),
(496,59,q),
(412,-11,o),
(308,-11,qs),
(202,-11,o),
(133,53,qs),
(49,132,o),
(49,279,qs),
(49,401,o),
(112,478,qs),
(184,567,o),
(313,567,qs),
(388,567,o),
(452,539,qs),
(500,520,o),
(491,479,qs),
(486,458,ls),
(483,448,o),
(476,448,qs),
(470,448,o),
(462,454,q),
(393,495,o),
(317,495,qs),
(233,495,o),
(184,447,qs),
(127,390,o),
(127,274,qs),
(127,180,o),
(169,124,qs),
(217,61,o),
(308,61,qs),
(387,61,o),
(442,107,q),
(442,224,l)
);
}
);
userData = {
assembly = "PUSHB[ ]	/* 6 values pushed */
0 1 0 6 1 76 
MPPEM[ ]	/* MeasurePixelPerEm */
PUSHB[ ]	/* 1 value pushed */
35 
LT[ ]	/* LessThan */
IF[ ]	/* If */
NPUSHB[ ]	/* 37 values pushed */
0 2 1 5 1 2 5 128 0 5 0 6 0 5 6 103 0 1 1 3 97 0 3 3 39 77 0 0 0 4 97 0 4 4 46 4 78 
ELSE[ ]	/* Else */
NPUSHB[ ]	/* 35 values pushed */
0 2 1 5 1 2 5 128 0 3 0 1 2 3 1 105 0 5 0 6 0 5 6 103 0 0 0 4 97 0 4 4 46 4 78 
EIF[ ]	/* EndIf */
NPUSHB[ ]	/* 10 values pushed */
35 53 38 37 34 38 33 7 9 29 
CALL[ ]	/* CallFunction */";
};
width = 563;
}
);
note = G;
unicode = 71;
},
{
glyphname = H;
layers = (
{
layerId = m01;
shapes = (
{
closed = 1;
nodes = (
(140,0,o),
(132,0,qs),
(72,0,ls),
(64,0,o),
(64,9,qs),
(64,547,ls),
(64,556,o),
(72,556,qs),
(79,556,ls),
(140,556,o),
(140,485,qs),
(140,310,l),
(386,310,l),
(386,547,ls),
(386,556,o),
(394,556,qs),
(401,556,ls),
(462,556,o),
(462,485,qs),
(462,9,ls),
(462,0,o),
(454,0,qs),
(394,0,ls),
(386,0,o),
(386,9,qs),
(386,239,l),
(140,239,l),
(140,9,ls)
);
}
);
userData = {
assembly = "NPUSHB[ ]	/* 30 values pushed */
0 3 0 0 1 3 0 103 4 1 2 2 39 77 5 1 1 1 40 1 78 51 50 18 51 50 16 6 9 28 
CALL[ ]	/* CallFunction */";
};
width = 527;
}
);
note = H;
unicode = 72;
},
{
glyphname = I;
kernRight = I;
layers = (
{
layerId = m01;
shapes = (
{
closed = 1;
nodes = (
(64,9,qs),
(64,547,ls),
(64,556,o),
(72,556,qs),
(79,556,ls),
(140,556,o),
(140,485,qs),
(140,9,ls),
(140,0,o),
(132,0,qs),
(72,0,ls),
(64,0,o)
);
}
);
userData = {
assembly = "NPUSHB[ ]	/* 23 values pushed */
0 1 1 39 77 2 1 0 0 40 0 78 2 0 8 5 0 11 2 11 3 9 22 
CALL[ ]	/* CallFunction */";
};
width = 205;
}
);
note = I;
unicode = 73;
},
{
glyphname = J;
layers = (
{
layerId = m01;
shapes = (
{
closed = 1;
nodes = (
(17,97,qs),
(20,97,o),
(25,92,qs),
(59,54,o),
(94,54,qs),
(123,54,o),
(156,88,o),
(156,117,qs),
(156,547,ls),
(156,556,o),
(164,556,qs),
(171,556,ls),
(232,556,o),
(232,485,qs),
(232,114,ls),
(232,61,o),
(205,29,qs),
(173,-10,o),
(111,-10,qs),
(67,-10,o),
(6,42,o),
(6,81,qs),
(6,97,o)
);
}
);
userData = {
assembly = "NPUSHB[ ]	/* 31 values pushed */
0 3 1 2 1 3 2 128 0 1 1 39 77 0 2 2 0 98 0 0 0 46 0 78 34 36 53 34 4 9 26 
CALL[ ]	/* CallFunction */";
};
width = 294;
}
);
note = J;
unicode = 74;
},
{
glyphname = K;
layers = (
{
layerId = m01;
shapes = (
{
closed = 1;
nodes = (
(140,0,o),
(132,0,qs),
(72,0,ls),
(64,0,o),
(64,9,qs),
(64,547,ls),
(64,556,o),
(72,556,qs),
(79,556,ls),
(140,556,o),
(140,485,qs),
(140,276,l),
(365,544,ls),
(376,556,o),
(385,556,qs),
(447,556,ls),
(451,556,o),
(454,549,o),
(451,547,q),
(274,336,l),
(473,10,ls),
(480,0,o),
(468,0,qs),
(404,0,ls),
(392,0,o),
(385,11,qs),
(222,276,l),
(140,178,l),
(140,9,ls)
);
}
);
userData = {
assembly = "NPUSHB[ ]	/* 30 values pushed */
16 9 8 1 0 5 0 1 1 76 2 1 1 1 39 77 3 1 0 0 40 0 78 51 52 53 51 4 9 26 
CALL[ ]	/* CallFunction */";
};
width = 489;
}
);
note = K;
unicode = 75;
},
{
glyphname = L;
layers = (
{
layerId = m01;
shapes = (
{
closed = 1;
nodes = (
(351,71,o),
(351,27,qs),
(351,11,ls),
(351,0,o),
(341,0,qs),
(72,0,ls),
(64,0,o),
(64,9,qs),
(64,547,ls),
(64,556,o),
(72,556,qs),
(79,556,ls),
(140,556,o),
(140,485,qs),
(140,71,l),
(307,71,ls)
);
}
);
userData = {
assembly = "NPUSHB[ ]	/* 28 values pushed */
0 0 0 39 77 3 1 2 2 1 96 0 1 1 40 1 78 0 0 0 15 0 14 51 50 4 9 24 
CALL[ ]	/* CallFunction */";
};
width = 370;
}
);
note = L;
unicode = 76;
},
{
glyphname = M;
layers = (
{
layerId = m01;
shapes = (
{
closed = 1;
nodes = (
(456,556,o),
(464,556,qs),
(497,556,ls),
(521,556,o),
(552,525,o),
(553,500,qs),
(580,9,ls),
(580,0,o),
(573,0,qs),
(512,0,ls),
(504,0,o),
(504,9,qs),
(483,416,l),
(350,9,ls),
(347,0,o),
(338,0,qs),
(283,0,ls),
(276,0,o),
(272,9,q),
(144,412,l),
(122,9,ls),
(122,0,o),
(115,0,qs),
(53,0,ls),
(46,0,o),
(46,9,qs),
(76,547,ls),
(76,556,o),
(84,556,qs),
(116,556,ls),
(145,556,o),
(174,536,o),
(182,511,qs),
(313,108,l),
(454,547,l)
);
}
);
userData = {
assembly = "NPUSHB[ ]	/* 29 values pushed */
21 14 2 1 0 1 76 4 1 0 0 39 77 3 2 2 1 1 40 1 78 52 52 52 51 51 5 9 27 
CALL[ ]	/* CallFunction */";
};
width = 625;
}
);
note = M;
unicode = 77;
},
{
glyphname = N;
kernRight = N;
layers = (
{
layerId = m01;
shapes = (
{
closed = 1;
nodes = (
(388,556,o),
(396,556,qs),
(403,556,ls),
(463,556,o),
(463,485,qs),
(463,9,ls),
(463,0,o),
(456,0,qs),
(402,0,ls),
(388,0,o),
(380,13,qs),
(140,403,l),
(140,9,ls),
(140,0,o),
(132,0,qs),
(72,0,ls),
(64,0,o),
(64,9,qs),
(64,547,ls),
(64,556,o),
(72,556,qs),
(90,556,ls),
(115,556,o),
(143,538,o),
(160,511,qs),
(388,138,l),
(388,547,ls)
);
}
);
userData = {
assembly = "NPUSHB[ ]	/* 27 values pushed */
14 0 2 1 0 1 76 3 1 0 0 39 77 2 1 1 1 40 1 78 51 52 51 51 4 9 26 
CALL[ ]	/* CallFunction */";
};
width = 529;
}
);
note = N;
unicode = 78;
},
{
glyphname = O;
kernLeft = O;
kernRight = O;
layers = (
{
layerId = m01;
shapes = (
{
closed = 1;
nodes = (
(414,100,qs),
(475,154,o),
(475,277,qs),
(475,386,o),
(427,442,qs),
(382,495,o),
(301,495,qs),
(231,495,o),
(187,455,qs),
(127,400,o),
(127,277,qs),
(127,168,o),
(174,113,qs),
(219,62,o),
(301,62,qs),
(371,62,o)
);
},
{
closed = 1;
nodes = (
(124,58,qs),
(49,135,o),
(49,277,qs),
(49,401,o),
(107,477,qs),
(175,566,o),
(301,566,qs),
(410,566,o),
(477,497,qs),
(552,420,o),
(552,277,qs),
(552,153,o),
(495,78,qs),
(428,-10,o),
(301,-10,qs),
(190,-10,o)
);
}
);
userData = {
assembly = "MPPEM[ ]	/* MeasurePixelPerEm */
PUSHB[ ]	/* 1 value pushed */
39 
LT[ ]	/* LessThan */
IF[ ]	/* If */
NPUSHB[ ]	/* 23 values pushed */
0 1 1 3 97 0 3 3 39 77 4 1 0 0 2 97 5 1 2 2 46 2 78 
ELSE[ ]	/* Else */
NPUSHB[ ]	/* 21 values pushed */
0 3 0 1 0 3 1 105 4 1 0 0 2 97 5 1 2 2 46 2 78 
EIF[ ]	/* EndIf */
NPUSHB[ ]	/* 19 values pushed */
17 16 1 0 25 23 16 31 17 31 9 7 0 15 1 15 6 9 22 
CALL[ ]	/* CallFunction */";
};
width = 602;
}
);
note = O;
unicode = 79;
},
{
glyphname = P;
layers = (
{
layerId = m01;
shapes = (
{
closed = 1;
nodes = (
(379,273,o),
(379,382,qs),
(379,427,o),
(352,454,qs),
(322,485,o),
(269,485,qs),
(140,485,l),
(140,273,l),
(266,273,ls)
);
},
{
closed = 1;
nodes = (
(140,0,o),
(132,0,qs),
(72,0,ls),
(64,0,o),
(64,9,qs),
(64,547,ls),
(64,556,o),
(72,556,qs),
(263,556,ls),
(349,556,o),
(399,514,qs),
(456,468,o),
(456,382,qs),
(456,306,o),
(412,258,qs),
(362,203,o),
(270,203,qs),
(140,203,l),
(140,9,ls)
);
}
);
userData = {
assembly = "NPUSHB[ ]	/* 41 values pushed */
5 1 1 0 2 4 1 2 103 0 0 0 3 95 0 3 3 39 77 0 4 4 40 4 78 0 0 26 23 20 17 11 9 0 8 0 7 33 6 9 23 
CALL[ ]	/* CallFunction */";
};
width = 489;
}
);
note = P;
unicode = 80;
},
{
glyphname = Q;
layers = (
{
layerId = m01;
shapes = (
{
closed = 1;
nodes = (
(113,70,qs),
(49,146,o),
(49,277,qs),
(49,401,o),
(107,478,qs),
(175,567,o),
(301,567,qs),
(410,567,o),
(477,498,qs),
(552,420,o),
(552,277,qs),
(552,167,o),
(508,96,qs),
(455,13,o),
(353,-3,q),
(378,-45,o),
(430,-45,qs),
(477,-45,o),
(515,-7,qs),
(520,-2,o),
(525,-2,qs),
(536,-2,o),
(536,-17,qs),
(536,-47,o),
(507,-75,qs),
(469,-111,o),
(410,-111,qs),
(305,-111,o),
(264,-8,q),
(169,3,o)
);
},
{
closed = 1;
nodes = (
(414,100,qs),
(475,154,o),
(475,277,qs),
(475,386,o),
(427,442,qs),
(382,495,o),
(301,495,qs),
(231,495,o),
(187,455,qs),
(127,400,o),
(127,277,qs),
(127,168,o),
(174,113,qs),
(219,62,o),
(301,62,qs),
(371,62,o)
);
}
);
userData = {
assembly = "PUSHB[ ]	/* 6 values pushed */
14 1 2 1 1 76 
MPPEM[ ]	/* MeasurePixelPerEm */
PUSHB[ ]	/* 1 value pushed */
9 
LT[ ]	/* LessThan */
IF[ ]	/* If */
NPUSHB[ ]	/* 33 values pushed */
6 1 4 5 1 2 4 114 0 1 2 5 1 2 126 0 2 0 0 2 0 102 0 5 5 3 97 0 3 3 39 5 78 
ELSE[ ]	/* Else */
MPPEM[ ]	/* MeasurePixelPerEm */
PUSHB[ ]	/* 1 value pushed */
35 
LT[ ]	/* LessThan */
IF[ ]	/* If */
NPUSHB[ ]	/* 34 values pushed */
6 1 4 5 1 5 4 1 128 0 1 2 5 1 2 126 0 2 0 0 2 0 102 0 5 5 3 97 0 3 3 39 5 78 
ELSE[ ]	/* Else */
NPUSHB[ ]	/* 40 values pushed */
6 1 4 5 1 5 4 1 128 0 1 2 5 1 2 126 0 3 0 5 4 3 5 105 0 2 0 0 2 89 0 2 2 0 98 0 0 2 0 82 
EIF[ ]	/* EndIf */
EIF[ ]	/* EndIf */
NPUSHB[ ]	/* 15 values pushed */
31 30 39 37 30 45 31 45 40 35 20 33 7 9 26 
CALL[ ]	/* CallFunction */";
};
width = 602;
}
);
note = Q;
unicode = 81;
},
{
glyphname = R;
layers = (
{
layerId = m01;
shapes = (
{
closed = 1;
nodes = (
(380,273,o),
(380,382,qs),
(380,430,o),
(322,485,o),
(270,485,qs),
(140,485,l),
(140,273,l),
(266,273,ls)
);
},
{
closed = 1;
nodes = (
(140,0,o),
(132,0,qs),
(72,0,ls),
(64,0,o),
(64,9,qs),
(64,547,ls),
(64,556,o),
(72,556,qs),
(262,556,ls),
(351,556,o),
(401,514,qs),
(457,468,o),
(457,379,qs),
(457,320,o),
(396,234,o),
(341,214,q),
(461,9,ls),
(467,0,o),
(456,0,qs),
(393,0,ls),
(380,0,o),
(373,11,qs),
(264,203,l),
(140,203,l),
(140,9,ls)
);
}
);
userData = {
assembly = "NPUSHB[ ]	/* 50 values pushed */
16 1 2 1 1 76 6 1 1 0 2 3 1 2 103 0 0 0 4 95 0 4 4 39 77 5 1 3 3 40 3 78 0 0 31 28 25 22 14 11 9 8 0 7 0 6 33 7 9 23 
CALL[ ]	/* CallFunction */";
};
width = 498;
}
);
note = R;
unicode = 82;
},
{
glyphname = S;
kernLeft = S;
kernRight = S;
layers = (
{
layerId = m01;
shapes = (
{
closed = 1;
nodes = (
(34,143,qs),
(41,143,o),
(47,136,qs),
(112,59,o),
(209,59,qs),
(270,59,o),
(339,108,o),
(339,150,qs),
(339,183,o),
(307,206,qs),
(285,222,o),
(232,240,qs),
(142,272,o),
(115,288,qs),
(37,333,o),
(37,414,qs),
(37,478,o),
(83,519,qs),
(136,566,o),
(224,566,qs),
(298,566,o),
(360,539,qs),
(409,520,o),
(398,479,qs),
(393,459,ls),
(391,449,o),
(385,449,qs),
(380,449,o),
(370,455,qs),
(302,498,o),
(223,498,qs),
(174,498,o),
(114,454,o),
(114,418,qs),
(114,384,o),
(146,361,qs),
(168,344,o),
(221,326,qs),
(313,294,o),
(338,280,qs),
(416,237,o),
(416,159,qs),
(416,87,o),
(370,42,qs),
(316,-11,o),
(217,-11,qs),
(129,-11,o),
(74,30,qs),
(21,70,o),
(21,123,qs),
(21,143,o)
);
}
);
userData = {
assembly = "MPPEM[ ]	/* MeasurePixelPerEm */
PUSHB[ ]	/* 1 value pushed */
39 
LT[ ]	/* LessThan */
IF[ ]	/* If */
NPUSHB[ ]	/* 36 values pushed */
0 2 1 5 1 2 5 128 0 5 4 1 5 4 126 0 1 1 3 97 0 3 3 39 77 0 4 4 0 97 0 0 0 46 0 78 
ELSE[ ]	/* Else */
NPUSHB[ ]	/* 34 values pushed */
0 2 1 5 1 2 5 128 0 5 4 1 5 4 126 0 3 0 1 2 3 1 105 0 4 4 0 97 0 0 0 46 0 78 
EIF[ ]	/* EndIf */
NPUSHB[ ]	/* 9 values pushed */
34 45 37 34 45 35 6 9 28 
CALL[ ]	/* CallFunction */";
};
width = 444;
}
);
note = S;
unicode = 83;
},
{
glyphname = T;
layers = (
{
layerId = m01;
shapes = (
{
closed = 1;
nodes = (
(14,485,o),
(14,494,qs),
(14,547,ls),
(14,556,o),
(22,556,qs),
(365,556,ls),
(411,556,o),
(411,513,qs),
(411,496,ls),
(411,485,o),
(400,485,qs),
(248,485,l),
(248,9,ls),
(248,0,o),
(241,0,qs),
(182,0,ls),
(173,0,o),
(173,9,qs),
(173,485,l),
(22,485,ls)
);
}
);
userData = {
assembly = "NPUSHB[ ]	/* 30 values pushed */
4 3 2 1 1 2 95 0 2 2 39 77 0 0 0 40 0 78 0 0 0 19 0 18 51 34 50 5 9 25 
CALL[ ]	/* CallFunction */";
};
width = 424;
}
);
note = T;
unicode = 84;
},
{
glyphname = U;
kernLeft = U;
kernRight = U;
layers = (
{
layerId = m01;
shapes = (
{
closed = 1;
nodes = (
(109,50,qs),
(63,104,o),
(63,199,qs),
(63,547,ls),
(63,556,o),
(71,556,qs),
(78,556,ls),
(139,556,o),
(139,485,qs),
(139,212,ls),
(139,61,o),
(261,61,qs),
(387,61,o),
(387,213,qs),
(387,547,ls),
(387,556,o),
(395,556,qs),
(402,556,ls),
(462,556,o),
(462,485,qs),
(462,201,ls),
(462,126,o),
(430,73,qs),
(379,-10,o),
(262,-10,qs),
(160,-10,o)
);
}
);
userData = {
assembly = "NPUSHB[ ]	/* 33 values pushed */
3 1 1 1 39 77 0 2 2 0 97 4 1 0 0 46 0 78 1 0 20 17 14 12 9 6 0 25 1 25 5 9 22 
CALL[ ]	/* CallFunction */";
};
width = 525;
}
);
note = U;
unicode = 85;
},
{
glyphname = V;
layers = (
{
layerId = m01;
shapes = (
{
closed = 1;
nodes = (
(396,556,o),
(408,556,qs),
(465,556,ls),
(474,556,o),
(471,547,qs),
(289,9,l),
(287,0,o),
(278,0,qs),
(211,0,ls),
(202,0,o),
(198,9,q),
(16,546,ls),
(12,556,o),
(22,556,qs),
(48,556,ls),
(75,556,o),
(103,533,o),
(113,503,qs),
(246,89,l),
(391,544,l)
);
}
);
userData = {
assembly = "NPUSHB[ ]	/* 18 values pushed */
2 1 0 0 39 77 0 1 1 40 1 78 51 51 51 3 9 25 
CALL[ ]	/* CallFunction */";
};
width = 481;
}
);
note = V;
unicode = 86;
},
{
glyphname = W;
layers = (
{
layerId = m01;
shapes = (
{
closed = 1;
nodes = (
(334,556,o),
(346,556,qs),
(366,556,ls),
(393,556,o),
(419,533,o),
(427,503,qs),
(540,99,l),
(648,544,ls),
(651,556,o),
(664,556,qs),
(721,556,ls),
(730,556,o),
(727,547,qs),
(586,9,l),
(582,0,o),
(574,0,qs),
(510,0,ls),
(501,0,o),
(499,9,qs),
(373,454,l),
(252,9,l),
(248,0,o),
(241,0,qs),
(176,0,ls),
(166,0,o),
(164,9,qs),
(26,546,ls),
(24,556,o),
(33,556,qs),
(50,556,ls),
(79,556,o),
(108,532,o),
(116,503,qs),
(214,99,l),
(331,544,ls)
);
}
);
userData = {
assembly = "NPUSHB[ ]	/* 29 values pushed */
27 14 2 1 0 1 76 4 3 2 0 0 39 77 2 1 1 1 40 1 78 53 51 52 51 51 5 9 27 
CALL[ ]	/* CallFunction */";
};
width = 749;
}
);
note = W;
unicode = 87;
},
{
glyphname = X;
layers = (
{
layerId = m01;
shapes = (
{
closed = 1;
nodes = (
(92,0,o),
(81,0,qs),
(21,0,ls),
(11,0,o),
(16,9,qs),
(191,289,l),
(34,546,l),
(31,549,o),
(35,556,o),
(39,556,qs),
(67,556,ls),
(95,556,o),
(122,538,o),
(139,510,qs),
(244,341,l),
(369,544,ls),
(376,556,o),
(387,556,qs),
(446,556,ls),
(456,556,o),
(451,547,qs),
(295,292,l),
(472,9,l),
(480,0,o),
(467,0,qs),
(406,0,ls),
(394,0,o),
(387,12,qs),
(244,241,l),
(100,12,ls)
);
}
);
userData = {
assembly = "NPUSHB[ ]	/* 28 values pushed */
23 14 7 3 0 1 1 76 2 1 1 1 39 77 3 1 0 0 40 0 78 54 37 52 50 4 9 26 
CALL[ ]	/* CallFunction */";
};
width = 480;
}
);
note = X;
unicode = 88;
},
{
glyphname = Y;
kernLeft = Y;
kernRight = Y;
layers = (
{
layerId = m01;
shapes = (
{
closed = 1;
nodes = (
(3,556,o),
(13,556,qs),
(41,556,ls),
(66,556,o),
(99,533,o),
(114,506,qs),
(228,292,l),
(362,543,l),
(367,556,o),
(379,556,qs),
(437,556,ls),
(449,556,o),
(443,544,qs),
(263,212,l),
(263,9,ls),
(263,0,o),
(255,0,qs),
(196,0,ls),
(188,0,o),
(188,9,qs),
(188,213,l),
(7,547,ls)
);
}
);
userData = {
assembly = "NPUSHB[ ]	/* 26 values pushed */
14 7 0 3 0 1 1 76 2 1 1 1 39 77 0 0 0 40 0 78 53 52 50 3 9 25 
CALL[ ]	/* CallFunction */";
};
width = 445;
}
);
note = Y;
unicode = 89;
},
{
glyphname = Z;
kernLeft = Z;
kernRight = Z;
layers = (
{
layerId = m01;
shapes = (
{
closed = 1;
nodes = (
(414,71,o),
(414,27,qs),
(414,11,ls),
(414,0,o),
(402,0,qs),
(41,0,ls),
(33,0,o),
(33,9,qs),
(33,51,ls),
(33,69,o),
(46,88,qs),
(328,485,l),
(48,485,ls),
(40,485,o),
(40,494,qs),
(40,547,ls),
(40,556,o),
(48,556,qs),
(356,556,ls),
(412,556,o),
(412,505,qs),
(412,492,ls),
(412,476,o),
(399,455,q),
(124,71,l),
(369,71,ls)
);
}
);
userData = {
assembly = "NPUSHB[ ]	/* 34 values pushed */
0 1 1 0 95 0 0 0 39 77 4 1 3 3 2 95 0 2 2 40 2 78 0 0 0 25 0 24 53 35 53 5 9 25 
CALL[ ]	/* CallFunction */";
};
width = 449;
}
);
note = Z;
unicode = 90;
},
{
glyphname = bracketleft;
layers = (
{
layerId = m01;
shapes = (
{
closed = 1;
nodes = (
(102,-144,o),
(67,-110,o),
(67,-82,qs),
(67,633,ls),
(67,662,o),
(102,696,o),
(131,696,qs),
(238,696,ls),
(250,696,o),
(250,683,qs),
(250,678,ls),
(250,632,o),
(199,632,qs),
(153,632,ls),
(136,632,o),
(136,614,qs),
(136,-62,ls),
(136,-80,o),
(153,-80,qs),
(199,-80,ls),
(250,-80,o),
(250,-126,qs),
(250,-131,ls),
(250,-144,o),
(238,-144,qs),
(131,-144,ls)
);
}
);
userData = {
assembly = "MPPEM[ ]	/* MeasurePixelPerEm */
PUSHB[ ]	/* 1 value pushed */
25 
LT[ ]	/* LessThan */
IF[ ]	/* If */
NPUSHB[ ]	/* 20 values pushed */
0 3 0 2 1 3 2 105 0 1 1 0 95 4 1 0 0 44 0 78 
ELSE[ ]	/* Else */
NPUSHB[ ]	/* 25 values pushed */
0 3 0 2 1 3 2 105 0 1 0 0 1 89 0 1 1 0 95 4 1 0 1 0 79 
EIF[ ]	/* EndIf */
NPUSHB[ ]	/* 15 values pushed */
1 0 19 16 13 10 7 4 0 25 1 24 5 9 22 
CALL[ ]	/* CallFunction */";
};
width = 306;
}
);
note = bracketleft;
unicode = 91;
},
{
glyphname = backslash;
layers = (
{
layerId = m01;
shapes = (
{
closed = 1;
nodes = (
(0,556,o),
(11,556,qs),
(22,556,ls),
(51,556,o),
(83,532,o),
(96,502,qs),
(305,9,ls),
(309,0,o),
(300,0,qs),
(245,0,ls),
(236,0,o),
(232,9,qs),
(5,547,l)
);
}
);
userData = {
assembly = "NPUSHB[ ]	/* 16 values pushed */
0 1 1 39 77 0 0 0 40 0 78 52 49 2 9 24 
CALL[ ]	/* CallFunction */";
};
width = 302;
}
);
note = backslash;
unicode = 92;
},
{
glyphname = bracketright;
layers = (
{
layerId = m01;
shapes = (
{
closed = 1;
nodes = (
(56,-144,o),
(56,-131,qs),
(56,-126,ls),
(56,-80,o),
(107,-80,qs),
(153,-80,ls),
(170,-80,o),
(170,-62,qs),
(170,614,ls),
(170,632,o),
(153,632,qs),
(107,632,ls),
(56,632,o),
(56,678,qs),
(56,683,ls),
(56,696,o),
(69,696,qs),
(175,696,ls),
(205,696,o),
(239,662,o),
(239,633,qs),
(239,-82,ls),
(239,-110,o),
(205,-144,o),
(175,-144,qs),
(69,-144,ls)
);
}
);
userData = {
assembly = "MPPEM[ ]	/* MeasurePixelPerEm */
PUSHB[ ]	/* 1 value pushed */
25 
LT[ ]	/* LessThan */
IF[ ]	/* If */
NPUSHB[ ]	/* 20 values pushed */
0 1 0 2 3 1 2 105 0 3 3 0 95 4 1 0 0 44 0 78 
ELSE[ ]	/* Else */
NPUSHB[ ]	/* 25 values pushed */
0 1 0 2 3 1 2 105 0 3 0 0 3 89 0 3 3 0 95 4 1 0 3 0 79 
EIF[ ]	/* EndIf */
NPUSHB[ ]	/* 15 values pushed */
1 0 21 18 15 12 9 6 0 25 1 24 5 9 22 
CALL[ ]	/* CallFunction */";
};
width = 306;
}
);
note = bracketright;
unicode = 93;
},
{
glyphname = asciicircum;
layers = (
{
layerId = m01;
shapes = (
{
closed = 1;
nodes = (
(98,271,o),
(86,271,qs),
(36,271,ls),
(26,271,o),
(30,279,qs),
(171,544,l),
(176,556,o),
(190,556,qs),
(235,556,o),
(259,512,qs),
(384,279,l),
(385,276,o),
(381,271,o),
(377,271,qs),
(327,271,ls),
(316,271,o),
(309,282,q),
(207,477,l),
(104,282,ls)
);
}
);
userData = {
assembly = "PUSHB[ ]	/* 2 values pushed */
6 100 
WCVTP[ ]	/* WriteCVTInPixels */
NPUSHB[ ]	/* 16 values pushed */
0 1 0 1 133 2 1 0 0 118 51 37 34 3 9 25 
CALL[ ]	/* CallFunction */
PUSHB[ ]	/* 2 values pushed */
6 0 
WCVTP[ ]	/* WriteCVTInPixels */";
};
width = 407;
}
);
note = asciicircum;
unicode = 94;
},
{
glyphname = underscore;
layers = (
{
layerId = m01;
shapes = (
{
closed = 1;
nodes = (
(-6,-180,qs),
(-6,-131,ls),
(-6,-122,o),
(2,-122,qs),
(432,-122,ls),
(441,-122,o),
(441,-131,qs),
(441,-180,ls),
(441,-188,o),
(432,-188,qs),
(2,-188,ls),
(-6,-188,o)
);
}
);
userData = {
assembly = "PUSHB[ ]	/* 2 values pushed */
6 100 
WCVTP[ ]	/* WriteCVTInPixels */
NPUSHB[ ]	/* 28 values pushed */
0 1 0 0 1 87 0 1 1 0 95 2 1 0 1 0 79 2 0 8 5 0 11 2 11 3 9 22 
CALL[ ]	/* CallFunction */
PUSHB[ ]	/* 2 values pushed */
6 0 
WCVTP[ ]	/* WriteCVTInPixels */";
};
width = 434;
}
);
note = underscore;
unicode = 95;
},
{
glyphname = grave;
layers = (
{
layerId = m01;
shapes = (
{
closed = 1;
nodes = (
(171,430,o),
(167,430,qs),
(114,430,ls),
(98,430,o),
(86,441,qs),
(4,507,ls),
(1,509,o),
(3,516,o),
(8,516,qs),
(72,516,ls),
(87,516,o),
(97,506,qs),
(171,439,l),
(174,437,o)
);
}
);
userData = {
assembly = "PUSHB[ ]	/* 2 values pushed */
6 100 
WCVTP[ ]	/* WriteCVTInPixels */
NPUSHB[ ]	/* 14 values pushed */
0 0 1 0 133 0 1 1 118 37 34 2 9 24 
CALL[ ]	/* CallFunction */
PUSHB[ ]	/* 2 values pushed */
6 0 
WCVTP[ ]	/* WriteCVTInPixels */";
};
width = 173;
}
);
note = grave;
unicode = 96;
},
{
glyphname = a;
kernLeft = a;
kernRight = a;
layers = (
{
layerId = m01;
shapes = (
{
closed = 1;
nodes = (
(209,-9,qs),
(134,-9,o),
(88,41,qs),
(37,95,o),
(37,184,qs),
(37,262,o),
(79,315,qs),
(129,377,o),
(212,377,qs),
(294,377,o),
(335,319,q),
(343,368,o),
(393,368,qs),
(398,368,ls),
(405,368,o),
(405,359,qs),
(405,9,ls),
(405,0,o),
(398,0,qs),
(339,0,ls),
(331,0,o),
(331,9,qs),
(331,52,l),
(289,-9,o)
);
},
{
closed = 1;
nodes = (
(331,126,o),
(331,184,qs),
(331,246,o),
(298,278,qs),
(269,306,o),
(223,306,qs),
(180,306,o),
(151,280,qs),
(114,246,o),
(114,184,qs),
(114,129,o),
(172,61,o),
(220,61,qs),
(272,61,o)
);
}
);
userData = {
assembly = "NPUSHB[ ]	/* 10 values pushed */
12 1 5 1 0 1 0 4 2 76 
MPPEM[ ]	/* MeasurePixelPerEm */
PUSHB[ ]	/* 1 value pushed */
20 
LT[ ]	/* LessThan */
IF[ ]	/* If */
NPUSHB[ ]	/* 24 values pushed */
0 5 5 1 97 2 1 1 1 42 77 6 1 4 4 0 97 3 1 0 0 40 0 78 
ELSE[ ]	/* Else */
NPUSHB[ ]	/* 32 values pushed */
0 1 1 42 77 0 5 5 2 97 0 2 2 48 77 0 0 0 40 77 6 1 4 4 3 97 0 3 3 49 3 78 
EIF[ ]	/* EndIf */
NPUSHB[ ]	/* 15 values pushed */
25 24 32 30 24 37 25 37 38 34 51 50 7 9 26 
CALL[ ]	/* CallFunction */";
};
width = 459;
}
);
note = a;
unicode = 97;
},
{
glyphname = b;
layers = (
{
layerId = m01;
shapes = (
{
closed = 1;
nodes = (
(127,0,o),
(120,0,qs),
(61,0,ls),
(53,0,o),
(53,9,qs),
(53,547,ls),
(53,556,o),
(61,556,qs),
(66,556,ls),
(127,556,o),
(127,487,qs),
(127,316,l),
(168,377,o),
(251,377,qs),
(323,377,o),
(369,330,qs),
(422,277,o),
(422,184,qs),
(422,107,o),
(383,54,qs),
(336,-9,o),
(252,-9,qs),
(167,-9,o),
(127,49,q),
(127,9,ls)
);
},
{
closed = 1;
nodes = (
(306,85,qs),
(345,118,o),
(345,184,qs),
(345,239,o),
(316,272,qs),
(286,306,o),
(236,306,qs),
(185,306,o),
(127,241,o),
(127,184,qs),
(127,127,o),
(187,61,o),
(237,61,qs),
(277,61,o)
);
}
);
userData = {
assembly = "MPPEM[ ]	/* MeasurePixelPerEm */
PUSHB[ ]	/* 1 value pushed */
20 
LT[ ]	/* LessThan */
IF[ ]	/* If */
NPUSHB[ ]	/* 10 values pushed */
12 1 5 1 0 1 0 4 2 76 
ELSE[ ]	/* Else */
NPUSHB[ ]	/* 10 values pushed */
12 1 5 1 0 1 3 4 2 76 
EIF[ ]	/* EndIf */
MPPEM[ ]	/* MeasurePixelPerEm */
PUSHB[ ]	/* 1 value pushed */
20 
LT[ ]	/* LessThan */
IF[ ]	/* If */
NPUSHB[ ]	/* 28 values pushed */
0 2 2 39 77 0 5 5 1 97 0 1 1 48 77 6 1 4 4 0 97 3 1 0 0 49 0 78 
ELSE[ ]	/* Else */
NPUSHB[ ]	/* 32 values pushed */
0 2 2 39 77 0 5 5 1 97 0 1 1 48 77 0 3 3 40 77 6 1 4 4 0 97 0 0 0 49 0 78 
EIF[ ]	/* EndIf */
NPUSHB[ ]	/* 15 values pushed */
26 25 32 30 25 38 26 38 51 51 38 33 7 9 26 
CALL[ ]	/* CallFunction */";
};
width = 459;
}
);
note = b;
unicode = 98;
},
{
glyphname = c;
kernLeft = c;
kernRight = c;
layers = (
{
layerId = m01;
shapes = (
{
closed = 1;
nodes = (
(223,306,qs),
(178,306,o),
(149,278,qs),
(115,245,o),
(115,182,qs),
(115,127,o),
(141,95,qs),
(172,57,o),
(231,57,qs),
(286,57,o),
(322,94,qs),
(329,101,o),
(334,101,qs),
(344,101,o),
(344,86,qs),
(344,54,o),
(316,26,qs),
(278,-10,o),
(215,-10,qs),
(140,-10,o),
(93,35,qs),
(38,87,o),
(38,183,qs),
(38,264,o),
(82,317,qs),
(133,377,o),
(220,377,qs),
(266,377,o),
(304,362,qs),
(343,347,o),
(332,307,qs),
(327,287,ls),
(326,279,o),
(320,279,qs),
(316,279,o),
(312,282,q),
(268,306,o)
);
}
);
userData = {
assembly = "NPUSHB[ ]	/* 45 values pushed */
0 0 5 3 5 0 3 128 0 3 4 5 3 4 126 0 5 5 1 97 0 1 1 48 77 0 4 4 2 97 0 2 2 46 2 78 38 35 20 38 37 33 6 9 28 
CALL[ ]	/* CallFunction */";
};
width = 363;
}
);
note = c;
unicode = 99;
},
{
glyphname = d;
layers = (
{
layerId = m01;
shapes = (
{
closed = 1;
nodes = (
(332,556,o),
(340,556,qs),
(345,556,ls),
(407,556,o),
(407,487,qs),
(407,9,ls),
(407,0,o),
(399,0,qs),
(340,0,ls),
(332,0,o),
(332,9,qs),
(332,52,l),
(291,-9,o),
(210,-9,qs),
(136,-9,o),
(89,41,qs),
(38,96,o),
(38,184,qs),
(38,262,o),
(80,315,qs),
(130,377,o),
(215,377,qs),
(294,377,o),
(332,320,q),
(332,547,ls)
);
},
{
closed = 1;
nodes = (
(332,126,o),
(332,184,qs),
(332,246,o),
(300,278,qs),
(271,306,o),
(224,306,qs),
(181,306,o),
(152,280,qs),
(115,246,o),
(115,184,qs),
(115,129,o),
(173,61,o),
(221,61,qs),
(274,61,o)
);
}
);
userData = {
assembly = "MPPEM[ ]	/* MeasurePixelPerEm */
PUSHB[ ]	/* 1 value pushed */
20 
LT[ ]	/* LessThan */
IF[ ]	/* If */
NPUSHB[ ]	/* 10 values pushed */
0 1 5 0 12 1 1 4 2 76 
ELSE[ ]	/* Else */
NPUSHB[ ]	/* 10 values pushed */
0 1 5 0 12 1 2 4 2 76 
EIF[ ]	/* EndIf */
MPPEM[ ]	/* MeasurePixelPerEm */
PUSHB[ ]	/* 1 value pushed */
20 
LT[ ]	/* LessThan */
IF[ ]	/* If */
NPUSHB[ ]	/* 28 values pushed */
0 3 3 39 77 0 5 5 0 97 0 0 0 48 77 6 1 4 4 1 97 2 1 1 1 49 1 78 
ELSE[ ]	/* Else */
NPUSHB[ ]	/* 32 values pushed */
0 3 3 39 77 0 5 5 0 97 0 0 0 48 77 0 2 2 40 77 6 1 4 4 1 97 0 1 1 49 1 78 
EIF[ ]	/* EndIf */
NPUSHB[ ]	/* 15 values pushed */
26 25 33 31 25 38 26 38 51 51 38 33 7 9 26 
CALL[ ]	/* CallFunction */";
};
width = 459;
}
);
note = d;
unicode = 100;
},
{
glyphname = e;
kernLeft = e;
kernRight = e;
layers = (
{
layerId = m01;
shapes = (
{
closed = 1;
nodes = (
(233,56,qs),
(294,56,o),
(346,93,qs),
(348,94,o),
(351,97,q),
(357,101,o),
(360,101,qs),
(370,101,o),
(370,87,qs),
(370,54,o),
(338,27,qs),
(296,-9,o),
(224,-9,qs),
(151,-9,o),
(101,31,qs),
(37,83,o),
(37,184,qs),
(37,263,o),
(79,315,qs),
(129,377,o),
(212,377,qs),
(289,377,o),
(332,331,qs),
(376,285,o),
(376,208,qs),
(376,188,o),
(374,169,qs),
(372,157,o),
(359,157,qs),
(111,157,l),
(122,56,o)
);
},
{
closed = 1;
nodes = (
(304,259,o),
(256,311,o),
(211,311,qs),
(169,311,o),
(117,260,o),
(113,214,q),
(302,214,l)
);
}
);
userData = {
assembly = "NPUSHB[ ]	/* 53 values pushed */
0 3 0 4 0 3 4 128 7 1 6 0 0 3 6 0 103 0 5 5 1 97 0 1 1 48 77 0 4 4 2 97 0 2 2 49 2 78 31 31 31 37 31 37 35 37 20 38 38 32 8 9 28 
CALL[ ]	/* CallFunction */";
};
width = 412;
}
);
note = e;
unicode = 101;
},
{
glyphname = f;
kernLeft = f;
layers = (
{
layerId = m01;
shapes = (
{
closed = 1;
nodes = (
(14,302,o),
(14,310,qs),
(14,359,ls),
(14,368,o),
(22,368,qs),
(82,368,l),
(82,442,ls),
(82,499,o),
(134,562,o),
(181,562,qs),
(217,562,o),
(270,516,o),
(270,485,qs),
(270,471,o),
(261,471,qs),
(258,471,o),
(254,473,q),
(253,474,o),
(252,474,q),
(225,496,o),
(199,496,qs),
(156,496,o),
(156,438,qs),
(156,368,l),
(247,368,ls),
(255,368,o),
(255,359,qs),
(255,310,ls),
(255,302,o),
(247,302,qs),
(156,302,l),
(156,9,ls),
(156,0,o),
(148,0,qs),
(90,0,ls),
(82,0,o),
(82,9,qs),
(82,302,l),
(22,302,ls)
);
}
);
userData = {
assembly = "NPUSHB[ ]	/* 53 values pushed */
0 4 3 2 3 4 2 128 0 3 3 5 97 0 5 5 39 77 8 7 2 1 1 2 95 6 1 2 2 42 77 0 0 0 40 0 78 0 0 0 38 0 37 35 35 36 34 35 34 50 9 9 29 
CALL[ ]	/* CallFunction */";
};
width = 289;
}
);
note = f;
unicode = 102;
},
{
glyphname = g;
layers = (
{
layerId = m01;
shapes = (
{
closed = 1;
nodes = (
(210,-6,qs),
(136,-6,o),
(89,43,qs),
(38,96,o),
(38,184,qs),
(38,262,o),
(80,315,qs),
(130,377,o),
(213,377,qs),
(297,377,o),
(337,319,q),
(344,368,o),
(394,368,qs),
(399,368,ls),
(407,368,o),
(407,360,qs),
(407,12,ls),
(407,-67,o),
(366,-114,qs),
(318,-171,o),
(220,-171,qs),
(154,-171,o),
(108,-141,qs),
(58,-109,o),
(58,-68,qs),
(58,-51,o),
(69,-51,qs),
(72,-51,o),
(77,-55,qs),
(80,-57,o),
(81,-58,qs),
(129,-101,o),
(207,-101,qs),
(332,-101,o),
(332,12,qs),
(332,54,l),
(290,-6,o)
);
},
{
closed = 1;
nodes = (
(332,126,o),
(332,184,qs),
(332,246,o),
(300,278,qs),
(271,306,o),
(224,306,qs),
(181,306,o),
(152,280,qs),
(115,246,o),
(115,184,qs),
(115,129,o),
(173,61,o),
(221,61,qs),
(274,61,o)
);
}
);
userData = {
assembly = "NPUSHB[ ]	/* 10 values pushed */
25 1 7 3 0 1 5 6 2 76 
MPPEM[ ]	/* MeasurePixelPerEm */
PUSHB[ ]	/* 1 value pushed */
9 
LT[ ]	/* LessThan */
IF[ ]	/* If */
NPUSHB[ ]	/* 41 values pushed */
0 1 5 0 5 1 0 128 0 7 7 3 97 4 1 3 3 42 77 8 1 6 6 5 97 0 5 5 49 77 0 0 0 2 97 0 2 2 50 2 78 
ELSE[ ]	/* Else */
MPPEM[ ]	/* MeasurePixelPerEm */
PUSHB[ ]	/* 1 value pushed */
11 
LT[ ]	/* LessThan */
IF[ ]	/* If */
NPUSHB[ ]	/* 41 values pushed */
0 1 5 0 5 1 0 128 0 7 7 3 97 4 1 3 3 42 77 8 1 6 6 5 97 0 5 5 46 77 0 0 0 2 97 0 2 2 50 2 78 
ELSE[ ]	/* Else */
MPPEM[ ]	/* MeasurePixelPerEm */
PUSHB[ ]	/* 1 value pushed */
20 
LT[ ]	/* LessThan */
IF[ ]	/* If */
NPUSHB[ ]	/* 41 values pushed */
0 1 5 0 5 1 0 128 0 7 7 3 97 4 1 3 3 42 77 8 1 6 6 5 97 0 5 5 49 77 0 0 0 2 97 0 2 2 50 2 78 
ELSE[ ]	/* Else */
NPUSHB[ ]	/* 45 values pushed */
0 1 5 0 5 1 0 128 0 3 3 42 77 0 7 7 4 97 0 4 4 48 77 8 1 6 6 5 97 0 5 5 49 77 0 0 0 2 97 0 2 2 50 2 78 
EIF[ ]	/* EndIf */
EIF[ ]	/* EndIf */
EIF[ ]	/* EndIf */
NPUSHB[ ]	/* 17 values pushed */
38 37 45 43 37 50 38 50 38 34 53 36 36 34 9 9 28 
CALL[ ]	/* CallFunction */";
};
width = 459;
}
);
note = g;
unicode = 103;
},
{
glyphname = h;
layers = (
{
layerId = m01;
shapes = (
{
closed = 1;
nodes = (
(241,377,qs),
(305,377,o),
(345,339,qs),
(391,296,o),
(391,217,qs),
(391,9,ls),
(391,0,o),
(383,0,qs),
(324,0,ls),
(316,0,o),
(316,9,qs),
(316,204,ls),
(316,254,o),
(268,308,o),
(224,308,qs),
(127,308,o),
(127,199,qs),
(127,9,ls),
(127,0,o),
(120,0,qs),
(61,0,ls),
(53,0,o),
(53,9,qs),
(53,547,ls),
(53,556,o),
(61,556,qs),
(66,556,ls),
(127,556,o),
(127,487,qs),
(127,323,l),
(163,377,o)
);
}
);
userData = {
assembly = "NPUSHB[ ]	/* 36 values pushed */
0 1 2 4 1 76 0 0 0 39 77 0 2 2 4 97 0 4 4 48 77 3 1 1 1 40 1 78 37 52 35 51 50 5 9 27 
CALL[ ]	/* CallFunction */";
};
width = 441;
}
);
note = h;
unicode = 104;
},
{
glyphname = i;
kernLeft = i;
kernRight = i;
layers = (
{
layerId = m01;
shapes = (
{
closed = 1;
nodes = (
(53,9,qs),
(53,359,ls),
(53,368,o),
(61,368,qs),
(66,368,ls),
(128,368,o),
(128,299,qs),
(128,9,ls),
(128,0,o),
(120,0,qs),
(61,0,ls),
(53,0,o)
);
},
{
closed = 1;
nodes = (
(72,513,o),
(91,513,qs),
(110,513,o),
(135,486,o),
(135,467,qs),
(135,449,o),
(109,422,o),
(91,422,qs),
(72,422,o),
(46,448,o),
(46,467,qs),
(46,486,o)
);
}
);
userData = {
assembly = "NPUSHB[ ]	/* 35 values pushed */
0 3 0 2 1 3 2 105 0 1 1 42 77 4 1 0 0 40 0 78 2 0 22 20 16 14 8 5 0 11 2 11 5 9 22 
CALL[ ]	/* CallFunction */";
};
width = 180;
}
);
note = i;
unicode = 105;
},
{
glyphname = j;
layers = (
{
layerId = m01;
shapes = (
{
closed = 1;
nodes = (
(11,-106,qs),
(53,-106,o),
(53,-42,qs),
(53,360,ls),
(53,368,o),
(60,368,qs),
(65,368,ls),
(127,368,o),
(127,299,qs),
(127,-48,ls),
(127,-171,o),
(33,-171,qs),
(-4,-171,o),
(-59,-124,o),
(-59,-92,qs),
(-59,-78,o),
(-50,-78,qs),
(-46,-78,o),
(-42,-81,qs),
(-12,-106,o)
);
},
{
closed = 1;
nodes = (
(72,513,o),
(90,513,qs),
(109,513,o),
(135,486,o),
(135,467,qs),
(135,448,o),
(109,422,o),
(90,422,qs),
(72,422,o),
(45,448,o),
(45,467,qs),
(45,486,o)
);
}
);
userData = {
assembly = "NPUSHB[ ]	/* 41 values pushed */
0 0 2 3 2 0 3 128 0 5 0 4 2 5 4 105 0 2 2 42 77 0 3 3 1 98 0 1 1 50 1 78 36 35 35 51 35 33 6 9 28 
CALL[ ]	/* CallFunction */";
};
width = 180;
}
);
note = j;
unicode = 106;
},
{
glyphname = k;
layers = (
{
layerId = m01;
shapes = (
{
closed = 1;
nodes = (
(127,0,o),
(120,0,qs),
(61,0,ls),
(53,0,o),
(53,9,qs),
(53,547,ls),
(53,556,o),
(61,556,qs),
(66,556,ls),
(127,556,o),
(127,487,qs),
(127,224,l),
(257,358,ls),
(268,368,o),
(280,368,qs),
(342,368,ls),
(346,368,o),
(349,363,o),
(346,360,qs),
(224,234,l),
(363,9,ls),
(368,0,o),
(358,0,qs),
(295,0,ls),
(282,0,o),
(276,11,qs),
(173,181,l),
(127,135,l),
(127,9,ls)
);
}
);
userData = {
assembly = "NPUSHB[ ]	/* 34 values pushed */
16 9 8 1 0 5 0 1 1 76 0 2 2 39 77 0 1 1 42 77 3 1 0 0 40 0 78 51 52 53 51 4 9 26 
CALL[ ]	/* CallFunction */";
};
width = 376;
}
);
note = k;
unicode = 107;
},
{
glyphname = l;
kernRight = l;
layers = (
{
layerId = m01;
shapes = (
{
closed = 1;
nodes = (
(52,106,qs),
(52,547,ls),
(52,556,o),
(60,556,qs),
(65,556,ls),
(126,556,o),
(126,487,qs),
(126,111,ls),
(126,59,o),
(165,59,qs),
(191,59,o),
(213,83,q),
(217,89,o),
(223,89,qs),
(232,89,o),
(232,76,qs),
(232,40,o),
(182,-9,o),
(145,-9,qs),
(52,-9,o)
);
}
);
userData = {
assembly = "NPUSHB[ ]	/* 40 values pushed */
0 1 3 2 3 1 2 128 0 3 3 39 77 0 2 2 0 98 4 1 0 0 49 0 78 1 0 16 13 10 8 5 4 0 19 1 19 5 9 22 
CALL[ ]	/* CallFunction */";
};
width = 233;
}
);
note = l;
unicode = 108;
},
{
glyphname = m;
layers = (
{
layerId = m01;
shapes = (
{
closed = 1;
nodes = (
(237,376,qs),
(325,376,o),
(364,308,q),
(411,376,o),
(492,376,qs),
(559,376,o),
(598,338,qs),
(642,296,o),
(642,216,qs),
(642,9,ls),
(642,0,o),
(634,0,qs),
(576,0,ls),
(568,0,o),
(568,9,qs),
(568,203,ls),
(568,307,o),
(479,307,qs),
(385,307,o),
(385,199,qs),
(385,9,ls),
(385,0,o),
(377,0,qs),
(318,0,ls),
(310,0,o),
(310,9,qs),
(310,203,ls),
(310,307,o),
(222,307,qs),
(127,307,o),
(127,199,qs),
(127,9,ls),
(127,0,o),
(120,0,qs),
(61,0,ls),
(53,0,o),
(53,9,qs),
(53,360,ls),
(53,368,o),
(61,368,qs),
(66,368,ls),
(115,368,o),
(125,319,q),
(162,376,o)
);
}
);
userData = {
assembly = "PUSHB[ ]	/* 6 values pushed */
40 1 2 0 1 76 
MPPEM[ ]	/* MeasurePixelPerEm */
PUSHB[ ]	/* 1 value pushed */
25 
LT[ ]	/* LessThan */
IF[ ]	/* If */
NPUSHB[ ]	/* 21 values pushed */
4 1 2 2 0 97 7 6 2 0 0 42 77 5 3 2 1 1 40 1 78 
ELSE[ ]	/* Else */
NPUSHB[ ]	/* 25 values pushed */
0 0 0 42 77 4 1 2 2 6 97 7 1 6 6 48 77 5 3 2 1 1 40 1 78 
EIF[ ]	/* EndIf */
NPUSHB[ ]	/* 11 values pushed */
34 37 51 35 51 35 51 49 8 9 30 
CALL[ ]	/* CallFunction */";
};
width = 693;
}
);
note = m;
unicode = 109;
},
{
glyphname = n;
kernLeft = n;
kernRight = n;
layers = (
{
layerId = m01;
shapes = (
{
closed = 1;
nodes = (
(240,376,qs),
(305,376,o),
(344,338,qs),
(390,295,o),
(390,216,qs),
(390,9,ls),
(390,0,o),
(382,0,qs),
(323,0,ls),
(315,0,o),
(315,9,qs),
(315,202,ls),
(315,252,o),
(267,307,o),
(223,307,qs),
(126,307,o),
(126,198,qs),
(126,9,ls),
(126,0,o),
(119,0,qs),
(60,0,ls),
(52,0,o),
(52,9,qs),
(52,359,ls),
(52,368,o),
(60,368,qs),
(65,368,ls),
(116,368,o),
(124,318,q),
(162,376,o)
);
}
);
userData = {
assembly = "MPPEM[ ]	/* MeasurePixelPerEm */
PUSHB[ ]	/* 1 value pushed */
25 
LT[ ]	/* LessThan */
IF[ ]	/* If */
NPUSHB[ ]	/* 18 values pushed */
0 2 2 0 97 4 1 0 0 42 77 3 1 1 1 40 1 78 
ELSE[ ]	/* Else */
NPUSHB[ ]	/* 22 values pushed */
0 0 0 42 77 0 2 2 4 97 0 4 4 48 77 3 1 1 1 40 1 78 
EIF[ ]	/* EndIf */
PUSHB[ ]	/* 8 values pushed */
37 52 35 51 49 5 9 27 
CALL[ ]	/* CallFunction */";
};
width = 441;
}
);
note = n;
unicode = 110;
},
{
glyphname = o;
kernLeft = o;
kernRight = o;
layers = (
{
layerId = m01;
shapes = (
{
closed = 1;
nodes = (
(94,37,qs),
(37,90,o),
(37,183,qs),
(37,264,o),
(81,316,qs),
(133,377,o),
(222,377,qs),
(301,377,o),
(351,330,qs),
(409,277,o),
(409,184,qs),
(409,103,o),
(364,51,qs),
(313,-9,o),
(223,-9,qs),
(144,-9,o)
);
},
{
closed = 1;
nodes = (
(296,88,qs),
(332,121,o),
(332,183,qs),
(332,236,o),
(304,270,qs),
(273,306,o),
(222,306,qs),
(177,306,o),
(148,278,qs),
(114,244,o),
(114,183,qs),
(114,127,o),
(172,62,o),
(222,62,qs),
(267,62,o)
);
}
);
userData = {
assembly = "NPUSHB[ ]	/* 42 values pushed */
0 3 3 1 97 0 1 1 48 77 5 1 2 2 0 97 4 1 0 0 49 0 78 17 16 1 0 24 22 16 30 17 30 9 7 0 15 1 15 6 9 22 
CALL[ ]	/* CallFunction */";
};
width = 447;
}
);
note = o;
unicode = 111;
},
{
glyphname = p;
layers = (
{
layerId = m01;
shapes = (
{
closed = 1;
nodes = (
(127,-160,o),
(120,-160,qs),
(61,-160,ls),
(53,-160,o),
(53,-151,qs),
(53,360,ls),
(53,368,o),
(61,368,qs),
(66,368,ls),
(113,368,o),
(125,316,q),
(165,377,o),
(247,377,qs),
(322,377,o),
(369,329,qs),
(422,276,o),
(422,184,qs),
(422,107,o),
(383,54,qs),
(336,-9,o),
(252,-9,qs),
(166,-9,o),
(127,49,q),
(127,-151,ls)
);
},
{
closed = 1;
nodes = (
(305,85,qs),
(345,118,o),
(345,184,qs),
(345,239,o),
(316,272,qs),
(286,306,o),
(236,306,qs),
(185,306,o),
(127,241,o),
(127,184,qs),
(127,122,o),
(161,90,qs),
(191,61,o),
(238,61,qs),
(277,61,o)
);
}
);
userData = {
assembly = "MPPEM[ ]	/* MeasurePixelPerEm */
PUSHB[ ]	/* 1 value pushed */
20 
LT[ ]	/* LessThan */
IF[ ]	/* If */
NPUSHB[ ]	/* 10 values pushed */
12 1 5 1 0 1 0 4 2 76 
ELSE[ ]	/* Else */
NPUSHB[ ]	/* 10 values pushed */
12 1 5 2 0 1 0 4 2 76 
EIF[ ]	/* EndIf */
MPPEM[ ]	/* MeasurePixelPerEm */
PUSHB[ ]	/* 1 value pushed */
20 
LT[ ]	/* LessThan */
IF[ ]	/* If */
NPUSHB[ ]	/* 28 values pushed */
0 5 5 1 97 2 1 1 1 48 77 6 1 4 4 0 97 0 0 0 49 77 0 3 3 44 3 78 
ELSE[ ]	/* Else */
NPUSHB[ ]	/* 32 values pushed */
0 2 2 42 77 0 5 5 1 97 0 1 1 48 77 6 1 4 4 0 97 0 0 0 49 77 0 3 3 44 3 78 
EIF[ ]	/* EndIf */
NPUSHB[ ]	/* 15 values pushed */
25 24 32 30 24 38 25 38 51 50 38 33 7 9 26 
CALL[ ]	/* CallFunction */";
};
width = 459;
}
);
note = p;
unicode = 112;
},
{
glyphname = q;
layers = (
{
layerId = m01;
shapes = (
{
closed = 1;
nodes = (
(210,-9,qs),
(136,-9,o),
(89,41,qs),
(38,96,o),
(38,184,qs),
(38,262,o),
(80,315,qs),
(130,377,o),
(213,377,qs),
(295,377,o),
(337,319,q),
(344,368,o),
(394,368,qs),
(399,368,ls),
(407,368,o),
(407,360,qs),
(407,-151,ls),
(407,-160,o),
(399,-160,qs),
(340,-160,ls),
(332,-160,o),
(332,-151,qs),
(332,52,l),
(291,-9,o)
);
},
{
closed = 1;
nodes = (
(332,126,o),
(332,184,qs),
(332,246,o),
(300,278,qs),
(271,306,o),
(224,306,qs),
(181,306,o),
(152,280,qs),
(115,246,o),
(115,184,qs),
(115,129,o),
(174,61,o),
(221,61,qs),
(274,61,o)
);
}
);
userData = {
assembly = "NPUSHB[ ]	/* 10 values pushed */
12 1 5 1 0 1 3 4 2 76 
MPPEM[ ]	/* MeasurePixelPerEm */
PUSHB[ ]	/* 1 value pushed */
20 
LT[ ]	/* LessThan */
IF[ ]	/* If */
NPUSHB[ ]	/* 28 values pushed */
0 5 5 1 97 2 1 1 1 42 77 6 1 4 4 3 97 0 3 3 49 77 0 0 0 44 0 78 
ELSE[ ]	/* Else */
NPUSHB[ ]	/* 32 values pushed */
0 1 1 42 77 0 5 5 2 97 0 2 2 48 77 6 1 4 4 3 97 0 3 3 49 77 0 0 0 44 0 78 
EIF[ ]	/* EndIf */
NPUSHB[ ]	/* 15 values pushed */
25 24 32 30 24 37 25 37 38 34 51 50 7 9 26 
CALL[ ]	/* CallFunction */";
};
width = 459;
}
);
note = q;
unicode = 113;
},
{
glyphname = r;
kernLeft = r;
layers = (
{
layerId = m01;
shapes = (
{
closed = 1;
nodes = (
(191,368,o),
(233,368,qs),
(244,368,ls),
(252,368,o),
(252,360,qs),
(252,305,ls),
(252,296,o),
(244,296,qs),
(220,296,ls),
(170,296,o),
(127,245,o),
(127,184,qs),
(127,9,ls),
(127,0,o),
(120,0,qs),
(61,0,ls),
(53,0,o),
(53,9,qs),
(53,360,ls),
(53,368,o),
(61,368,qs),
(66,368,ls),
(119,368,o),
(125,315,q),
(142,344,o)
);
}
);
userData = {
assembly = "NPUSHB[ ]	/* 24 values pushed */
0 2 2 0 97 3 1 0 0 42 77 0 1 1 40 1 78 51 52 51 49 4 9 26 
CALL[ ]	/* CallFunction */";
};
width = 278;
}
);
note = r;
unicode = 114;
},
{
glyphname = s;
kernLeft = s;
layers = (
{
layerId = m01;
shapes = (
{
closed = 1;
nodes = (
(165,313,qs),
(106,313,o),
(106,273,qs),
(106,258,o),
(134,235,o),
(173,220,qs),
(246,192,o),
(295,147,o),
(295,108,qs),
(295,58,o),
(263,26,qs),
(224,-11,o),
(155,-11,qs),
(101,-11,o),
(22,45,o),
(22,84,qs),
(22,101,o),
(33,101,qs),
(38,101,o),
(42,96,q),
(90,53,o),
(148,53,qs),
(220,53,o),
(220,101,qs),
(220,117,o),
(191,140,o),
(153,154,qs),
(80,182,o),
(30,227,o),
(30,267,qs),
(30,314,o),
(65,344,qs),
(103,377,o),
(166,377,qs),
(214,377,o),
(251,359,qs),
(286,344,o),
(278,305,qs),
(275,292,ls),
(273,285,o),
(268,285,qs),
(266,285,o),
(262,287,qs),
(259,288,o),
(259,288,q),
(212,313,o)
);
}
);
userData = {
assembly = "NPUSHB[ ]	/* 45 values pushed */
0 0 5 3 5 0 3 128 0 3 2 5 3 2 126 0 5 5 1 97 0 1 1 48 77 0 2 2 4 97 0 4 4 46 4 78 42 35 34 42 37 35 6 9 28 
CALL[ ]	/* CallFunction */";
};
width = 317;
}
);
note = s;
unicode = 115;
},
{
glyphname = t;
layers = (
{
layerId = m01;
shapes = (
{
closed = 1;
nodes = (
(16,302,o),
(16,310,qs),
(16,360,ls),
(16,368,o),
(24,368,qs),
(92,368,l),
(92,492,ls),
(92,501,o),
(99,501,qs),
(104,501,ls),
(166,501,o),
(166,431,qs),
(166,368,l),
(243,368,ls),
(250,368,o),
(250,360,qs),
(250,310,ls),
(250,302,o),
(243,302,qs),
(166,302,l),
(166,9,ls),
(166,0,o),
(158,0,qs),
(99,0,ls),
(92,0,o),
(92,9,qs),
(92,302,l),
(24,302,ls)
);
}
);
userData = {
assembly = "NPUSHB[ ]	/* 38 values pushed */
6 5 2 1 1 2 95 4 1 2 2 42 77 0 3 3 0 95 0 0 0 40 0 78 0 0 0 27 0 26 34 50 35 34 50 7 9 27 
CALL[ ]	/* CallFunction */";
};
width = 276;
}
);
note = t;
unicode = 116;
},
{
glyphname = u;
kernLeft = u;
kernRight = u;
layers = (
{
layerId = m01;
shapes = (
{
closed = 1;
nodes = (
(95,32,qs),
(49,79,o),
(49,172,qs),
(49,359,ls),
(49,368,o),
(57,368,qs),
(62,368,ls),
(123,368,o),
(123,299,qs),
(123,164,ls),
(123,113,o),
(170,59,o),
(213,59,qs),
(303,59,o),
(303,161,qs),
(303,359,ls),
(303,368,o),
(311,368,qs),
(316,368,ls),
(378,368,o),
(378,299,qs),
(378,167,ls),
(378,89,o),
(342,43,qs),
(299,-10,o),
(213,-10,qs),
(137,-10,o)
);
}
);
userData = {
assembly = "NPUSHB[ ]	/* 33 values pushed */
3 1 1 1 42 77 0 2 2 0 97 4 1 0 0 46 0 78 1 0 21 18 14 12 9 6 0 26 1 26 5 9 22 
CALL[ ]	/* CallFunction */";
};
width = 426;
}
);
note = u;
unicode = 117;
},
{
glyphname = v;
layers = (
{
layerId = m01;
shapes = (
{
closed = 1;
nodes = (
(274,368,o),
(286,368,qs),
(341,368,ls),
(348,368,o),
(346,360,qs),
(224,8,ls),
(221,0,o),
(214,0,qs),
(150,0,ls),
(142,0,o),
(138,8,q),
(16,360,ls),
(13,368,o),
(21,368,qs),
(37,368,ls),
(68,368,o),
(100,341,o),
(111,306,qs),
(182,82,l),
(270,357,ls)
);
}
);
userData = {
assembly = "NPUSHB[ ]	/* 18 values pushed */
2 1 0 0 42 77 0 1 1 40 1 78 51 51 51 3 9 25 
CALL[ ]	/* CallFunction */";
};
width = 359;
}
);
note = v;
unicode = 118;
},
{
glyphname = w;
layers = (
{
layerId = m01;
shapes = (
{
closed = 1;
nodes = (
(254,368,o),
(263,368,qs),
(273,368,ls),
(304,368,o),
(334,342,o),
(345,306,qs),
(410,96,l),
(485,357,ls),
(489,368,o),
(501,368,qs),
(551,368,ls),
(560,368,o),
(557,360,qs),
(448,8,ls),
(445,0,o),
(437,0,qs),
(382,0,ls),
(374,0,o),
(371,8,qs),
(288,269,l),
(207,8,ls),
(204,0,o),
(197,0,qs),
(140,0,ls),
(132,0,o),
(128,8,q),
(20,360,ls),
(18,368,o),
(26,368,qs),
(39,368,ls),
(71,368,o),
(103,340,o),
(112,306,qs),
(171,96,l),
(251,359,ls)
);
}
);
userData = {
assembly = "NPUSHB[ ]	/* 29 values pushed */
27 14 2 1 0 1 76 4 3 2 0 0 42 77 2 1 1 1 40 1 78 53 51 52 51 51 5 9 27 
CALL[ ]	/* CallFunction */";
};
width = 574;
}
);
note = w;
unicode = 119;
},
{
glyphname = x;
layers = (
{
layerId = m01;
shapes = (
{
closed = 1;
nodes = (
(86,0,o),
(74,0,qs),
(17,0,ls),
(13,0,o),
(11,6,o),
(13,9,qs),
(132,194,l),
(28,360,l),
(22,368,o),
(32,368,qs),
(58,368,ls),
(85,368,o),
(116,347,o),
(137,313,qs),
(180,247,l),
(248,357,ls),
(255,368,o),
(269,368,qs),
(323,368,ls),
(331,368,o),
(327,360,q),
(227,199,l),
(348,9,ls),
(350,6,o),
(348,0,o),
(344,0,qs),
(285,0,ls),
(273,0,o),
(266,11,qs),
(178,149,l),
(92,11,ls)
);
}
);
userData = {
assembly = "NPUSHB[ ]	/* 29 values pushed */
24 23 15 8 4 0 1 1 76 2 1 1 1 42 77 3 1 0 0 40 0 78 53 53 54 34 4 9 26 
CALL[ ]	/* CallFunction */";
};
width = 363;
}
);
note = x;
unicode = 120;
},
{
glyphname = y;
kernLeft = y;
kernRight = y;
layers = (
{
layerId = m01;
shapes = (
{
closed = 1;
nodes = (
(14,368,o),
(20,368,qs),
(37,368,ls),
(67,368,o),
(98,342,o),
(111,306,qs),
(183,88,l),
(271,357,ls),
(275,368,o),
(287,368,qs),
(342,368,ls),
(348,368,o),
(347,359,q),
(216,-9,ls),
(184,-102,o),
(125,-171,o),
(76,-171,qs),
(42,-171,o),
(-8,-125,o),
(-8,-93,qs),
(-8,-78,o),
(2,-78,qs),
(6,-78,o),
(11,-82,qs),
(38,-106,o),
(63,-106,qs),
(90,-106,o),
(122,-66,o),
(143,-7,q),
(15,359,l)
);
}
);
userData = {
assembly = "NPUSHB[ ]	/* 39 values pushed */
22 1 1 3 1 76 0 1 3 0 3 1 0 128 4 1 3 3 42 77 0 0 0 2 98 0 2 2 50 2 78 37 52 35 34 34 5 9 27 
CALL[ ]	/* CallFunction */";
};
width = 361;
}
);
note = y;
unicode = 121;
},
{
glyphname = z;
kernLeft = z;
kernRight = z;
layers = (
{
layerId = m01;
shapes = (
{
closed = 1;
nodes = (
(304,66,o),
(304,57,qs),
(304,9,ls),
(304,0,o),
(297,0,qs),
(39,0,ls),
(31,0,o),
(31,9,qs),
(31,46,ls),
(31,59,o),
(44,76,qs),
(224,302,l),
(44,302,ls),
(36,302,o),
(36,310,qs),
(36,359,ls),
(36,368,o),
(44,368,qs),
(251,368,ls),
(281,368,o),
(304,343,o),
(304,313,qs),
(304,292,o),
(290,275,qs),
(124,66,l),
(297,66,ls)
);
}
);
userData = {
assembly = "NPUSHB[ ]	/* 34 values pushed */
0 1 1 0 95 0 0 0 42 77 4 1 3 3 2 95 0 2 2 40 2 78 0 0 0 25 0 24 53 35 53 5 9 25 
CALL[ ]	/* CallFunction */";
};
width = 337;
}
);
note = z;
unicode = 122;
},
{
glyphname = braceleft;
layers = (
{
layerId = m01;
shapes = (
{
closed = 1;
nodes = (
(142,-144,o),
(107,-110,o),
(107,-82,qs),
(107,196,ls),
(107,240,o),
(68,245,qs),
(56,247,o),
(56,258,qs),
(56,294,ls),
(56,306,o),
(68,307,qs),
(107,313,o),
(107,357,qs),
(107,633,ls),
(107,662,o),
(142,696,o),
(172,696,qs),
(278,696,ls),
(291,696,o),
(291,683,qs),
(291,678,ls),
(291,657,o),
(263,632,o),
(240,632,qs),
(194,632,ls),
(177,632,o),
(177,614,qs),
(177,352,ls),
(177,302,o),
(147,276,q),
(177,251,o),
(177,199,qs),
(177,-62,ls),
(177,-80,o),
(194,-80,qs),
(240,-80,ls),
(263,-80,o),
(291,-105,o),
(291,-126,qs),
(291,-131,ls),
(291,-144,o),
(278,-144,qs),
(172,-144,ls)
);
}
);
userData = {
assembly = "PUSHB[ ]	/* 6 values pushed */
12 1 1 2 1 76 
MPPEM[ ]	/* MeasurePixelPerEm */
PUSHB[ ]	/* 1 value pushed */
25 
LT[ ]	/* LessThan */
IF[ ]	/* If */
NPUSHB[ ]	/* 20 values pushed */
0 3 0 2 1 3 2 105 0 1 1 0 95 4 1 0 0 44 0 78 
ELSE[ ]	/* Else */
NPUSHB[ ]	/* 25 values pushed */
0 3 0 2 1 3 2 105 0 1 0 0 1 89 0 1 1 0 95 4 1 0 1 0 79 
EIF[ ]	/* EndIf */
NPUSHB[ ]	/* 15 values pushed */
1 0 26 23 19 16 8 5 0 42 1 41 5 9 22 
CALL[ ]	/* CallFunction */";
};
width = 346;
}
);
note = braceleft;
unicode = 123;
},
{
glyphname = bar;
layers = (
{
layerId = m01;
shapes = (
{
closed = 1;
nodes = (
(62,-140,qs),
(62,558,ls),
(62,567,o),
(70,567,qs),
(129,567,o),
(129,498,qs),
(129,-140,ls),
(129,-149,o),
(120,-149,qs),
(70,-149,ls),
(62,-149,o)
);
}
);
userData = {
assembly = "MPPEM[ ]	/* MeasurePixelPerEm */
PUSHB[ ]	/* 1 value pushed */
35 
LT[ ]	/* LessThan */
IF[ ]	/* If */
NPUSHB[ ]	/* 12 values pushed */
0 1 1 39 77 2 1 0 0 44 0 78 
ELSE[ ]	/* Else */
NPUSHB[ ]	/* 17 values pushed */
0 1 0 0 1 89 0 1 1 0 97 2 1 0 1 0 81 
EIF[ ]	/* EndIf */
NPUSHB[ ]	/* 11 values pushed */
2 0 7 5 0 10 2 10 3 9 22 
CALL[ ]	/* CallFunction */";
};
width = 190;
}
);
note = bar;
unicode = 124;
},
{
glyphname = braceright;
layers = (
{
layerId = m01;
shapes = (
{
closed = 1;
nodes = (
(56,-144,o),
(56,-131,qs),
(56,-126,ls),
(56,-105,o),
(84,-80,o),
(107,-80,qs),
(153,-80,ls),
(170,-80,o),
(170,-62,qs),
(170,199,ls),
(170,251,o),
(200,276,q),
(170,302,o),
(170,352,qs),
(170,614,ls),
(170,632,o),
(153,632,qs),
(107,632,ls),
(84,632,o),
(56,657,o),
(56,678,qs),
(56,683,ls),
(56,696,o),
(69,696,qs),
(175,696,ls),
(205,696,o),
(240,662,o),
(240,633,qs),
(240,357,ls),
(240,313,o),
(279,307,qs),
(291,306,o),
(291,294,qs),
(291,258,ls),
(291,247,o),
(279,245,qs),
(240,240,o),
(240,196,qs),
(240,-82,ls),
(240,-110,o),
(205,-144,o),
(175,-144,qs),
(69,-144,ls)
);
}
);
userData = {
assembly = "PUSHB[ ]	/* 6 values pushed */
30 1 3 2 1 76 
MPPEM[ ]	/* MeasurePixelPerEm */
PUSHB[ ]	/* 1 value pushed */
25 
LT[ ]	/* LessThan */
IF[ ]	/* If */
NPUSHB[ ]	/* 20 values pushed */
0 1 0 2 3 1 2 105 0 3 3 0 95 4 1 0 0 44 0 78 
ELSE[ ]	/* Else */
NPUSHB[ ]	/* 25 values pushed */
0 1 0 2 3 1 2 105 0 3 0 0 3 89 0 3 3 0 95 4 1 0 3 0 79 
EIF[ ]	/* EndIf */
NPUSHB[ ]	/* 15 values pushed */
1 0 37 34 26 23 19 16 0 42 1 41 5 9 22 
CALL[ ]	/* CallFunction */";
};
width = 346;
}
);
note = braceright;
unicode = 125;
},
{
glyphname = asciitilde;
layers = (
{
layerId = m01;
shapes = (
{
closed = 1;
nodes = (
(355,312,qs),
(355,271,ls),
(355,251,o),
(346,243,qs),
(315,216,o),
(271,216,qs),
(242,216,o),
(201,230,qs),
(151,248,o),
(129,248,qs),
(85,248,o),
(52,217,qs),
(49,214,o),
(43,216,o),
(43,219,qs),
(43,262,ls),
(43,280,o),
(52,288,qs),
(87,316,o),
(129,316,qs),
(156,316,o),
(197,301,qs),
(247,283,o),
(271,283,qs),
(313,283,o),
(347,315,q),
(355,320,o)
);
}
);
userData = {
assembly = "PUSHB[ ]	/* 2 values pushed */
6 100 
WCVTP[ ]	/* WriteCVTInPixels */
NPUSHB[ ]	/* 37 values pushed */
11 1 3 2 1 76 0 0 2 3 0 89 0 1 0 2 3 1 2 105 0 0 0 3 97 0 3 0 3 81 34 40 34 33 4 9 26 
CALL[ ]	/* CallFunction */
PUSHB[ ]	/* 2 values pushed */
6 0 
WCVTP[ ]	/* WriteCVTInPixels */";
};
width = 398;
}
);
note = asciitilde;
unicode = 126;
},
{
glyphname = exclamdown;
layers = (
{
layerId = m01;
shapes = (
{
closed = 1;
nodes = (
(26,299,o),
(26,322,qs),
(26,344,o),
(57,377,o),
(79,377,qs),
(102,377,o),
(134,344,o),
(134,322,qs),
(134,299,o),
(101,266,o),
(79,266,qs),
(57,266,o)
);
},
{
closed = 1;
nodes = (
(42,-189,o),
(42,-180,qs),
(49,204,ls),
(49,212,o),
(57,212,qs),
(112,212,o),
(113,142,qs),
(119,-180,ls),
(119,-189,o),
(111,-189,qs),
(49,-189,ls)
);
}
);
userData = {
assembly = "NPUSHB[ ]	/* 39 values pushed */
0 3 5 1 2 3 2 99 4 1 0 0 1 97 0 1 1 48 0 78 13 12 1 0 18 16 12 22 13 21 7 5 0 11 1 11 6 9 22 
CALL[ ]	/* CallFunction */";
};
width = 165;
}
);
note = exclamdown;
unicode = 161;
},
{
glyphname = cent;
layers = (
{
layerId = m01;
shapes = (
{
closed = 1;
nodes = (
(243,-68,o),
(235,-68,qs),
(200,-68,ls),
(191,-68,o),
(191,-59,qs),
(191,-9,l),
(125,-2,o),
(84,43,qs),
(36,95,o),
(36,183,qs),
(36,257,o),
(74,308,qs),
(116,366,o),
(191,374,q),
(191,429,ls),
(191,438,o),
(200,438,qs),
(235,438,ls),
(243,438,o),
(243,429,qs),
(243,376,l),
(277,373,o),
(302,362,qs),
(339,347,o),
(329,307,qs),
(325,289,ls),
(324,282,o),
(318,282,qs),
(316,282,o),
(312,284,qs),
(277,303,o),
(243,307,q),
(243,57,l),
(288,60,o),
(320,92,qs),
(321,93,o),
(322,94,qs),
(329,99,o),
(333,99,qs),
(342,99,o),
(342,84,qs),
(342,53,o),
(285,0,o),
(243,-7,q),
(243,-59,ls)
);
},
{
closed = 1;
nodes = (
(154,295,o),
(112,230,o),
(112,182,qs),
(112,80,o),
(191,61,q),
(191,304,l)
);
}
);
userData = {
assembly = "NPUSHB[ ]	/* 57 values pushed */
50 30 23 16 12 5 0 2 45 1 1 0 38 0 2 3 1 3 76 0 0 2 1 2 0 1 128 0 1 3 2 1 3 126 0 2 0 3 2 89 0 2 2 3 97 0 3 2 3 81 60 62 21 20 4 9 26 
CALL[ ]	/* CallFunction */";
};
width = 363;
}
);
note = cent;
unicode = 162;
},
{
glyphname = sterling;
layers = (
{
layerId = m01;
shapes = (
{
closed = 1;
nodes = (
(431,69,o),
(431,26,qs),
(431,11,ls),
(431,0,o),
(421,0,qs),
(54,0,ls),
(46,0,o),
(46,9,qs),
(46,61,ls),
(46,69,o),
(54,69,qs),
(138,69,l),
(168,137,o),
(168,193,qs),
(168,220,o),
(152,249,q),
(54,249,ls),
(46,249,o),
(46,258,qs),
(46,310,ls),
(46,319,o),
(54,319,qs),
(120,319,l),
(94,366,o),
(94,412,qs),
(94,480,o),
(137,521,qs),
(185,567,o),
(270,567,qs),
(330,567,o),
(389,539,qs),
(440,518,o),
(426,480,qs),
(419,461,ls),
(416,452,o),
(411,452,qs),
(407,452,o),
(397,458,qs),
(336,498,o),
(273,498,qs),
(225,498,o),
(169,451,o),
(169,411,qs),
(169,376,o),
(198,319,q),
(337,319,ls),
(381,319,o),
(381,276,qs),
(381,261,ls),
(381,249,o),
(370,249,qs),
(228,249,l),
(240,214,o),
(240,193,qs),
(240,142,o),
(209,69,q),
(386,69,ls)
);
}
);
userData = {
assembly = "MPPEM[ ]	/* MeasurePixelPerEm */
PUSHB[ ]	/* 1 value pushed */
35 
LT[ ]	/* LessThan */
IF[ ]	/* If */
NPUSHB[ ]	/* 41 values pushed */
0 3 2 1 2 3 1 128 5 1 1 6 1 0 7 1 0 103 0 2 2 4 97 0 4 4 39 77 10 9 2 7 7 8 95 0 8 8 40 8 78 
ELSE[ ]	/* Else */
NPUSHB[ ]	/* 39 values pushed */
0 3 2 1 2 3 1 128 0 4 0 2 3 4 2 105 5 1 1 6 1 0 7 1 0 103 10 9 2 7 7 8 95 0 8 8 40 8 78 
EIF[ ]	/* EndIf */
NPUSHB[ ]	/* 18 values pushed */
0 0 0 56 0 55 51 36 35 37 37 34 36 35 36 11 9 31 
CALL[ ]	/* CallFunction */";
};
width = 471;
}
);
note = sterling;
unicode = 163;
},
{
glyphname = yen;
layers = (
{
layerId = m01;
shapes = (
{
closed = 1;
nodes = (
(47,128,o),
(47,137,qs),
(47,178,ls),
(47,187,o),
(55,187,qs),
(201,187,l),
(201,213,l),
(180,251,l),
(55,251,ls),
(47,251,o),
(47,259,qs),
(47,301,ls),
(47,309,o),
(55,309,qs),
(148,309,l),
(20,547,ls),
(16,556,o),
(26,556,qs),
(54,556,ls),
(101,556,o),
(127,506,qs),
(241,292,l),
(375,544,l),
(380,556,o),
(394,556,qs),
(450,556,ls),
(464,556,o),
(457,544,qs),
(329,309,l),
(419,309,ls),
(426,309,o),
(426,301,qs),
(426,259,ls),
(426,251,o),
(419,251,qs),
(298,251,l),
(276,214,l),
(276,187,l),
(419,187,ls),
(426,187,o),
(426,178,qs),
(426,137,ls),
(426,128,o),
(419,128,qs),
(276,128,l),
(276,9,ls),
(276,0,o),
(269,0,qs),
(210,0,ls),
(201,0,o),
(201,9,qs),
(201,128,l),
(55,128,ls)
);
}
);
userData = {
assembly = "NPUSHB[ ]	/* 64 values pushed */
30 1 3 4 45 15 2 2 3 2 76 7 1 4 8 1 3 2 4 3 104 9 1 2 11 10 2 1 0 2 1 103 6 1 5 5 39 77 0 0 0 40 0 78 0 0 0 52 0 51 48 46 35 34 52 50 35 34 35 34 50 12 9 31 
CALL[ ]	/* CallFunction */";
};
width = 472;
}
);
note = yen;
unicode = 165;
},
{
glyphname = brokenbar;
layers = (
{
layerId = m01;
shapes = (
{
closed = 1;
nodes = (
(62,272,qs),
(62,558,ls),
(62,567,o),
(70,567,qs),
(129,567,o),
(129,498,qs),
(129,272,ls),
(129,263,o),
(120,263,qs),
(70,263,ls),
(62,263,o)
);
},
{
closed = 1;
nodes = (
(62,-140,qs),
(62,145,ls),
(62,154,o),
(70,154,qs),
(120,154,ls),
(129,154,o),
(129,145,qs),
(129,-140,ls),
(129,-149,o),
(120,-149,qs),
(70,-149,ls),
(62,-149,o)
);
}
);
userData = {
assembly = "MPPEM[ ]	/* MeasurePixelPerEm */
PUSHB[ ]	/* 1 value pushed */
35 
LT[ ]	/* LessThan */
IF[ ]	/* If */
NPUSHB[ ]	/* 23 values pushed */
4 1 0 0 1 97 0 1 1 39 77 0 3 3 2 97 5 1 2 2 44 2 78 
ELSE[ ]	/* Else */
NPUSHB[ ]	/* 26 values pushed */
0 1 4 1 0 3 1 0 105 0 3 2 2 3 89 0 3 3 2 97 5 1 2 3 2 81 
EIF[ ]	/* EndIf */
NPUSHB[ ]	/* 19 values pushed */
13 11 2 0 19 16 11 22 13 22 7 5 0 10 2 10 6 9 22 
CALL[ ]	/* CallFunction */";
};
width = 190;
}
);
note = brokenbar;
unicode = 166;
},
{
glyphname = section;
layers = (
{
layerId = m01;
shapes = (
{
closed = 1;
nodes = (
(300,243,qs),
(300,264,o),
(265,299,o),
(219,322,qs),
(191,336,o),
(188,338,q),
(130,300,o),
(130,257,qs),
(130,227,o),
(161,202,qs),
(179,188,o),
(245,154,q),
(300,196,o)
);
},
{
closed = 1;
nodes = (
(199,-38,qs),
(235,-38,o),
(279,-5,o),
(279,21,qs),
(279,58,o),
(201,102,qs),
(133,140,o),
(115,153,qs),
(58,196,o),
(58,248,qs),
(58,317,o),
(142,368,q),
(88,410,o),
(88,457,qs),
(88,504,o),
(122,534,qs),
(160,568,o),
(224,568,qs),
(273,568,o),
(314,549,qs),
(351,530,o),
(339,494,qs),
(335,482,l),
(335,481,l),
(332,475,o),
(329,475,qs),
(327,475,o),
(320,479,qs),
(276,507,o),
(231,507,qs),
(164,507,o),
(164,460,qs),
(164,427,o),
(238,389,qs),
(300,357,o),
(319,343,qs),
(373,304,o),
(373,252,qs),
(373,177,o),
(295,123,q),
(355,81,o),
(355,29,qs),
(355,-22,o),
(321,-56,qs),
(279,-98,o),
(206,-98,qs),
(137,-98,o),
(90,-62,qs),
(53,-32,o),
(66,-1,qs),
(71,11,ls),
(75,21,o),
(83,15,q),
(138,-38,o)
);
}
);
userData = {
assembly = "PUSHB[ ]	/* 8 values pushed */
54 26 6 3 3 1 1 76 
MPPEM[ ]	/* MeasurePixelPerEm */
PUSHB[ ]	/* 1 value pushed */
33 
LT[ ]	/* LessThan */
IF[ ]	/* If */
NPUSHB[ ]	/* 18 values pushed */
0 3 0 0 3 0 101 0 1 1 2 97 0 2 2 39 1 78 
ELSE[ ]	/* Else */
NPUSHB[ ]	/* 24 values pushed */
0 2 0 1 3 2 1 105 0 3 0 0 3 89 0 3 3 0 97 0 0 3 0 81 
EIF[ ]	/* EndIf */
NPUSHB[ ]	/* 11 values pushed */
66 64 49 47 37 35 21 19 4 9 22 
CALL[ ]	/* CallFunction */";
};
width = 421;
}
);
note = section;
unicode = 167;
},
{
glyphname = dieresis;
layers = (
{
layerId = m01;
shapes = (
{
closed = 1;
nodes = (
(26,513,o),
(44,513,qs),
(63,513,o),
(89,486,o),
(89,467,qs),
(89,448,o),
(63,422,o),
(44,422,qs),
(26,422,o),
(0,449,o),
(0,467,qs),
(0,486,o)
);
},
{
closed = 1;
nodes = (
(162,513,o),
(181,513,qs),
(200,513,o),
(226,486,o),
(226,467,qs),
(226,449,o),
(200,422,o),
(181,422,qs),
(162,422,o),
(136,448,o),
(136,467,qs),
(136,486,o)
);
}
);
userData = {
assembly = "PUSHB[ ]	/* 2 values pushed */
6 100 
WCVTP[ ]	/* WriteCVTInPixels */
NPUSHB[ ]	/* 26 values pushed */
3 1 1 0 0 1 89 3 1 1 1 0 97 2 1 0 1 0 81 36 36 36 34 4 9 26 
CALL[ ]	/* CallFunction */
PUSHB[ ]	/* 2 values pushed */
6 0 
WCVTP[ ]	/* WriteCVTInPixels */";
};
width = 226;
}
);
note = dieresis;
unicode = 168;
},
{
glyphname = copyright;
layers = (
{
layerId = m01;
shapes = (
{
closed = 1;
nodes = (
(83,494,qs),
(145,563,o),
(252,563,qs),
(345,563,o),
(406,509,qs),
(475,447,o),
(475,340,qs),
(475,246,o),
(421,186,qs),
(359,116,o),
(252,116,qs),
(159,116,o),
(99,170,qs),
(30,232,o),
(30,340,qs),
(30,434,o)
);
},
{
closed = 1;
nodes = (
(376,202,qs),
(431,252,o),
(431,340,qs),
(431,416,o),
(388,464,qs),
(339,521,o),
(252,521,qs),
(177,521,o),
(129,477,qs),
(73,427,o),
(73,340,qs),
(73,264,o),
(116,215,qs),
(165,159,o),
(252,159,qs),
(328,159,o)
);
},
{
closed = 1;
nodes = (
(262,423,qs),
(229,423,o),
(191,378,o),
(191,339,qs),
(191,301,o),
(229,257,o),
(262,257,qs),
(301,257,o),
(327,289,qs),
(330,293,o),
(334,293,qs),
(340,293,o),
(340,285,qs),
(339,259,o),
(288,219,o),
(256,219,qs),
(210,219,o),
(180,247,qs),
(146,281,o),
(146,340,qs),
(146,392,o),
(176,426,qs),
(209,463,o),
(262,463,qs),
(289,463,o),
(316,451,qs),
(334,443,o),
(333,431,qs),
(331,412,ls),
(329,400,o),
(320,406,qs),
(295,423,o)
);
}
);
userData = {
assembly = "PUSHB[ ]	/* 2 values pushed */
6 100 
WCVTP[ ]	/* WriteCVTInPixels */
NPUSHB[ ]	/* 73 values pushed */
0 6 8 7 8 6 7 128 0 1 0 3 4 1 3 105 0 4 0 8 6 4 8 105 0 7 0 5 2 7 5 105 9 1 2 0 0 2 89 9 1 2 2 0 98 0 0 2 0 82 17 16 63 61 57 55 53 51 48 46 40 38 25 23 16 31 17 31 38 35 10 9 24 
CALL[ ]	/* CallFunction */
PUSHB[ ]	/* 2 values pushed */
6 0 
WCVTP[ ]	/* WriteCVTInPixels */";
};
width = 505;
}
);
note = copyright;
unicode = 169;
},
{
glyphname = ordfeminine;
layers = (
{
layerId = m01;
shapes = (
{
closed = 1;
nodes = (
(158,253,qs),
(98,253,o),
(60,293,qs),
(18,336,o),
(18,406,qs),
(18,467,o),
(53,509,qs),
(94,558,o),
(160,558,qs),
(225,558,o),
(262,513,q),
(267,551,o),
(309,551,qs),
(314,551,ls),
(320,551,o),
(320,544,qs),
(320,266,ls),
(320,261,o),
(314,261,qs),
(262,261,ls),
(257,261,o),
(257,266,qs),
(257,300,l),
(224,253,o)
);
},
{
closed = 1;
nodes = (
(256,360,o),
(256,404,qs),
(256,450,o),
(211,500,o),
(170,500,qs),
(131,500,o),
(84,448,o),
(84,404,qs),
(84,363,o),
(130,310,o),
(167,310,qs),
(209,310,o)
);
}
);
userData = {
assembly = "NPUSHB[ ]	/* 12 values pushed */
12 1 5 1 6 1 0 3 0 4 2 76 
MPPEM[ ]	/* MeasurePixelPerEm */
PUSHB[ ]	/* 1 value pushed */
33 
LT[ ]	/* LessThan */
IF[ ]	/* If */
NPUSHB[ ]	/* 32 values pushed */
0 0 4 3 4 0 3 128 6 1 4 0 3 4 3 101 0 1 1 55 77 0 5 5 2 97 0 2 2 55 5 78 
ELSE[ ]	/* Else */
NPUSHB[ ]	/* 35 values pushed */
0 1 2 5 2 1 5 128 0 0 4 3 4 0 3 128 6 1 4 0 3 4 3 101 0 5 5 2 97 0 2 2 55 5 78 
EIF[ ]	/* EndIf */
NPUSHB[ ]	/* 15 values pushed */
25 24 31 29 24 35 25 35 38 34 52 19 7 10 26 
CALL[ ]	/* CallFunction */";
};
width = 344;
}
);
note = ordfeminine;
unicode = 170;
},
{
glyphname = guillemotleft;
layers = (
{
layerId = m01;
shapes = (
{
closed = 1;
nodes = (
(371,39,o),
(359,39,qs),
(304,39,ls),
(291,39,o),
(284,49,qs),
(187,175,ls),
(180,184,o),
(180,189,qs),
(180,194,o),
(187,203,qs),
(284,328,ls),
(292,338,o),
(304,338,qs),
(359,338,ls),
(371,338,o),
(364,329,qs),
(257,189,l),
(364,48,ls)
);
},
{
closed = 1;
nodes = (
(212,44,o),
(210,39,o),
(205,39,qs),
(151,39,ls),
(137,39,o),
(130,49,qs),
(33,175,ls),
(26,184,o),
(26,189,qs),
(26,194,o),
(33,203,qs),
(130,328,ls),
(138,338,o),
(151,338,qs),
(205,338,ls),
(210,338,o),
(212,332,o),
(209,329,q),
(103,189,l),
(209,48,ls)
);
}
);
userData = {
assembly = "NPUSHB[ ]	/* 26 values pushed */
2 1 0 1 1 0 89 2 1 0 0 1 97 3 1 1 0 1 81 40 53 56 50 4 9 26 
CALL[ ]	/* CallFunction */";
};
width = 389;
}
);
note = guillemotleft;
unicode = 171;
},
{
glyphname = uni00AD;
layers = (
{
layerId = m01;
shapes = (
{
closed = 1;
nodes = (
(37,177,qs),
(37,229,ls),
(37,238,o),
(45,238,qs),
(257,238,ls),
(265,238,o),
(265,229,qs),
(265,177,ls),
(265,168,o),
(257,168,qs),
(45,168,ls),
(37,168,o)
);
}
);
userData = {
assembly = "NPUSHB[ ]	/* 28 values pushed */
0 1 0 0 1 87 0 1 1 0 95 2 1 0 1 0 79 2 0 8 5 0 11 2 11 3 9 22 
CALL[ ]	/* CallFunction */";
};
width = 301;
}
);
note = uni00AD;
unicode = 173;
},
{
glyphname = registered;
layers = (
{
layerId = m01;
shapes = (
{
closed = 1;
nodes = (
(83,494,qs),
(145,563,o),
(252,563,qs),
(345,563,o),
(406,509,qs),
(475,447,o),
(475,340,qs),
(475,246,o),
(421,186,qs),
(359,116,o),
(252,116,qs),
(159,116,o),
(99,170,qs),
(30,232,o),
(30,340,qs),
(30,434,o)
);
},
{
closed = 1;
nodes = (
(376,202,qs),
(431,252,o),
(431,340,qs),
(431,416,o),
(388,464,qs),
(339,521,o),
(252,521,qs),
(177,521,o),
(129,477,qs),
(73,427,o),
(73,340,qs),
(73,264,o),
(116,215,qs),
(165,159,o),
(252,159,qs),
(328,159,o)
);
},
{
closed = 1;
nodes = (
(307,343,o),
(307,384,qs),
(307,422,o),
(256,422,qs),
(209,422,l),
(209,343,l),
(253,343,ls)
);
},
{
closed = 1;
nodes = (
(209,224,o),
(206,224,qs),
(171,224,ls),
(168,224,o),
(168,228,qs),
(168,453,ls),
(168,458,o),
(171,458,qs),
(258,458,ls),
(349,458,o),
(349,384,qs),
(349,330,o),
(298,310,q),
(352,228,ls),
(353,227,o),
(351,224,o),
(349,224,qs),
(315,224,ls),
(308,224,o),
(304,229,q),
(257,306,l),
(209,306,l),
(209,228,ls)
);
}
);
userData = {
assembly = "PUSHB[ ]	/* 2 values pushed */
6 100 
WCVTP[ ]	/* WriteCVTInPixels */
NPUSHB[ ]	/* 96 values pushed */
55 1 4 8 48 1 6 5 61 56 2 7 6 3 76 9 1 7 6 2 6 7 2 128 0 1 0 3 8 1 3 105 0 8 0 4 5 8 4 105 11 1 5 0 6 7 5 6 103 10 1 2 0 0 2 89 10 1 2 2 0 97 0 0 2 0 81 32 32 17 16 59 58 53 51 44 42 40 39 32 38 32 37 35 33 25 23 16 31 17 31 38 35 12 9 24 
CALL[ ]	/* CallFunction */
PUSHB[ ]	/* 2 values pushed */
6 0 
WCVTP[ ]	/* WriteCVTInPixels */";
};
width = 505;
}
);
note = registered;
unicode = 174;
},
{
glyphname = macron;
layers = (
{
layerId = m01;
shapes = (
{
closed = 1;
nodes = (
(0,439,qs),
(0,478,ls),
(0,486,o),
(8,486,qs),
(222,486,ls),
(231,486,o),
(231,478,qs),
(231,439,ls),
(231,431,o),
(222,431,qs),
(8,431,ls),
(0,431,o)
);
}
);
userData = {
assembly = "PUSHB[ ]	/* 2 values pushed */
6 100 
WCVTP[ ]	/* WriteCVTInPixels */
NPUSHB[ ]	/* 28 values pushed */
0 1 0 0 1 87 0 1 1 0 95 2 1 0 1 0 79 2 0 8 5 0 11 2 11 3 9 22 
CALL[ ]	/* CallFunction */
PUSHB[ ]	/* 2 values pushed */
6 0 
WCVTP[ ]	/* WriteCVTInPixels */";
};
width = 231;
}
);
note = macron;
unicode = 175;
},
{
glyphname = degree;
layers = (
{
layerId = m01;
shapes = (
{
closed = 1;
nodes = (
(56,396,qs),
(23,426,o),
(23,475,qs),
(23,518,o),
(49,547,qs),
(78,581,o),
(129,581,qs),
(172,581,o),
(201,555,qs),
(234,525,o),
(234,475,qs),
(234,432,o),
(208,403,qs),
(178,369,o),
(129,369,qs),
(85,369,o)
);
},
{
closed = 1;
nodes = (
(183,449,o),
(183,475,qs),
(183,501,o),
(152,534,o),
(129,534,qs),
(105,534,o),
(74,501,o),
(74,475,qs),
(74,449,o),
(105,414,o),
(129,414,qs),
(152,414,o)
);
}
);
userData = {
assembly = "PUSHB[ ]	/* 2 values pushed */
6 100 
WCVTP[ ]	/* WriteCVTInPixels */
NPUSHB[ ]	/* 46 values pushed */
0 1 0 3 2 1 3 105 5 1 2 0 0 2 89 5 1 2 2 0 97 4 1 0 2 0 81 17 16 1 0 23 21 16 27 17 27 9 7 0 15 1 15 6 9 22 
CALL[ ]	/* CallFunction */
PUSHB[ ]	/* 2 values pushed */
6 0 
WCVTP[ ]	/* WriteCVTInPixels */";
};
width = 257;
}
);
note = degree;
unicode = 176;
},
{
glyphname = plusminus;
layers = (
{
layerId = m01;
shapes = (
{
closed = 1;
nodes = (
(37,267,o),
(37,276,qs),
(37,324,ls),
(37,333,o),
(45,333,qs),
(168,333,l),
(168,470,ls),
(168,479,o),
(176,479,qs),
(208,479,o),
(235,451,o),
(235,418,qs),
(235,333,l),
(358,333,ls),
(366,333,o),
(366,324,qs),
(366,276,ls),
(366,267,o),
(358,267,qs),
(235,267,l),
(235,130,ls),
(235,122,o),
(227,122,qs),
(176,122,ls),
(168,122,o),
(168,130,qs),
(168,267,l),
(45,267,ls)
);
},
{
closed = 1;
nodes = (
(37,9,qs),
(37,57,ls),
(37,66,o),
(45,66,qs),
(315,66,ls),
(366,66,o),
(366,18,qs),
(366,9,ls),
(366,0,o),
(358,0,qs),
(45,0,ls),
(37,0,o)
);
}
);
userData = {
assembly = "NPUSHB[ ]	/* 53 values pushed */
4 1 2 8 5 2 1 0 2 1 103 0 3 0 0 7 3 0 105 0 7 7 6 95 9 1 6 6 40 6 78 30 28 0 0 36 33 28 39 30 39 0 27 0 26 34 35 35 34 50 10 9 27 
CALL[ ]	/* CallFunction */";
};
width = 403;
}
);
note = plusminus;
unicode = 177;
},
{
glyphname = twosuperior;
layers = (
{
layerId = m01;
shapes = (
{
closed = 1;
nodes = (
(269,286,o),
(269,254,qs),
(269,238,ls),
(269,233,o),
(261,233,qs),
(39,233,ls),
(34,233,o),
(34,238,qs),
(34,292,o),
(63,330,qs),
(83,354,o),
(127,381,qs),
(176,412,o),
(203,441,o),
(203,464,qs),
(203,510,o),
(141,510,qs),
(99,510,o),
(59,484,qs),
(50,478,o),
(47,487,qs),
(40,503,ls),
(31,526,o),
(59,543,qs),
(94,563,o),
(144,563,qs),
(199,563,o),
(266,512,o),
(266,471,qs),
(266,438,o),
(230,386,o),
(186,357,qs),
(135,324,o),
(113,303,o),
(107,286,q),
(231,286,ls)
);
}
);
userData = {
assembly = "NPUSHB[ ]	/* 40 values pushed */
27 1 2 3 1 76 0 1 1 0 97 0 0 0 55 77 4 1 3 3 2 95 0 2 2 56 2 78 0 0 0 35 0 34 42 39 40 5 10 25 
CALL[ ]	/* CallFunction */";
};
width = 296;
}
);
note = twosuperior;
unicode = 178;
},
{
glyphname = threesuperior;
layers = (
{
layerId = m01;
shapes = (
{
closed = 1;
nodes = (
(277,324,qs),
(277,284,o),
(248,258,qs),
(215,227,o),
(154,227,qs),
(107,227,o),
(35,278,o),
(35,312,qs),
(35,325,o),
(44,325,qs),
(48,325,o),
(53,319,qs),
(88,278,o),
(148,278,qs),
(217,278,o),
(217,326,qs),
(217,374,o),
(146,374,qs),
(118,374,ls),
(87,374,o),
(87,398,qs),
(87,419,ls),
(87,426,o),
(93,426,qs),
(146,426,ls),
(207,426,o),
(207,472,qs),
(207,512,o),
(143,512,qs),
(101,512,o),
(63,486,qs),
(54,481,o),
(49,491,qs),
(42,507,ls),
(32,530,o),
(63,544,qs),
(103,563,o),
(147,563,qs),
(203,563,o),
(266,519,o),
(266,479,qs),
(266,423,o),
(213,403,q),
(277,383,o)
);
}
);
userData = {
assembly = "NPUSHB[ ]	/* 53 values pushed */
21 1 3 2 1 76 0 5 3 4 3 5 4 128 0 2 0 3 5 2 3 105 0 1 1 0 97 0 0 0 55 77 0 4 4 6 97 0 6 6 56 6 78 35 34 34 52 34 39 36 7 10 29 
CALL[ ]	/* CallFunction */";
};
width = 305;
}
);
note = threesuperior;
unicode = 179;
},
{
glyphname = acute;
layers = (
{
layerId = m01;
shapes = (
{
closed = 1;
nodes = (
(89,516,o),
(101,516,qs),
(167,516,ls),
(171,516,o),
(174,509,o),
(171,507,qs),
(89,441,ls),
(77,430,o),
(61,430,qs),
(8,430,ls),
(4,430,o),
(1,437,o),
(4,439,q),
(77,506,ls)
);
}
);
userData = {
assembly = "PUSHB[ ]	/* 2 values pushed */
6 100 
WCVTP[ ]	/* WriteCVTInPixels */
NPUSHB[ ]	/* 21 values pushed */
7 0 2 0 1 1 76 0 1 0 1 133 0 0 0 118 52 50 2 9 24 
CALL[ ]	/* CallFunction */
PUSHB[ ]	/* 2 values pushed */
6 0 
WCVTP[ ]	/* WriteCVTInPixels */";
};
width = 173;
}
);
note = acute;
unicode = 180;
},
{
glyphname = paragraph;
layers = (
{
layerId = m01;
shapes = (
{
closed = 1;
nodes = (
(136,221,o),
(89,261,qs),
(36,309,o),
(36,391,qs),
(36,462,o),
(75,504,qs),
(124,556,o),
(227,556,qs),
(298,556,ls),
(372,556,o),
(372,478,qs),
(372,8,ls),
(372,0,o),
(364,0,qs),
(330,0,ls),
(323,0,o),
(323,8,qs),
(323,504,l),
(260,504,l),
(260,8,ls),
(260,0,o),
(252,0,qs),
(218,0,ls),
(211,0,o),
(211,8,qs),
(211,221,l),
(207,221,ls)
);
}
);
userData = {
assembly = "NPUSHB[ ]	/* 33 values pushed */
0 4 1 0 1 4 0 128 0 1 1 3 95 0 3 3 39 77 2 1 0 0 40 0 78 22 51 50 18 50 5 9 27 
CALL[ ]	/* CallFunction */";
};
width = 434;
}
);
note = paragraph;
unicode = 182;
},
{
glyphname = periodcentered;
layers = (
{
layerId = m01;
shapes = (
{
closed = 1;
nodes = (
(132,302,o),
(132,279,qs),
(132,256,o),
(100,224,o),
(78,224,qs),
(56,224,o),
(24,256,o),
(24,279,qs),
(24,301,o),
(56,334,o),
(78,334,qs),
(100,334,o)
);
}
);
userData = {
assembly = "NPUSHB[ ]	/* 29 values pushed */
2 1 0 1 1 0 89 2 1 0 0 1 97 0 1 0 1 81 1 0 7 5 0 11 1 11 3 9 22 
CALL[ ]	/* CallFunction */";
};
width = 156;
}
);
note = periodcentered;
unicode = 183;
},
{
glyphname = cedilla;
layers = (
{
layerId = m01;
shapes = (
{
closed = 1;
nodes = (
(65,5,o),
(85,5,qs),
(120,5,ls),
(128,5,o),
(125,-3,q),
(83,-87,ls),
(77,-98,o),
(59,-98,qs),
(9,-98,ls),
(0,-98,o),
(5,-89,qs),
(59,-6,ls)
);
}
);
userData = {
assembly = "PUSHB[ ]	/* 2 values pushed */
6 100 
WCVTP[ ]	/* WriteCVTInPixels */
NPUSHB[ ]	/* 21 values pushed */
0 1 0 0 1 89 0 1 1 0 97 0 0 1 0 81 51 49 2 9 24 
CALL[ ]	/* CallFunction */
PUSHB[ ]	/* 2 values pushed */
6 0 
WCVTP[ ]	/* WriteCVTInPixels */";
};
width = 121;
}
);
note = cedilla;
unicode = 184;
},
{
glyphname = onesuperior;
layers = (
{
layerId = m01;
shapes = (
{
closed = 1;
nodes = (
(31,474,o),
(31,481,qs),
(31,527,ls),
(31,536,o),
(39,539,qs),
(74,551,ls),
(92,556,o),
(104,556,qs),
(129,556,ls),
(159,556,o),
(159,523,qs),
(159,241,ls),
(159,233,o),
(152,233,qs),
(104,233,ls),
(96,233,o),
(96,241,qs),
(96,497,l),
(37,476,ls)
);
}
);
userData = {
assembly = "NPUSHB[ ]	/* 22 values pushed */
0 1 0 1 1 76 0 1 1 55 77 0 0 0 56 0 78 51 50 2 10 24 
CALL[ ]	/* CallFunction */";
};
width = 209;
}
);
note = onesuperior;
unicode = 185;
},
{
glyphname = ordmasculine;
layers = (
{
layerId = m01;
shapes = (
{
closed = 1;
nodes = (
(65,290,qs),
(18,333,o),
(18,407,qs),
(18,471,o),
(54,512,qs),
(95,558,o),
(167,558,qs),
(232,558,o),
(272,522,qs),
(319,481,o),
(319,407,qs),
(319,343,o),
(283,302,qs),
(242,253,o),
(168,253,qs),
(106,253,o)
);
},
{
closed = 1;
nodes = (
(254,363,o),
(254,407,qs),
(254,449,o),
(207,500,o),
(168,500,qs),
(128,500,o),
(84,450,o),
(84,407,qs),
(84,363,o),
(129,312,o),
(167,312,qs),
(207,312,o)
);
}
);
userData = {
assembly = "NPUSHB[ ]	/* 39 values pushed */
5 1 2 4 1 0 2 0 101 0 3 3 1 97 0 1 1 55 3 78 17 16 1 0 23 21 16 27 17 27 9 7 0 15 1 15 6 10 22 
CALL[ ]	/* CallFunction */";
};
width = 337;
}
);
note = ordmasculine;
unicode = 186;
},
{
glyphname = guillemotright;
layers = (
{
layerId = m01;
shapes = (
{
closed = 1;
nodes = (
(24,332,o),
(26,338,o),
(30,338,qs),
(86,338,ls),
(98,338,o),
(106,328,qs),
(203,203,ls),
(210,194,o),
(210,189,qs),
(210,184,o),
(203,175,qs),
(106,49,ls),
(99,39,o),
(86,39,qs),
(30,39,ls),
(26,39,o),
(24,44,o),
(26,48,q),
(134,189,l),
(26,329,ls)
);
},
{
closed = 1;
nodes = (
(173,338,o),
(184,338,qs),
(239,338,ls),
(252,338,o),
(260,328,qs),
(357,203,ls),
(364,193,o),
(364,189,qs),
(364,184,o),
(357,175,qs),
(260,49,ls),
(252,39,o),
(239,39,qs),
(184,39,ls),
(173,39,o),
(180,48,qs),
(286,189,l),
(180,329,ls)
);
}
);
userData = {
assembly = "NPUSHB[ ]	/* 32 values pushed */
1 1 0 1 1 76 3 1 1 0 0 1 89 3 1 1 1 0 97 2 1 0 1 0 81 56 54 40 51 4 9 26 
CALL[ ]	/* CallFunction */";
};
width = 389;
}
);
note = guillemotright;
unicode = 187;
},
{
glyphname = onequarter;
layers = (
{
layerId = m01;
shapes = (
{
closed = 1;
nodes = (
(348,73,o),
(348,79,qs),
(348,106,ls),
(348,116,o),
(354,123,q),
(487,312,ls),
(494,323,o),
(507,323,qs),
(543,323,ls),
(573,323,o),
(573,295,qs),
(573,124,l),
(595,124,ls),
(623,124,o),
(623,98,qs),
(623,79,ls),
(623,73,o),
(615,73,qs),
(573,73,l),
(573,6,ls),
(573,0,o),
(567,0,qs),
(518,0,ls),
(512,0,o),
(512,6,qs),
(512,73,l),
(354,73,ls)
);
},
{
closed = 1;
nodes = (
(124,9,q),
(419,547,ls),
(424,556,o),
(432,556,qs),
(441,556,ls),
(465,556,o),
(477,522,o),
(463,496,qs),
(196,9,l),
(192,0,o),
(184,0,qs),
(128,0,ls),
(118,0,o)
);
},
{
closed = 1;
nodes = (
(31,474,o),
(31,481,qs),
(31,527,ls),
(31,536,o),
(39,539,qs),
(74,551,ls),
(92,556,o),
(104,556,qs),
(129,556,ls),
(159,556,o),
(159,523,qs),
(159,241,ls),
(159,233,o),
(152,233,qs),
(104,233,ls),
(96,233,o),
(96,241,qs),
(96,497,l),
(37,476,ls)
);
},
{
closed = 1;
nodes = (
(512,267,l),
(412,124,l),
(512,124,l)
);
}
);
userData = {
assembly = "PUSHB[ ]	/* 2 values pushed */
6 100 
WCVTP[ ]	/* WriteCVTInPixels */
NPUSHB[ ]	/* 19 values pushed */
40 1 3 6 60 1 7 3 24 1 1 2 6 1 2 0 1 4 76 
MPPEM[ ]	/* MeasurePixelPerEm */
PUSHB[ ]	/* 1 value pushed */
14 
LT[ ]	/* LessThan */
IF[ ]	/* If */
NPUSHB[ ]	/* 47 values pushed */
0 3 6 7 6 3 7 128 11 5 2 0 1 1 0 113 8 1 6 0 7 2 6 7 105 12 9 2 2 1 1 2 89 12 9 2 2 2 1 98 10 4 2 1 2 1 82 
ELSE[ ]	/* Else */
NPUSHB[ ]	/* 46 values pushed */
0 3 6 7 6 3 7 128 11 5 2 0 1 0 134 8 1 6 0 7 2 6 7 105 12 9 2 2 1 1 2 89 12 9 2 2 2 1 98 10 4 2 1 2 1 82 
EIF[ ]	/* EndIf */
NPUSHB[ ]	/* 31 values pushed */
59 59 29 27 0 0 59 61 59 61 51 48 45 42 36 33 27 39 29 39 0 26 0 26 50 35 35 19 13 9 26 
CALL[ ]	/* CallFunction */
PUSHB[ ]	/* 2 values pushed */
6 0 
WCVTP[ ]	/* WriteCVTInPixels */";
};
width = 656;
}
);
note = onequarter;
unicode = 188;
},
{
glyphname = onehalf;
layers = (
{
layerId = m01;
shapes = (
{
closed = 1;
nodes = (
(31,474,o),
(31,481,qs),
(31,527,ls),
(31,536,o),
(39,539,qs),
(74,551,ls),
(92,556,o),
(104,556,qs),
(129,556,ls),
(159,556,o),
(159,523,qs),
(159,241,ls),
(159,233,o),
(152,233,qs),
(104,233,ls),
(96,233,o),
(96,241,qs),
(96,497,l),
(37,476,ls)
);
},
{
closed = 1;
nodes = (
(654,54,o),
(654,22,qs),
(654,6,ls),
(654,0,o),
(648,0,qs),
(425,0,ls),
(420,0,o),
(420,6,qs),
(420,60,o),
(449,97,qs),
(469,122,o),
(513,149,qs),
(562,179,o),
(589,208,o),
(589,232,qs),
(589,277,o),
(527,277,qs),
(485,277,o),
(445,252,q),
(437,245,o),
(433,254,qs),
(426,271,ls),
(416,293,o),
(445,310,qs),
(481,331,o),
(530,331,qs),
(585,331,o),
(653,280,o),
(653,238,qs),
(653,205,o),
(616,153,o),
(573,125,qs),
(522,92,o),
(498,71,o),
(493,54,q),
(617,54,ls)
);
},
{
closed = 1;
nodes = (
(124,9,q),
(419,547,ls),
(424,556,o),
(432,556,qs),
(441,556,ls),
(465,556,o),
(477,522,o),
(463,496,qs),
(196,9,l),
(192,0,o),
(184,0,qs),
(128,0,ls),
(118,0,o)
);
}
);
userData = {
assembly = "PUSHB[ ]	/* 2 values pushed */
6 100 
WCVTP[ ]	/* WriteCVTInPixels */
NPUSHB[ ]	/* 73 values pushed */
0 1 2 1 51 46 2 4 5 2 76 0 2 0 3 0 2 3 105 7 1 1 0 0 5 1 0 105 8 1 5 4 4 5 87 8 1 5 5 4 98 9 6 2 4 5 4 82 57 55 19 19 64 61 55 67 57 67 19 54 19 53 49 48 38 36 29 27 51 50 10 9 24 
CALL[ ]	/* CallFunction */
PUSHB[ ]	/* 2 values pushed */
6 0 
WCVTP[ ]	/* WriteCVTInPixels */";
};
width = 713;
}
);
note = onehalf;
unicode = 189;
},
{
glyphname = threequarters;
layers = (
{
layerId = m01;
shapes = (
{
closed = 1;
nodes = (
(425,73,o),
(425,79,qs),
(425,106,ls),
(425,116,o),
(431,123,q),
(563,312,ls),
(571,323,o),
(584,323,qs),
(619,323,ls),
(649,323,o),
(649,295,qs),
(649,124,l),
(671,124,ls),
(699,124,o),
(699,98,qs),
(699,79,ls),
(699,73,o),
(692,73,qs),
(649,73,l),
(649,6,ls),
(649,0,o),
(643,0,qs),
(594,0,ls),
(589,0,o),
(589,6,qs),
(589,73,l),
(431,73,ls)
);
},
{
closed = 1;
nodes = (
(200,9,qs),
(496,547,l),
(500,556,o),
(508,556,qs),
(517,556,ls),
(541,556,o),
(553,522,o),
(539,496,qs),
(273,9,ls),
(268,0,o),
(261,0,qs),
(204,0,ls),
(195,0,o)
);
},
{
closed = 1;
nodes = (
(589,267,l),
(488,124,l),
(589,124,l)
);
},
{
closed = 1;
nodes = (
(277,324,qs),
(277,284,o),
(248,258,qs),
(215,227,o),
(154,227,qs),
(107,227,o),
(35,278,o),
(35,312,qs),
(35,325,o),
(44,325,qs),
(48,325,o),
(53,319,qs),
(88,278,o),
(148,278,qs),
(217,278,o),
(217,326,qs),
(217,374,o),
(146,374,qs),
(118,374,ls),
(87,374,o),
(87,398,qs),
(87,419,ls),
(87,426,o),
(93,426,qs),
(146,426,ls),
(207,426,o),
(207,472,qs),
(207,512,o),
(143,512,qs),
(101,512,o),
(63,486,qs),
(54,481,o),
(49,491,qs),
(42,507,ls),
(32,530,o),
(63,544,qs),
(103,563,o),
(147,563,qs),
(203,563,o),
(266,519,o),
(266,479,qs),
(266,423,o),
(213,403,q),
(277,383,o)
);
}
);
userData = {
assembly = "PUSHB[ ]	/* 2 values pushed */
6 100 
WCVTP[ ]	/* WriteCVTInPixels */
NPUSHB[ ]	/* 19 values pushed */
64 1 11 10 41 1 14 12 24 1 1 2 6 1 2 0 1 4 76 
MPPEM[ ]	/* MeasurePixelPerEm */
PUSHB[ ]	/* 1 value pushed */
14 
LT[ ]	/* LessThan */
IF[ ]	/* If */
NPUSHB[ ]	/* 64 values pushed */
13 1 3 11 12 11 3 12 128 16 5 2 0 1 1 0 113 8 1 6 0 9 10 6 9 105 0 10 0 11 3 10 11 105 0 12 0 14 2 12 14 105 17 7 2 2 1 1 2 89 17 7 2 2 2 1 98 15 4 2 1 2 1 82 
ELSE[ ]	/* Else */
MPPEM[ ]	/* MeasurePixelPerEm */
PUSHB[ ]	/* 1 value pushed */
27 
LT[ ]	/* LessThan */
IF[ ]	/* If */
NPUSHB[ ]	/* 63 values pushed */
13 1 3 11 12 11 3 12 128 16 5 2 0 1 0 134 8 1 6 0 9 10 6 9 105 0 10 0 11 3 10 11 105 0 12 0 14 2 12 14 105 17 7 2 2 1 1 2 89 17 7 2 2 2 1 98 15 4 2 1 2 1 82 
ELSE[ ]	/* Else */
NPUSHB[ ]	/* 70 values pushed */
0 6 8 9 8 6 9 128 13 1 3 11 12 11 3 12 128 16 5 2 0 1 0 134 0 8 0 9 10 8 9 105 0 10 0 11 3 10 11 105 0 12 0 14 2 12 14 105 17 7 2 2 1 1 2 89 17 7 2 2 2 1 98 15 4 2 1 2 1 82 
EIF[ ]	/* EndIf */
EIF[ ]	/* EndIf */
NPUSHB[ ]	/* 41 values pushed */
40 40 29 27 0 0 82 80 77 75 73 71 69 66 62 60 58 56 49 47 40 42 40 42 36 33 27 39 29 39 0 26 0 26 50 35 35 19 18 9 26 
CALL[ ]	/* CallFunction */
PUSHB[ ]	/* 2 values pushed */
6 0 
WCVTP[ ]	/* WriteCVTInPixels */";
};
width = 729;
}
);
note = threequarters;
unicode = 190;
},
{
glyphname = questiondown;
layers = (
{
layerId = m01;
shapes = (
{
closed = 1;
nodes = (
(144,300,o),
(144,322,qs),
(144,345,o),
(177,377,o),
(199,377,qs),
(221,377,o),
(252,345,o),
(252,322,qs),
(252,299,o),
(221,267,o),
(199,267,qs),
(177,267,o)
);
},
{
closed = 1;
nodes = (
(47,50,qs),
(71,82,o),
(147,141,qs),
(166,157,o),
(166,180,qs),
(166,207,ls),
(166,215,o),
(174,215,qs),
(187,215,ls),
(205,215,o),
(230,191,o),
(230,173,qs),
(230,147,o),
(216,124,qs),
(203,104,o),
(166,75,qs),
(119,37,o),
(88,-8,o),
(88,-40,qs),
(88,-82,o),
(143,-130,o),
(190,-130,qs),
(261,-130,o),
(322,-91,qs),
(330,-86,o),
(335,-86,qs),
(341,-86,o),
(343,-93,qs),
(357,-137,ls),
(360,-146,o),
(352,-151,qs),
(274,-200,o),
(190,-200,qs),
(113,-200,o),
(66,-166,qs),
(11,-125,o),
(11,-47,qs),
(11,5,o)
);
}
);
userData = {
assembly = "NPUSHB[ ]	/* 53 values pushed */
0 5 0 3 0 5 3 128 0 3 4 0 3 4 126 0 4 0 2 4 2 102 6 1 0 0 1 97 0 1 1 48 0 78 1 0 42 39 28 26 24 22 17 15 7 5 0 11 1 11 7 9 22 
CALL[ ]	/* CallFunction */";
};
width = 335;
}
);
note = questiondown;
unicode = 191;
},
{
glyphname = Agrave;
kernLeft = A;
kernRight = A;
layers = (
{
layerId = m01;
shapes = (
{
closed = 1;
nodes = (
(255,463,l),
(167,221,l),
(344,221,l)
);
},
{
closed = 1;
nodes = (
(89,0,o),
(78,0,qs),
(19,0,ls),
(9,0,o),
(13,9,qs),
(215,547,ls),
(218,556,o),
(226,556,qs),
(245,556,ls),
(275,556,o),
(306,532,o),
(318,500,qs),
(503,9,ls),
(506,0,o),
(496,0,qs),
(437,0,ls),
(424,0,o),
(419,12,qs),
(368,153,l),
(143,153,l),
(93,12,ls)
);
},
{
closed = 1;
nodes = (
(331,608,o),
(326,608,qs),
(274,608,ls),
(258,608,o),
(245,619,qs),
(163,684,ls),
(160,687,o),
(163,693,o),
(167,693,qs),
(232,693,ls),
(246,693,o),
(257,683,qs),
(330,617,l),
(333,615,o)
);
}
);
userData = {
assembly = "NPUSHB[ ]	/* 58 values pushed */
1 1 0 3 1 76 0 5 6 5 133 0 6 3 6 133 7 1 0 0 1 2 0 1 104 0 3 3 39 77 4 1 2 2 40 2 78 0 0 35 33 28 26 22 19 16 13 9 6 4 3 0 2 0 2 8 9 22 
CALL[ ]	/* CallFunction */";
};
width = 510;
}
);
note = Agrave;
unicode = 192;
},
{
glyphname = Aacute;
kernLeft = A;
kernRight = A;
layers = (
{
layerId = m01;
shapes = (
{
closed = 1;
nodes = (
(255,463,l),
(167,221,l),
(344,221,l)
);
},
{
closed = 1;
nodes = (
(89,0,o),
(78,0,qs),
(19,0,ls),
(9,0,o),
(13,9,qs),
(215,547,ls),
(218,556,o),
(226,556,qs),
(245,556,ls),
(275,556,o),
(306,532,o),
(318,500,qs),
(503,9,ls),
(506,0,o),
(496,0,qs),
(437,0,ls),
(424,0,o),
(419,12,qs),
(368,153,l),
(143,153,l),
(93,12,ls)
);
},
{
closed = 1;
nodes = (
(261,693,o),
(273,693,qs),
(339,693,ls),
(343,693,o),
(346,687,o),
(343,684,qs),
(262,619,ls),
(249,608,o),
(233,608,qs),
(180,608,ls),
(176,608,o),
(173,614,o),
(176,617,qs),
(249,683,ls)
);
}
);
userData = {
assembly = "NPUSHB[ ]	/* 63 values pushed */
31 24 2 5 6 1 1 0 3 2 76 0 6 5 6 133 0 5 3 5 133 7 1 0 0 1 2 0 1 104 0 3 3 39 77 4 1 2 2 40 2 78 0 0 36 33 29 26 22 19 16 13 9 6 4 3 0 2 0 2 8 9 22 
CALL[ ]	/* CallFunction */";
};
width = 510;
}
);
note = Aacute;
unicode = 193;
},
{
glyphname = Acircumflex;
kernLeft = A;
kernRight = A;
layers = (
{
layerId = m01;
shapes = (
{
closed = 1;
nodes = (
(255,463,l),
(167,221,l),
(344,221,l)
);
},
{
closed = 1;
nodes = (
(89,0,o),
(78,0,qs),
(19,0,ls),
(9,0,o),
(13,9,qs),
(215,547,ls),
(218,556,o),
(226,556,qs),
(245,556,ls),
(275,556,o),
(306,532,o),
(318,500,qs),
(503,9,ls),
(506,0,o),
(496,0,qs),
(437,0,ls),
(424,0,o),
(419,12,qs),
(368,153,l),
(143,153,l),
(93,12,ls)
);
},
{
closed = 1;
nodes = (
(205,608,o),
(187,608,qs),
(140,608,ls),
(136,608,o),
(133,614,o),
(136,617,qs),
(204,683,ls),
(214,693,o),
(229,693,qs),
(283,693,ls),
(297,693,o),
(307,683,qs),
(377,617,l),
(379,614,o),
(376,608,o),
(373,608,qs),
(326,608,ls),
(309,608,o),
(297,620,qs),
(256,663,l),
(215,620,ls)
);
}
);
userData = {
assembly = "NPUSHB[ ]	/* 65 values pushed */
38 1 5 6 1 1 0 3 2 76 0 6 5 6 133 7 1 5 3 5 133 8 1 0 0 1 2 0 1 104 0 3 3 39 77 4 1 2 2 40 2 78 0 0 43 40 36 33 28 26 22 19 16 13 9 6 4 3 0 2 0 2 9 9 22 
CALL[ ]	/* CallFunction */";
};
width = 510;
}
);
note = Acircumflex;
unicode = 194;
},
{
glyphname = Atilde;
kernLeft = A;
kernRight = A;
layers = (
{
layerId = m01;
shapes = (
{
closed = 1;
nodes = (
(255,463,l),
(167,221,l),
(344,221,l)
);
},
{
closed = 1;
nodes = (
(89,0,o),
(78,0,qs),
(19,0,ls),
(9,0,o),
(13,9,qs),
(215,547,ls),
(218,556,o),
(226,556,qs),
(245,556,ls),
(275,556,o),
(306,532,o),
(318,500,qs),
(503,9,ls),
(506,0,o),
(496,0,qs),
(437,0,ls),
(424,0,o),
(419,12,qs),
(368,153,l),
(143,153,l),
(93,12,ls)
);
},
{
closed = 1;
nodes = (
(302,608,qs),
(283,608,o),
(247,623,qs),
(217,636,o),
(206,636,qs),
(190,636,o),
(186,617,qs),
(184,607,o),
(177,607,qs),
(142,607,ls),
(134,607,o),
(134,616,qs),
(139,691,o),
(196,691,qs),
(217,691,o),
(255,675,qs),
(285,662,o),
(297,662,qs),
(313,662,o),
(317,679,qs),
(320,689,o),
(328,689,qs),
(363,689,ls),
(371,689,o),
(371,681,q),
(363,608,o)
);
}
);
userData = {
assembly = "NPUSHB[ ]	/* 10 values pushed */
24 1 6 5 1 1 0 3 2 76 
MPPEM[ ]	/* MeasurePixelPerEm */
PUSHB[ ]	/* 1 value pushed */
35 
LT[ ]	/* LessThan */
IF[ ]	/* If */
NPUSHB[ ]	/* 44 values pushed */
0 6 5 9 5 6 114 0 9 8 8 9 112 7 1 5 10 1 8 3 5 8 105 11 1 0 0 1 2 0 1 104 0 3 3 39 77 4 1 2 2 40 2 78 
ELSE[ ]	/* Else */
MPPEM[ ]	/* MeasurePixelPerEm */
PUSHB[ ]	/* 1 value pushed */
37 
LT[ ]	/* LessThan */
IF[ ]	/* If */
NPUSHB[ ]	/* 45 values pushed */
0 6 5 9 5 6 114 0 9 8 5 9 8 126 7 1 5 10 1 8 3 5 8 105 11 1 0 0 1 2 0 1 104 0 3 3 39 77 4 1 2 2 40 2 78 
ELSE[ ]	/* Else */
NPUSHB[ ]	/* 46 values pushed */
0 6 5 9 5 6 9 128 0 9 8 5 9 8 126 7 1 5 10 1 8 3 5 8 105 11 1 0 0 1 2 0 1 104 0 3 3 39 77 4 1 2 2 40 2 78 
EIF[ ]	/* EndIf */
EIF[ ]	/* EndIf */
NPUSHB[ ]	/* 29 values pushed */
0 0 49 47 45 43 41 38 36 34 32 30 28 25 22 19 16 13 9 6 4 3 0 2 0 2 12 9 22 
CALL[ ]	/* CallFunction */";
};
width = 510;
}
);
note = Atilde;
unicode = 195;
},
{
glyphname = Adieresis;
kernLeft = A;
kernRight = A;
layers = (
{
layerId = m01;
shapes = (
{
closed = 1;
nodes = (
(255,463,l),
(167,221,l),
(344,221,l)
);
},
{
closed = 1;
nodes = (
(89,0,o),
(78,0,qs),
(19,0,ls),
(9,0,o),
(13,9,qs),
(215,547,ls),
(218,556,o),
(226,556,qs),
(245,556,ls),
(275,556,o),
(306,532,o),
(318,500,qs),
(503,9,ls),
(506,0,o),
(496,0,qs),
(437,0,ls),
(424,0,o),
(419,12,qs),
(368,153,l),
(143,153,l),
(93,12,ls)
);
},
{
closed = 1;
nodes = (
(166,691,o),
(185,691,qs),
(204,691,o),
(230,664,o),
(230,645,qs),
(230,626,o),
(204,600,o),
(185,600,qs),
(166,600,o),
(140,626,o),
(140,645,qs),
(140,664,o)
);
},
{
closed = 1;
nodes = (
(303,691,o),
(322,691,qs),
(340,691,o),
(366,664,o),
(366,645,qs),
(366,626,o),
(340,600,o),
(322,600,qs),
(303,600,o),
(277,626,o),
(277,645,qs),
(277,664,o)
);
}
);
userData = {
assembly = "NPUSHB[ ]	/* 62 values pushed */
1 1 0 3 1 76 8 1 6 7 1 5 3 6 5 105 9 1 0 0 1 2 0 1 104 0 3 3 39 77 4 1 2 2 40 2 78 0 0 46 44 40 38 34 32 28 26 22 19 16 13 9 6 4 3 0 2 0 2 10 9 22 
CALL[ ]	/* CallFunction */";
};
width = 510;
}
);
note = Adieresis;
unicode = 196;
},
{
glyphname = Aring;
kernLeft = A;
kernRight = A;
layers = (
{
layerId = m01;
shapes = (
{
closed = 1;
nodes = (
(255,463,l),
(167,221,l),
(344,221,l)
);
},
{
closed = 1;
nodes = (
(89,0,o),
(78,0,qs),
(19,0,ls),
(9,0,o),
(13,9,qs),
(215,547,ls),
(218,556,o),
(226,556,qs),
(245,556,ls),
(275,556,o),
(306,532,o),
(318,500,qs),
(503,9,ls),
(506,0,o),
(496,0,qs),
(437,0,ls),
(424,0,o),
(419,12,qs),
(368,153,l),
(143,153,l),
(93,12,ls)
);
},
{
closed = 1;
nodes = (
(225,737,o),
(255,737,qs),
(284,737,o),
(325,696,o),
(325,667,qs),
(325,638,o),
(284,597,o),
(255,597,qs),
(225,597,o),
(184,638,o),
(184,667,qs),
(184,696,o)
);
},
{
closed = 1;
nodes = (
(288,652,o),
(288,667,qs),
(288,682,o),
(269,702,o),
(255,702,qs),
(241,702,o),
(222,682,o),
(222,667,qs),
(222,652,o),
(241,633,o),
(255,633,qs),
(269,633,o)
);
}
);
userData = {
assembly = "NPUSHB[ ]	/* 73 values pushed */
1 1 0 3 1 76 0 6 0 8 7 6 8 105 10 1 7 0 5 3 7 5 105 9 1 0 0 1 2 0 1 104 0 3 3 39 77 4 1 2 2 40 2 78 37 36 0 0 43 41 36 47 37 47 34 32 28 26 22 19 16 13 9 6 4 3 0 2 0 2 11 9 22 
CALL[ ]	/* CallFunction */";
};
width = 510;
}
);
note = Aring;
unicode = 197;
},
{
glyphname = AE;
kernRight = E;
layers = (
{
layerId = m01;
shapes = (
{
closed = 1;
nodes = (
(86,0,o),
(73,0,qs),
(12,0,ls),
(2,0,o),
(7,9,qs),
(298,547,ls),
(303,556,o),
(314,556,qs),
(607,556,ls),
(652,556,o),
(652,513,qs),
(652,496,ls),
(652,485,o),
(641,485,qs),
(420,485,l),
(420,312,l),
(588,312,ls),
(634,312,o),
(634,268,qs),
(634,252,ls),
(634,242,o),
(622,242,qs),
(420,242,l),
(420,71,l),
(616,71,ls),
(662,71,o),
(662,27,qs),
(662,11,ls),
(662,0,o),
(650,0,qs),
(351,0,ls),
(343,0,o),
(343,9,qs),
(343,153,l),
(166,153,l),
(92,12,ls)
);
},
{
closed = 1;
nodes = (
(343,486,l),
(202,221,l),
(343,221,l)
);
}
);
userData = {
assembly = "NPUSHB[ ]	/* 62 values pushed */
37 1 5 6 1 76 0 4 0 3 8 4 3 103 9 1 8 0 0 2 8 0 103 0 5 5 6 95 0 6 6 39 77 0 2 2 1 95 7 1 1 1 40 1 78 36 36 36 38 36 38 51 51 33 35 33 35 50 16 10 9 30 
CALL[ ]	/* CallFunction */";
};
width = 688;
}
);
note = AE;
unicode = 198;
},
{
glyphname = Ccedilla;
kernLeft = C;
kernRight = C;
layers = (
{
layerId = m01;
shapes = (
{
closed = 1;
nodes = (
(286,-104,o),
(268,-104,qs),
(218,-104,ls),
(209,-104,o),
(214,-96,qs),
(269,-9,l),
(176,1,o),
(118,67,qs),
(50,145,o),
(50,277,qs),
(50,401,o),
(114,479,qs),
(186,567,o),
(309,567,qs),
(371,567,o),
(439,538,qs),
(487,516,o),
(477,477,qs),
(472,456,ls),
(470,446,o),
(462,446,qs),
(458,446,o),
(448,452,qs),
(382,495,o),
(309,495,qs),
(231,495,o),
(183,445,qs),
(128,388,o),
(128,276,qs),
(128,180,o),
(171,124,qs),
(219,61,o),
(311,61,qs),
(405,61,o),
(462,132,qs),
(470,142,o),
(477,142,qs),
(491,142,o),
(491,122,qs),
(491,88,o),
(460,53,qs),
(415,0,o),
(333,-9,q),
(292,-92,ls)
);
}
);
userData = {
assembly = "PUSHB[ ]	/* 6 values pushed */
37 1 5 1 1 76 
MPPEM[ ]	/* MeasurePixelPerEm */
PUSHB[ ]	/* 1 value pushed */
35 
LT[ ]	/* LessThan */
IF[ ]	/* If */
NPUSHB[ ]	/* 33 values pushed */
0 3 2 0 2 3 0 128 0 0 1 2 0 1 126 0 1 0 5 1 5 101 0 2 2 4 97 0 4 4 39 2 78 
ELSE[ ]	/* Else */
NPUSHB[ ]	/* 39 values pushed */
0 3 2 0 2 3 0 128 0 0 1 2 0 1 126 0 4 0 2 3 4 2 105 0 1 5 5 1 89 0 1 1 5 97 0 5 1 5 81 
EIF[ ]	/* EndIf */
NPUSHB[ ]	/* 9 values pushed */
57 37 34 38 34 37 6 9 28 
CALL[ ]	/* CallFunction */";
};
width = 512;
}
);
note = Ccedilla;
unicode = 199;
},
{
glyphname = Egrave;
kernRight = E;
layers = (
{
layerId = m01;
shapes = (
{
closed = 1;
nodes = (
(382,71,o),
(382,27,qs),
(382,11,ls),
(382,0,o),
(371,0,qs),
(72,0,ls),
(64,0,o),
(64,9,qs),
(64,547,ls),
(64,556,o),
(72,556,qs),
(328,556,ls),
(373,556,o),
(373,513,qs),
(373,496,ls),
(373,485,o),
(362,485,qs),
(140,485,l),
(140,312,l),
(310,312,ls),
(354,312,o),
(354,268,qs),
(354,252,ls),
(354,242,o),
(343,242,qs),
(140,242,l),
(140,71,l),
(337,71,ls)
);
},
{
closed = 1;
nodes = (
(281,608,o),
(276,608,qs),
(224,608,ls),
(208,608,o),
(195,619,qs),
(113,684,ls),
(110,687,o),
(113,693,o),
(117,693,qs),
(182,693,ls),
(196,693,o),
(207,683,qs),
(280,617,l),
(284,615,o)
);
}
);
userData = {
assembly = "NPUSHB[ ]	/* 58 values pushed */
0 6 7 6 133 0 7 3 7 133 0 1 0 0 5 1 0 103 0 2 2 3 95 0 3 3 39 77 8 1 5 5 4 95 0 4 4 40 4 78 0 0 39 37 32 30 0 27 0 26 51 51 33 35 33 9 9 27 
CALL[ ]	/* CallFunction */";
};
width = 412;
}
);
note = Egrave;
unicode = 200;
},
{
glyphname = Eacute;
kernRight = E;
layers = (
{
layerId = m01;
shapes = (
{
closed = 1;
nodes = (
(382,71,o),
(382,27,qs),
(382,11,ls),
(382,0,o),
(371,0,qs),
(72,0,ls),
(64,0,o),
(64,9,qs),
(64,547,ls),
(64,556,o),
(72,556,qs),
(328,556,ls),
(373,556,o),
(373,513,qs),
(373,496,ls),
(373,485,o),
(362,485,qs),
(140,485,l),
(140,312,l),
(310,312,ls),
(354,312,o),
(354,268,qs),
(354,252,ls),
(354,242,o),
(343,242,qs),
(140,242,l),
(140,71,l),
(337,71,ls)
);
},
{
closed = 1;
nodes = (
(231,693,o),
(243,693,qs),
(309,693,ls),
(314,693,o),
(316,687,o),
(313,684,qs),
(232,619,ls),
(219,608,o),
(203,608,qs),
(150,608,ls),
(146,608,o),
(143,614,o),
(146,617,qs),
(220,683,ls)
);
}
);
userData = {
assembly = "NPUSHB[ ]	/* 64 values pushed */
28 1 6 7 1 76 0 7 6 7 133 0 6 3 6 133 0 1 0 0 5 1 0 103 0 2 2 3 95 0 3 3 39 77 8 1 5 5 4 95 0 4 4 40 4 78 0 0 40 37 33 30 0 27 0 26 51 51 33 35 33 9 9 27 
CALL[ ]	/* CallFunction */";
};
width = 412;
}
);
note = Eacute;
unicode = 201;
},
{
glyphname = Ecircumflex;
kernRight = E;
layers = (
{
layerId = m01;
shapes = (
{
closed = 1;
nodes = (
(382,71,o),
(382,27,qs),
(382,11,ls),
(382,0,o),
(371,0,qs),
(72,0,ls),
(64,0,o),
(64,9,qs),
(64,547,ls),
(64,556,o),
(72,556,qs),
(328,556,ls),
(373,556,o),
(373,513,qs),
(373,496,ls),
(373,485,o),
(362,485,qs),
(140,485,l),
(140,312,l),
(310,312,ls),
(354,312,o),
(354,268,qs),
(354,252,ls),
(354,242,o),
(343,242,qs),
(140,242,l),
(140,71,l),
(337,71,ls)
);
},
{
closed = 1;
nodes = (
(163,608,o),
(145,608,qs),
(98,608,ls),
(94,608,o),
(91,614,o),
(95,617,q),
(163,683,ls),
(173,693,o),
(188,693,qs),
(242,693,ls),
(256,693,o),
(266,683,qs),
(335,617,ls),
(338,614,o),
(335,608,o),
(331,608,qs),
(285,608,ls),
(268,608,o),
(256,620,qs),
(215,663,l),
(174,620,ls)
);
}
);
userData = {
assembly = "NPUSHB[ ]	/* 61 values pushed */
0 7 6 7 133 8 1 6 3 6 133 0 1 0 0 5 1 0 103 0 2 2 3 95 0 3 3 39 77 9 1 5 5 4 95 0 4 4 40 4 78 0 0 47 44 40 37 32 30 0 27 0 26 51 51 33 35 33 10 9 27 
CALL[ ]	/* CallFunction */";
};
width = 412;
}
);
note = Ecircumflex;
unicode = 202;
},
{
glyphname = Edieresis;
kernRight = E;
layers = (
{
layerId = m01;
shapes = (
{
closed = 1;
nodes = (
(382,71,o),
(382,27,qs),
(382,11,ls),
(382,0,o),
(371,0,qs),
(72,0,ls),
(64,0,o),
(64,9,qs),
(64,547,ls),
(64,556,o),
(72,556,qs),
(328,556,ls),
(373,556,o),
(373,513,qs),
(373,496,ls),
(373,485,o),
(362,485,qs),
(140,485,l),
(140,312,l),
(310,312,ls),
(354,312,o),
(354,268,qs),
(354,252,ls),
(354,242,o),
(343,242,qs),
(140,242,l),
(140,71,l),
(337,71,ls)
);
},
{
closed = 1;
nodes = (
(129,691,o),
(148,691,qs),
(167,691,o),
(193,664,o),
(193,645,qs),
(193,626,o),
(167,600,o),
(148,600,qs),
(129,600,o),
(103,626,o),
(103,645,qs),
(103,664,o)
);
},
{
closed = 1;
nodes = (
(266,691,o),
(285,691,qs),
(303,691,o),
(329,664,o),
(329,645,qs),
(329,626,o),
(303,600,o),
(285,600,qs),
(266,600,o),
(240,626,o),
(240,645,qs),
(240,664,o)
);
}
);
userData = {
assembly = "NPUSHB[ ]	/* 62 values pushed */
9 1 7 8 1 6 3 7 6 105 0 1 0 0 5 1 0 103 0 2 2 3 95 0 3 3 39 77 10 1 5 5 4 95 0 4 4 40 4 78 0 0 50 48 44 42 38 36 32 30 0 27 0 26 51 51 33 35 33 11 9 27 
CALL[ ]	/* CallFunction */";
};
width = 412;
}
);
note = Edieresis;
unicode = 203;
},
{
glyphname = Igrave;
kernRight = I;
layers = (
{
layerId = m01;
shapes = (
{
closed = 1;
nodes = (
(70,9,qs),
(70,547,ls),
(70,556,o),
(78,556,qs),
(85,556,ls),
(145,556,o),
(145,485,qs),
(145,9,ls),
(145,0,o),
(137,0,qs),
(78,0,ls),
(70,0,o)
);
},
{
closed = 1;
nodes = (
(185,608,o),
(181,608,qs),
(128,608,ls),
(112,608,o),
(100,619,q),
(18,684,ls),
(15,687,o),
(17,693,o),
(22,693,qs),
(86,693,ls),
(100,693,o),
(111,683,qs),
(185,617,l),
(188,615,o)
);
}
);
userData = {
assembly = "NPUSHB[ ]	/* 37 values pushed */
0 2 3 2 133 0 3 1 3 133 0 1 1 39 77 4 1 0 0 40 0 78 2 0 23 21 16 14 8 5 0 11 2 11 5 9 22 
CALL[ ]	/* CallFunction */";
};
width = 205;
}
);
note = Igrave;
unicode = 204;
},
{
glyphname = Iacute;
kernRight = I;
layers = (
{
layerId = m01;
shapes = (
{
closed = 1;
nodes = (
(71,9,qs),
(71,547,ls),
(71,556,o),
(79,556,qs),
(86,556,ls),
(146,556,o),
(146,485,qs),
(146,9,ls),
(146,0,o),
(138,0,qs),
(79,0,ls),
(71,0,o)
);
},
{
closed = 1;
nodes = (
(103,693,o),
(115,693,qs),
(181,693,ls),
(185,693,o),
(188,687,o),
(185,684,qs),
(103,619,l),
(91,608,o),
(75,608,qs),
(22,608,ls),
(18,608,o),
(15,614,o),
(18,617,qs),
(91,683,ls)
);
}
);
userData = {
assembly = "NPUSHB[ ]	/* 44 values pushed */
19 12 2 2 3 1 76 0 3 2 3 133 0 2 1 2 133 0 1 1 39 77 4 1 0 0 40 0 78 2 0 24 21 17 14 8 5 0 11 2 11 5 9 22 
CALL[ ]	/* CallFunction */";
};
width = 205;
}
);
note = Iacute;
unicode = 205;
},
{
glyphname = Icircumflex;
kernRight = I;
layers = (
{
layerId = m01;
shapes = (
{
closed = 1;
nodes = (
(65,9,qs),
(65,547,ls),
(65,556,o),
(73,556,qs),
(80,556,ls),
(140,556,o),
(140,485,qs),
(140,9,ls),
(140,0,o),
(132,0,qs),
(73,0,ls),
(65,0,o)
);
},
{
closed = 1;
nodes = (
(51,608,o),
(32,608,qs),
(-14,608,ls),
(-18,608,o),
(-21,614,o),
(-18,617,qs),
(50,683,ls),
(60,693,o),
(75,693,qs),
(129,693,ls),
(143,693,o),
(153,683,qs),
(222,617,ls),
(225,614,o),
(222,608,o),
(219,608,qs),
(172,608,ls),
(155,608,o),
(143,620,qs),
(102,663,l),
(61,620,ls)
);
}
);
userData = {
assembly = "NPUSHB[ ]	/* 46 values pushed */
26 1 2 3 1 76 0 3 2 3 133 4 1 2 1 2 133 0 1 1 39 77 5 1 0 0 40 0 78 2 0 31 28 24 21 16 14 8 5 0 11 2 11 6 9 22 
CALL[ ]	/* CallFunction */";
};
width = 205;
}
);
note = Icircumflex;
unicode = 206;
},
{
glyphname = Idieresis;
kernRight = I;
layers = (
{
layerId = m01;
shapes = (
{
closed = 1;
nodes = (
(64,9,qs),
(64,547,ls),
(64,556,o),
(73,556,qs),
(79,556,ls),
(140,556,o),
(140,485,qs),
(140,9,ls),
(140,0,o),
(132,0,qs),
(73,0,ls),
(64,0,o)
);
},
{
closed = 1;
nodes = (
(16,691,o),
(34,691,qs),
(53,691,o),
(79,664,o),
(79,645,qs),
(79,626,o),
(53,600,o),
(34,600,qs),
(16,600,o),
(-10,626,o),
(-10,645,qs),
(-10,664,o)
);
},
{
closed = 1;
nodes = (
(152,691,o),
(171,691,qs),
(190,691,o),
(216,664,o),
(216,645,qs),
(216,626,o),
(190,600,o),
(171,600,qs),
(152,600,o),
(126,626,o),
(126,645,qs),
(126,664,o)
);
}
);
userData = {
assembly = "NPUSHB[ ]	/* 41 values pushed */
5 1 3 4 1 2 1 3 2 105 0 1 1 39 77 6 1 0 0 40 0 78 2 0 34 32 28 26 22 20 16 14 8 5 0 11 2 11 7 9 22 
CALL[ ]	/* CallFunction */";
};
width = 205;
}
);
note = Idieresis;
unicode = 207;
},
{
glyphname = Eth;
layers = (
{
layerId = m01;
shapes = (
{
closed = 1;
nodes = (
(19,244,o),
(19,253,qs),
(19,307,ls),
(19,315,o),
(27,315,qs),
(80,315,l),
(80,547,ls),
(80,556,o),
(87,556,qs),
(243,556,ls),
(363,556,o),
(433,500,qs),
(521,431,o),
(521,286,qs),
(521,151,o),
(453,78,qs),
(380,0,o),
(236,0,qs),
(87,0,ls),
(80,0,o),
(80,9,qs),
(80,244,l),
(27,244,ls)
);
},
{
closed = 1;
nodes = (
(442,71,o),
(442,283,qs),
(442,384,o),
(397,433,qs),
(349,485,o),
(240,485,qs),
(155,485,l),
(155,315,l),
(283,315,ls),
(328,315,o),
(328,272,qs),
(328,256,ls),
(328,244,o),
(317,244,qs),
(155,244,l),
(155,71,l),
(245,71,ls)
);
}
);
userData = {
assembly = "NPUSHB[ ]	/* 57 values pushed */
5 1 2 4 8 2 3 7 2 3 105 0 6 6 1 95 0 1 1 39 77 9 1 7 7 0 95 0 0 0 40 0 78 23 23 0 0 23 39 23 38 34 32 31 29 26 24 0 22 0 21 34 54 50 10 9 25 
CALL[ ]	/* CallFunction */";
};
width = 571;
}
);
note = Eth;
unicode = 208;
},
{
glyphname = Ntilde;
kernRight = N;
layers = (
{
layerId = m01;
shapes = (
{
closed = 1;
nodes = (
(388,556,o),
(396,556,qs),
(403,556,ls),
(463,556,o),
(463,485,qs),
(463,9,ls),
(463,0,o),
(456,0,qs),
(402,0,ls),
(388,0,o),
(380,13,qs),
(140,403,l),
(140,9,ls),
(140,0,o),
(132,0,qs),
(72,0,ls),
(64,0,o),
(64,9,qs),
(64,547,ls),
(64,556,o),
(72,556,qs),
(90,556,ls),
(115,556,o),
(143,538,o),
(160,511,qs),
(388,138,l),
(388,547,ls)
);
},
{
closed = 1;
nodes = (
(310,608,qs),
(291,608,o),
(255,623,qs),
(225,636,o),
(214,636,qs),
(198,636,o),
(194,617,qs),
(192,607,o),
(185,607,qs),
(150,607,ls),
(142,607,o),
(142,616,qs),
(147,691,o),
(204,691,qs),
(225,691,o),
(263,675,qs),
(293,662,o),
(305,662,qs),
(321,662,o),
(325,679,qs),
(328,689,o),
(336,689,qs),
(371,689,ls),
(379,689,o),
(379,681,q),
(371,608,o)
);
}
);
userData = {
assembly = "NPUSHB[ ]	/* 11 values pushed */
27 1 5 4 14 0 2 1 0 2 76 
MPPEM[ ]	/* MeasurePixelPerEm */
PUSHB[ ]	/* 1 value pushed */
35 
LT[ ]	/* LessThan */
IF[ ]	/* If */
NPUSHB[ ]	/* 36 values pushed */
0 5 4 8 4 5 114 0 8 7 7 8 112 6 1 4 9 1 7 0 4 7 105 3 1 0 0 39 77 2 1 1 1 40 1 78 
ELSE[ ]	/* Else */
MPPEM[ ]	/* MeasurePixelPerEm */
PUSHB[ ]	/* 1 value pushed */
37 
LT[ ]	/* LessThan */
IF[ ]	/* If */
NPUSHB[ ]	/* 37 values pushed */
0 5 4 8 4 5 114 0 8 7 4 8 7 126 6 1 4 9 1 7 0 4 7 105 3 1 0 0 39 77 2 1 1 1 40 1 78 
ELSE[ ]	/* Else */
NPUSHB[ ]	/* 38 values pushed */
0 5 4 8 4 5 8 128 0 8 7 4 8 7 126 6 1 4 9 1 7 0 4 7 105 3 1 0 0 39 77 2 1 1 1 40 1 78 
EIF[ ]	/* EndIf */
EIF[ ]	/* EndIf */
NPUSHB[ ]	/* 14 values pushed */
52 50 34 50 34 34 51 51 52 51 51 10 9 31 
CALL[ ]	/* CallFunction */";
};
width = 528;
}
);
note = Ntilde;
unicode = 209;
},
{
glyphname = Ograve;
kernLeft = O;
kernRight = O;
layers = (
{
layerId = m01;
shapes = (
{
closed = 1;
nodes = (
(414,100,qs),
(475,154,o),
(475,277,qs),
(475,386,o),
(427,442,qs),
(382,495,o),
(301,495,qs),
(231,495,o),
(187,455,qs),
(127,400,o),
(127,277,qs),
(127,168,o),
(174,113,qs),
(219,62,o),
(301,62,qs),
(371,62,o)
);
},
{
closed = 1;
nodes = (
(124,58,qs),
(49,135,o),
(49,277,qs),
(49,401,o),
(107,477,qs),
(175,566,o),
(301,566,qs),
(410,566,o),
(477,497,qs),
(552,420,o),
(552,277,qs),
(552,153,o),
(495,78,qs),
(428,-10,o),
(301,-10,qs),
(190,-10,o)
);
},
{
closed = 1;
nodes = (
(381,608,o),
(376,608,qs),
(324,608,ls),
(308,608,o),
(295,619,qs),
(213,684,ls),
(210,687,o),
(213,693,o),
(217,693,qs),
(282,693,ls),
(296,693,o),
(307,683,qs),
(380,617,l),
(384,615,o)
);
}
);
userData = {
assembly = "MPPEM[ ]	/* MeasurePixelPerEm */
PUSHB[ ]	/* 1 value pushed */
39 
LT[ ]	/* LessThan */
IF[ ]	/* If */
NPUSHB[ ]	/* 33 values pushed */
0 4 5 4 133 0 5 3 5 133 0 1 1 3 97 0 3 3 39 77 6 1 0 0 2 97 7 1 2 2 46 2 78 
ELSE[ ]	/* Else */
NPUSHB[ ]	/* 31 values pushed */
0 4 5 4 133 0 5 3 5 133 0 3 0 1 0 3 1 106 6 1 0 0 2 97 7 1 2 2 46 2 78 
EIF[ ]	/* EndIf */
NPUSHB[ ]	/* 23 values pushed */
17 16 1 0 43 41 36 34 25 23 16 31 17 31 9 7 0 15 1 15 8 9 22 
CALL[ ]	/* CallFunction */";
};
width = 602;
}
);
note = Ograve;
unicode = 210;
},
{
glyphname = Oacute;
kernLeft = O;
kernRight = O;
layers = (
{
layerId = m01;
shapes = (
{
closed = 1;
nodes = (
(414,100,qs),
(475,154,o),
(475,277,qs),
(475,386,o),
(427,442,qs),
(382,495,o),
(301,495,qs),
(231,495,o),
(187,455,qs),
(127,400,o),
(127,277,qs),
(127,168,o),
(174,113,qs),
(219,62,o),
(301,62,qs),
(371,62,o)
);
},
{
closed = 1;
nodes = (
(124,58,qs),
(49,135,o),
(49,277,qs),
(49,401,o),
(107,477,qs),
(175,566,o),
(301,566,qs),
(410,566,o),
(477,497,qs),
(552,420,o),
(552,277,qs),
(552,153,o),
(495,78,qs),
(428,-10,o),
(301,-10,qs),
(190,-10,o)
);
},
{
closed = 1;
nodes = (
(305,693,o),
(317,693,qs),
(383,693,ls),
(387,693,o),
(390,687,o),
(387,684,qs),
(306,619,ls),
(293,608,o),
(277,608,qs),
(224,608,ls),
(220,608,o),
(217,614,o),
(220,617,qs),
(293,683,ls)
);
}
);
userData = {
assembly = "PUSHB[ ]	/* 7 values pushed */
39 32 2 4 5 1 76 
MPPEM[ ]	/* MeasurePixelPerEm */
PUSHB[ ]	/* 1 value pushed */
39 
LT[ ]	/* LessThan */
IF[ ]	/* If */
NPUSHB[ ]	/* 33 values pushed */
0 5 4 5 133 0 4 3 4 133 0 1 1 3 97 0 3 3 39 77 6 1 0 0 2 97 7 1 2 2 46 2 78 
ELSE[ ]	/* Else */
NPUSHB[ ]	/* 31 values pushed */
0 5 4 5 133 0 4 3 4 133 0 3 0 1 0 3 1 106 6 1 0 0 2 97 7 1 2 2 46 2 78 
EIF[ ]	/* EndIf */
NPUSHB[ ]	/* 23 values pushed */
17 16 1 0 44 41 37 34 25 23 16 31 17 31 9 7 0 15 1 15 8 9 22 
CALL[ ]	/* CallFunction */";
};
width = 602;
}
);
note = Oacute;
unicode = 211;
},
{
glyphname = Ocircumflex;
kernLeft = O;
kernRight = O;
layers = (
{
layerId = m01;
shapes = (
{
closed = 1;
nodes = (
(414,100,qs),
(475,154,o),
(475,277,qs),
(475,386,o),
(427,442,qs),
(382,495,o),
(301,495,qs),
(231,495,o),
(187,455,qs),
(127,400,o),
(127,277,qs),
(127,168,o),
(174,113,qs),
(219,62,o),
(301,62,qs),
(371,62,o)
);
},
{
closed = 1;
nodes = (
(124,58,qs),
(49,135,o),
(49,277,qs),
(49,401,o),
(107,477,qs),
(175,566,o),
(301,566,qs),
(410,566,o),
(477,497,qs),
(552,420,o),
(552,277,qs),
(552,153,o),
(495,78,qs),
(428,-10,o),
(301,-10,qs),
(190,-10,o)
);
},
{
closed = 1;
nodes = (
(249,608,o),
(231,608,qs),
(184,608,ls),
(180,608,o),
(177,614,o),
(180,617,qs),
(248,683,ls),
(258,693,o),
(273,693,qs),
(327,693,ls),
(341,693,o),
(351,683,qs),
(421,617,l),
(423,614,o),
(420,608,o),
(417,608,qs),
(370,608,ls),
(353,608,o),
(341,620,qs),
(300,663,l),
(260,620,ls)
);
}
);
userData = {
assembly = "PUSHB[ ]	/* 6 values pushed */
46 1 4 5 1 76 
MPPEM[ ]	/* MeasurePixelPerEm */
PUSHB[ ]	/* 1 value pushed */
39 
LT[ ]	/* LessThan */
IF[ ]	/* If */
NPUSHB[ ]	/* 34 values pushed */
0 5 4 5 133 6 1 4 3 4 133 0 1 1 3 97 0 3 3 39 77 7 1 0 0 2 97 8 1 2 2 46 2 78 
ELSE[ ]	/* Else */
NPUSHB[ ]	/* 32 values pushed */
0 5 4 5 133 6 1 4 3 4 133 0 3 0 1 0 3 1 106 7 1 0 0 2 97 8 1 2 2 46 2 78 
EIF[ ]	/* EndIf */
NPUSHB[ ]	/* 25 values pushed */
17 16 1 0 51 48 44 41 36 34 25 23 16 31 17 31 9 7 0 15 1 15 9 9 22 
CALL[ ]	/* CallFunction */";
};
width = 602;
}
);
note = Ocircumflex;
unicode = 212;
},
{
glyphname = Otilde;
kernLeft = O;
kernRight = O;
layers = (
{
layerId = m01;
shapes = (
{
closed = 1;
nodes = (
(414,100,qs),
(475,154,o),
(475,277,qs),
(475,386,o),
(427,442,qs),
(382,495,o),
(301,495,qs),
(231,495,o),
(187,455,qs),
(127,400,o),
(127,277,qs),
(127,168,o),
(174,113,qs),
(219,62,o),
(301,62,qs),
(371,62,o)
);
},
{
closed = 1;
nodes = (
(124,58,qs),
(49,135,o),
(49,277,qs),
(49,401,o),
(107,477,qs),
(175,566,o),
(301,566,qs),
(410,566,o),
(477,497,qs),
(552,420,o),
(552,277,qs),
(552,153,o),
(495,78,qs),
(428,-10,o),
(301,-10,qs),
(190,-10,o)
);
},
{
closed = 1;
nodes = (
(348,608,qs),
(330,608,o),
(293,623,qs),
(263,636,o),
(252,636,qs),
(236,636,o),
(232,617,qs),
(231,607,o),
(223,607,qs),
(188,607,ls),
(181,607,o),
(181,616,qs),
(185,691,o),
(242,691,qs),
(264,691,o),
(301,675,qs),
(331,662,o),
(343,662,qs),
(359,662,o),
(363,679,q),
(367,689,o),
(375,689,qs),
(409,689,ls),
(417,689,o),
(417,681,qs),
(410,608,o)
);
}
);
userData = {
assembly = "PUSHB[ ]	/* 6 values pushed */
32 1 5 4 1 76 
MPPEM[ ]	/* MeasurePixelPerEm */
PUSHB[ ]	/* 1 value pushed */
35 
LT[ ]	/* LessThan */
IF[ ]	/* If */
NPUSHB[ ]	/* 46 values pushed */
0 5 4 8 4 5 114 0 8 7 7 8 112 6 1 4 9 1 7 3 4 7 105 0 1 1 3 97 0 3 3 39 77 10 1 0 0 2 97 11 1 2 2 46 2 78 
ELSE[ ]	/* Else */
MPPEM[ ]	/* MeasurePixelPerEm */
PUSHB[ ]	/* 1 value pushed */
37 
LT[ ]	/* LessThan */
IF[ ]	/* If */
NPUSHB[ ]	/* 47 values pushed */
0 5 4 8 4 5 114 0 8 7 4 8 7 126 6 1 4 9 1 7 3 4 7 105 0 1 1 3 97 0 3 3 39 77 10 1 0 0 2 97 11 1 2 2 46 2 78 
ELSE[ ]	/* Else */
MPPEM[ ]	/* MeasurePixelPerEm */
PUSHB[ ]	/* 1 value pushed */
39 
LT[ ]	/* LessThan */
IF[ ]	/* If */
NPUSHB[ ]	/* 48 values pushed */
0 5 4 8 4 5 8 128 0 8 7 4 8 7 126 6 1 4 9 1 7 3 4 7 105 0 1 1 3 97 0 3 3 39 77 10 1 0 0 2 97 11 1 2 2 46 2 78 
ELSE[ ]	/* Else */
NPUSHB[ ]	/* 46 values pushed */
0 5 4 8 4 5 8 128 0 8 7 4 8 7 126 6 1 4 9 1 7 3 4 7 105 0 3 0 1 0 3 1 105 10 1 0 0 2 97 11 1 2 2 46 2 78 
EIF[ ]	/* EndIf */
EIF[ ]	/* EndIf */
EIF[ ]	/* EndIf */
NPUSHB[ ]	/* 31 values pushed */
17 16 1 0 57 55 53 51 49 46 44 42 40 38 36 33 25 23 16 31 17 31 9 7 0 15 1 15 12 9 22 
CALL[ ]	/* CallFunction */";
};
width = 602;
}
);
note = Otilde;
unicode = 213;
},
{
glyphname = Odieresis;
kernLeft = O;
kernRight = O;
layers = (
{
layerId = m01;
shapes = (
{
closed = 1;
nodes = (
(414,100,qs),
(475,154,o),
(475,277,qs),
(475,386,o),
(427,442,qs),
(382,495,o),
(301,495,qs),
(231,495,o),
(187,455,qs),
(127,400,o),
(127,277,qs),
(127,168,o),
(174,113,qs),
(219,62,o),
(301,62,qs),
(371,62,o)
);
},
{
closed = 1;
nodes = (
(124,58,qs),
(49,135,o),
(49,277,qs),
(49,401,o),
(107,477,qs),
(175,566,o),
(301,566,qs),
(410,566,o),
(477,497,qs),
(552,420,o),
(552,277,qs),
(552,153,o),
(495,78,qs),
(428,-10,o),
(301,-10,qs),
(190,-10,o)
);
},
{
closed = 1;
nodes = (
(214,691,o),
(233,691,qs),
(252,691,o),
(278,664,o),
(278,645,qs),
(278,626,o),
(252,600,o),
(233,600,qs),
(214,600,o),
(188,626,o),
(188,645,qs),
(188,664,o)
);
},
{
closed = 1;
nodes = (
(351,691,o),
(370,691,qs),
(388,691,o),
(414,664,o),
(414,645,qs),
(414,626,o),
(388,600,o),
(370,600,qs),
(351,600,o),
(325,626,o),
(325,645,qs),
(325,664,o)
);
}
);
userData = {
assembly = "MPPEM[ ]	/* MeasurePixelPerEm */
PUSHB[ ]	/* 1 value pushed */
39 
LT[ ]	/* LessThan */
IF[ ]	/* If */
NPUSHB[ ]	/* 33 values pushed */
7 1 5 6 1 4 3 5 4 105 0 1 1 3 97 0 3 3 39 77 8 1 0 0 2 97 9 1 2 2 46 2 78 
ELSE[ ]	/* Else */
NPUSHB[ ]	/* 31 values pushed */
7 1 5 6 1 4 3 5 4 105 0 3 0 1 0 3 1 105 8 1 0 0 2 97 9 1 2 2 46 2 78 
EIF[ ]	/* EndIf */
NPUSHB[ ]	/* 27 values pushed */
17 16 1 0 54 52 48 46 42 40 36 34 25 23 16 31 17 31 9 7 0 15 1 15 10 9 22 
CALL[ ]	/* CallFunction */";
};
width = 602;
}
);
note = Odieresis;
unicode = 214;
},
{
glyphname = multiply;
layers = (
{
layerId = m01;
shapes = (
{
closed = 1;
nodes = (
(43,392,o),
(48,398,q),
(69,418,o),
(104,416,o),
(127,393,qs),
(204,317,l),
(310,422,ls),
(315,427,o),
(320,422,qs),
(351,392,ls),
(357,386,o),
(351,379,qs),
(247,274,l),
(358,162,ls),
(364,156,o),
(358,150,qs),
(337,129,o),
(303,131,o),
(278,155,qs),
(203,232,l),
(98,126,ls),
(92,120,o),
(86,126,qs),
(55,156,l),
(48,161,o),
(55,168,qs),
(161,274,l),
(49,386,ls)
);
}
);
userData = {
assembly = "NPUSHB[ ]	/* 22 values pushed */
21 14 7 3 0 1 1 76 0 1 0 1 133 0 0 0 118 29 25 2 9 24 
CALL[ ]	/* CallFunction */";
};
width = 403;
}
);
note = multiply;
unicode = 215;
},
{
glyphname = Oslash;
kernLeft = O;
kernRight = O;
layers = (
{
layerId = m01;
shapes = (
{
closed = 1;
nodes = (
(350,495,o),
(301,495,qs),
(231,495,o),
(187,455,qs),
(127,400,o),
(127,277,qs),
(127,178,o),
(166,125,q),
(387,472,l)
);
},
{
closed = 1;
nodes = (
(253,62,o),
(301,62,qs),
(371,62,o),
(414,100,qs),
(475,154,o),
(475,277,qs),
(475,375,o),
(436,428,q),
(216,82,l)
);
},
{
closed = 1;
nodes = (
(124,58,qs),
(49,135,o),
(49,277,qs),
(49,401,o),
(107,478,qs),
(175,567,o),
(301,567,qs),
(410,567,o),
(477,498,qs),
(552,420,o),
(552,277,qs),
(552,153,o),
(495,78,qs),
(428,-10,o),
(301,-10,qs),
(190,-10,o)
);
}
);
userData = {
assembly = "PUSHB[ ]	/* 7 values pushed */
17 8 2 1 0 1 76 
MPPEM[ ]	/* MeasurePixelPerEm */
PUSHB[ ]	/* 1 value pushed */
35 
LT[ ]	/* LessThan */
IF[ ]	/* If */
NPUSHB[ ]	/* 22 values pushed */
0 0 0 3 97 0 3 3 39 77 0 1 1 2 97 4 1 2 2 46 2 78 
ELSE[ ]	/* Else */
NPUSHB[ ]	/* 20 values pushed */
0 3 0 0 1 3 0 105 0 1 1 2 97 4 1 2 2 46 2 78 
EIF[ ]	/* EndIf */
NPUSHB[ ]	/* 13 values pushed */
19 18 27 25 18 33 19 33 39 37 5 9 24 
CALL[ ]	/* CallFunction */";
};
width = 602;
}
);
note = Oslash;
unicode = 216;
},
{
glyphname = Ugrave;
kernLeft = U;
kernRight = U;
layers = (
{
layerId = m01;
shapes = (
{
closed = 1;
nodes = (
(109,50,qs),
(63,104,o),
(63,199,qs),
(63,547,ls),
(63,556,o),
(71,556,qs),
(78,556,ls),
(139,556,o),
(139,485,qs),
(139,212,ls),
(139,61,o),
(261,61,qs),
(387,61,o),
(387,213,qs),
(387,547,ls),
(387,556,o),
(395,556,qs),
(402,556,ls),
(462,556,o),
(462,485,qs),
(462,201,ls),
(462,126,o),
(430,73,qs),
(379,-10,o),
(262,-10,qs),
(160,-10,o)
);
},
{
closed = 1;
nodes = (
(324,608,o),
(320,608,qs),
(267,608,ls),
(251,608,o),
(239,619,q),
(157,684,ls),
(154,687,o),
(156,693,o),
(161,693,qs),
(225,693,ls),
(239,693,o),
(250,683,qs),
(324,617,l),
(327,615,o)
);
}
);
userData = {
assembly = "NPUSHB[ ]	/* 47 values pushed */
0 4 5 4 133 0 5 1 5 133 3 1 1 1 39 77 0 2 2 0 98 6 1 0 0 46 0 78 1 0 37 35 30 28 20 17 14 12 9 6 0 25 1 25 7 9 22 
CALL[ ]	/* CallFunction */";
};
width = 521;
}
);
note = Ugrave;
unicode = 217;
},
{
glyphname = Uacute;
kernLeft = U;
kernRight = U;
layers = (
{
layerId = m01;
shapes = (
{
closed = 1;
nodes = (
(109,50,qs),
(63,104,o),
(63,199,qs),
(63,547,ls),
(63,556,o),
(71,556,qs),
(78,556,ls),
(139,556,o),
(139,485,qs),
(139,212,ls),
(139,61,o),
(261,61,qs),
(387,61,o),
(387,213,qs),
(387,547,ls),
(387,556,o),
(395,556,qs),
(402,556,ls),
(462,556,o),
(462,485,qs),
(462,201,ls),
(462,126,o),
(430,73,qs),
(379,-10,o),
(262,-10,qs),
(160,-10,o)
);
},
{
closed = 1;
nodes = (
(261,693,o),
(273,693,qs),
(339,693,ls),
(343,693,o),
(346,687,o),
(342,684,qs),
(261,619,ls),
(249,608,o),
(232,608,qs),
(180,608,ls),
(175,608,o),
(173,614,o),
(176,617,qs),
(249,683,ls)
);
}
);
userData = {
assembly = "NPUSHB[ ]	/* 47 values pushed */
0 5 4 5 133 0 4 1 4 133 3 1 1 1 39 77 0 2 2 0 98 6 1 0 0 46 0 78 1 0 38 35 31 28 20 17 14 12 9 6 0 25 1 25 7 9 22 
CALL[ ]	/* CallFunction */";
};
width = 521;
}
);
note = Uacute;
unicode = 218;
},
{
glyphname = Ucircumflex;
kernLeft = U;
kernRight = U;
layers = (
{
layerId = m01;
shapes = (
{
closed = 1;
nodes = (
(109,50,qs),
(63,104,o),
(63,199,qs),
(63,547,ls),
(63,556,o),
(71,556,qs),
(78,556,ls),
(139,556,o),
(139,485,qs),
(139,212,ls),
(139,61,o),
(261,61,qs),
(387,61,o),
(387,213,qs),
(387,547,ls),
(387,556,o),
(395,556,qs),
(402,556,ls),
(462,556,o),
(462,485,qs),
(462,201,ls),
(462,126,o),
(430,73,qs),
(379,-10,o),
(262,-10,qs),
(160,-10,o)
);
},
{
closed = 1;
nodes = (
(209,608,o),
(191,608,qs),
(144,608,ls),
(140,608,o),
(137,614,o),
(140,617,qs),
(209,683,ls),
(219,693,o),
(234,693,qs),
(287,693,ls),
(301,693,o),
(311,683,qs),
(381,617,l),
(383,614,o),
(381,608,o),
(377,608,qs),
(330,608,ls),
(314,608,o),
(301,620,qs),
(260,663,l),
(220,620,ls)
);
}
);
userData = {
assembly = "NPUSHB[ ]	/* 56 values pushed */
40 1 4 5 1 76 0 5 4 5 133 6 1 4 1 4 133 3 1 1 1 39 77 0 2 2 0 98 7 1 0 0 46 0 78 1 0 45 42 38 35 30 28 20 17 14 12 9 6 0 25 1 25 8 9 22 
CALL[ ]	/* CallFunction */";
};
width = 521;
}
);
note = Ucircumflex;
unicode = 219;
},
{
glyphname = Udieresis;
kernLeft = U;
kernRight = U;
layers = (
{
layerId = m01;
shapes = (
{
closed = 1;
nodes = (
(109,50,qs),
(63,104,o),
(63,199,qs),
(63,547,ls),
(63,556,o),
(71,556,qs),
(78,556,ls),
(139,556,o),
(139,485,qs),
(139,212,ls),
(139,61,o),
(261,61,qs),
(387,61,o),
(387,213,qs),
(387,547,ls),
(387,556,o),
(395,556,qs),
(402,556,ls),
(462,556,o),
(462,485,qs),
(462,201,ls),
(462,126,o),
(430,73,qs),
(379,-10,o),
(262,-10,qs),
(160,-10,o)
);
},
{
closed = 1;
nodes = (
(170,691,o),
(189,691,qs),
(207,691,o),
(234,664,o),
(234,645,qs),
(234,626,o),
(207,600,o),
(189,600,qs),
(170,600,o),
(144,626,o),
(144,645,qs),
(144,664,o)
);
},
{
closed = 1;
nodes = (
(306,691,o),
(325,691,qs),
(344,691,o),
(370,664,o),
(370,645,qs),
(370,626,o),
(344,600,o),
(325,600,qs),
(306,600,o),
(280,626,o),
(280,645,qs),
(280,664,o)
);
}
);
userData = {
assembly = "NPUSHB[ ]	/* 51 values pushed */
7 1 5 6 1 4 1 5 4 105 3 1 1 1 39 77 0 2 2 0 97 8 1 0 0 46 0 78 1 0 48 46 42 40 36 34 30 28 20 17 14 12 9 6 0 25 1 25 9 9 22 
CALL[ ]	/* CallFunction */";
};
width = 521;
}
);
note = Udieresis;
unicode = 220;
},
{
glyphname = Yacute;
kernLeft = Y;
kernRight = Y;
layers = (
{
layerId = m01;
shapes = (
{
closed = 1;
nodes = (
(3,556,o),
(13,556,qs),
(41,556,ls),
(66,556,o),
(99,533,o),
(114,506,qs),
(228,292,l),
(362,543,l),
(367,556,o),
(379,556,qs),
(437,556,ls),
(449,556,o),
(443,544,qs),
(263,212,l),
(263,9,ls),
(263,0,o),
(255,0,qs),
(196,0,ls),
(188,0,o),
(188,9,qs),
(188,213,l),
(7,547,ls)
);
},
{
closed = 1;
nodes = (
(238,693,o),
(251,693,qs),
(316,693,ls),
(321,693,o),
(323,687,o),
(320,684,qs),
(239,619,ls),
(226,608,o),
(210,608,qs),
(157,608,ls),
(153,608,o),
(150,614,o),
(153,617,qs),
(227,683,ls)
);
}
);
userData = {
assembly = "NPUSHB[ ]	/* 45 values pushed */
22 1 3 4 14 7 0 3 0 1 2 76 0 3 4 1 4 3 1 128 2 1 1 1 39 77 0 4 4 0 95 0 0 0 40 0 78 52 52 53 52 50 5 9 27 
CALL[ ]	/* CallFunction */";
};
width = 445;
}
);
note = Yacute;
unicode = 221;
},
{
glyphname = Thorn;
layers = (
{
layerId = m01;
shapes = (
{
closed = 1;
nodes = (
(379,173,o),
(379,282,qs),
(379,327,o),
(352,355,qs),
(322,386,o),
(269,386,qs),
(140,386,l),
(140,173,l),
(266,173,ls)
);
},
{
closed = 1;
nodes = (
(140,0,o),
(132,0,qs),
(72,0,ls),
(64,0,o),
(64,9,qs),
(64,547,ls),
(64,556,o),
(72,556,qs),
(79,556,ls),
(140,556,o),
(140,485,qs),
(140,456,l),
(263,456,ls),
(349,456,o),
(399,415,qs),
(456,368,o),
(456,281,qs),
(456,206,o),
(412,158,qs),
(362,102,o),
(270,102,qs),
(140,102,l),
(140,9,ls)
);
}
);
userData = {
assembly = "NPUSHB[ ]	/* 46 values pushed */
0 3 0 0 1 3 0 103 6 1 1 0 2 5 1 2 103 0 4 4 39 77 0 5 5 40 5 78 0 0 30 27 24 21 19 17 11 9 0 8 0 7 33 7 9 23 
CALL[ ]	/* CallFunction */";
};
width = 489;
}
);
note = Thorn;
unicode = 222;
},
{
glyphname = germandbls;
layers = (
{
layerId = m01;
shapes = (
{
closed = 1;
nodes = (
(53,9,qs),
(53,407,ls),
(53,477,o),
(93,520,qs),
(137,567,o),
(211,567,qs),
(278,567,o),
(319,536,qs),
(361,505,o),
(361,457,qs),
(361,417,o),
(317,360,qs),
(281,313,o),
(281,297,qs),
(281,271,o),
(332,236,qs),
(388,198,o),
(426,147,o),
(426,108,qs),
(426,59,o),
(395,27,qs),
(359,-10,o),
(297,-10,qs),
(246,-10,o),
(170,45,o),
(170,82,qs),
(170,99,o),
(181,99,qs),
(185,99,o),
(190,94,qs),
(235,53,o),
(285,53,qs),
(350,53,o),
(350,103,qs),
(350,124,o),
(336,142,qs),
(323,157,o),
(287,182,qs),
(242,213,o),
(209,257,o),
(209,287,qs),
(209,319,o),
(244,363,qs),
(273,399,o),
(287,425,o),
(287,441,qs),
(287,468,o),
(244,501,o),
(209,501,qs),
(171,501,o),
(127,450,o),
(127,404,qs),
(127,9,ls),
(127,0,o),
(120,0,qs),
(61,0,ls),
(53,0,o)
);
}
);
userData = {
assembly = "MPPEM[ ]	/* MeasurePixelPerEm */
PUSHB[ ]	/* 1 value pushed */
18 
LT[ ]	/* LessThan */
IF[ ]	/* If */
NPUSHB[ ]	/* 31 values pushed */
0 3 1 2 1 3 2 128 0 1 1 5 97 0 5 5 39 77 0 2 2 0 97 4 6 2 0 0 40 0 78 
ELSE[ ]	/* Else */
MPPEM[ ]	/* MeasurePixelPerEm */
PUSHB[ ]	/* 1 value pushed */
35 
LT[ ]	/* LessThan */
IF[ ]	/* If */
NPUSHB[ ]	/* 35 values pushed */
0 3 1 2 1 3 2 128 0 1 1 5 97 0 5 5 39 77 6 1 0 0 40 77 0 2 2 4 97 0 4 4 46 4 78 
ELSE[ ]	/* Else */
NPUSHB[ ]	/* 33 values pushed */
0 3 1 2 1 3 2 128 0 5 0 1 3 5 1 105 6 1 0 0 40 77 0 2 2 4 97 0 4 4 46 4 78 
EIF[ ]	/* EndIf */
EIF[ ]	/* EndIf */
NPUSHB[ ]	/* 19 values pushed */
2 0 51 49 34 32 29 27 25 23 8 6 0 56 2 56 7 9 22 
CALL[ ]	/* CallFunction */";
};
width = 453;
}
);
note = germandbls;
unicode = 223;
},
{
glyphname = agrave;
kernLeft = a;
kernRight = a;
layers = (
{
layerId = m01;
shapes = (
{
closed = 1;
nodes = (
(209,-9,qs),
(134,-9,o),
(88,41,qs),
(37,95,o),
(37,184,qs),
(37,262,o),
(79,315,qs),
(129,377,o),
(212,377,qs),
(294,377,o),
(335,319,q),
(343,368,o),
(393,368,qs),
(398,368,ls),
(405,368,o),
(405,359,qs),
(405,9,ls),
(405,0,o),
(398,0,qs),
(339,0,ls),
(331,0,o),
(331,9,qs),
(331,52,l),
(289,-9,o)
);
},
{
closed = 1;
nodes = (
(331,126,o),
(331,184,qs),
(331,246,o),
(298,278,qs),
(269,306,o),
(223,306,qs),
(180,306,o),
(151,280,qs),
(114,246,o),
(114,184,qs),
(114,129,o),
(172,61,o),
(220,61,qs),
(272,61,o)
);
},
{
closed = 1;
nodes = (
(294,430,o),
(290,430,qs),
(238,430,ls),
(221,430,o),
(209,441,qs),
(127,507,ls),
(124,509,o),
(127,516,o),
(131,516,qs),
(195,516,ls),
(210,516,o),
(220,506,qs),
(294,439,l),
(297,437,o)
);
}
);
userData = {
assembly = "NPUSHB[ ]	/* 10 values pushed */
12 1 5 1 0 1 0 4 2 76 
MPPEM[ ]	/* MeasurePixelPerEm */
PUSHB[ ]	/* 1 value pushed */
20 
LT[ ]	/* LessThan */
IF[ ]	/* If */
NPUSHB[ ]	/* 34 values pushed */
0 6 7 6 133 0 7 1 7 133 0 5 5 1 97 2 1 1 1 42 77 8 1 4 4 0 97 3 1 0 0 40 0 78 
ELSE[ ]	/* Else */
NPUSHB[ ]	/* 42 values pushed */
0 6 7 6 133 0 7 2 7 133 0 1 1 42 77 0 5 5 2 97 0 2 2 48 77 0 0 0 40 77 8 1 4 4 3 97 0 3 3 49 3 78 
EIF[ ]	/* EndIf */
NPUSHB[ ]	/* 19 values pushed */
25 24 49 47 42 40 32 30 24 37 25 37 38 34 51 50 9 9 26 
CALL[ ]	/* CallFunction */";
};
width = 459;
}
);
note = agrave;
unicode = 224;
},
{
glyphname = aacute;
kernLeft = a;
kernRight = a;
layers = (
{
layerId = m01;
shapes = (
{
closed = 1;
nodes = (
(209,-9,qs),
(134,-9,o),
(88,41,qs),
(37,95,o),
(37,184,qs),
(37,262,o),
(79,315,qs),
(129,377,o),
(212,377,qs),
(294,377,o),
(335,319,q),
(343,368,o),
(393,368,qs),
(398,368,ls),
(405,368,o),
(405,359,qs),
(405,9,ls),
(405,0,o),
(398,0,qs),
(339,0,ls),
(331,0,o),
(331,9,qs),
(331,52,l),
(289,-9,o)
);
},
{
closed = 1;
nodes = (
(331,126,o),
(331,184,qs),
(331,246,o),
(298,278,qs),
(269,306,o),
(223,306,qs),
(180,306,o),
(151,280,qs),
(114,246,o),
(114,184,qs),
(114,129,o),
(172,61,o),
(220,61,qs),
(272,61,o)
);
},
{
closed = 1;
nodes = (
(230,516,o),
(242,516,qs),
(308,516,ls),
(312,516,o),
(315,509,o),
(311,507,q),
(230,441,ls),
(218,430,o),
(201,430,qs),
(149,430,ls),
(144,430,o),
(142,437,o),
(145,439,q),
(218,506,ls)
);
}
);
userData = {
assembly = "NPUSHB[ ]	/* 10 values pushed */
12 1 5 1 0 1 0 4 2 76 
MPPEM[ ]	/* MeasurePixelPerEm */
PUSHB[ ]	/* 1 value pushed */
20 
LT[ ]	/* LessThan */
IF[ ]	/* If */
NPUSHB[ ]	/* 34 values pushed */
0 7 6 7 133 0 6 1 6 133 0 5 5 1 97 2 1 1 1 42 77 8 1 4 4 0 97 3 1 0 0 40 0 78 
ELSE[ ]	/* Else */
NPUSHB[ ]	/* 42 values pushed */
0 7 6 7 133 0 6 2 6 133 0 1 1 42 77 0 5 5 2 97 0 2 2 48 77 0 0 0 40 77 8 1 4 4 3 97 0 3 3 49 3 78 
EIF[ ]	/* EndIf */
NPUSHB[ ]	/* 19 values pushed */
25 24 50 47 43 40 32 30 24 37 25 37 38 34 51 50 9 9 26 
CALL[ ]	/* CallFunction */";
};
width = 459;
}
);
note = aacute;
unicode = 225;
},
{
glyphname = acircumflex;
kernLeft = a;
kernRight = a;
layers = (
{
layerId = m01;
shapes = (
{
closed = 1;
nodes = (
(209,-9,qs),
(134,-9,o),
(88,41,qs),
(37,95,o),
(37,184,qs),
(37,262,o),
(79,315,qs),
(129,377,o),
(212,377,qs),
(294,377,o),
(335,319,q),
(343,368,o),
(393,368,qs),
(398,368,ls),
(405,368,o),
(405,359,qs),
(405,9,ls),
(405,0,o),
(398,0,qs),
(339,0,ls),
(331,0,o),
(331,9,qs),
(331,52,l),
(289,-9,o)
);
},
{
closed = 1;
nodes = (
(331,126,o),
(331,184,qs),
(331,246,o),
(298,278,qs),
(269,306,o),
(223,306,qs),
(180,306,o),
(151,280,qs),
(114,246,o),
(114,184,qs),
(114,129,o),
(172,61,o),
(220,61,qs),
(272,61,o)
);
},
{
closed = 1;
nodes = (
(177,430,o),
(159,430,qs),
(112,430,ls),
(108,430,o),
(105,437,o),
(108,439,q),
(176,506,ls),
(186,516,o),
(201,516,qs),
(255,516,ls),
(269,516,o),
(279,506,qs),
(349,439,ls),
(351,437,o),
(348,430,o),
(345,430,qs),
(298,430,ls),
(281,430,o),
(269,442,qs),
(228,485,l),
(188,442,ls)
);
}
);
userData = {
assembly = "NPUSHB[ ]	/* 14 values pushed */
52 1 6 7 12 1 5 1 0 1 0 4 3 76 
MPPEM[ ]	/* MeasurePixelPerEm */
PUSHB[ ]	/* 1 value pushed */
20 
LT[ ]	/* LessThan */
IF[ ]	/* If */
NPUSHB[ ]	/* 35 values pushed */
0 7 6 7 133 8 1 6 1 6 133 0 5 5 1 97 2 1 1 1 42 77 9 1 4 4 0 97 3 1 0 0 40 0 78 
ELSE[ ]	/* Else */
NPUSHB[ ]	/* 43 values pushed */
0 7 6 7 133 8 1 6 2 6 133 0 1 1 42 77 0 5 5 2 97 0 2 2 48 77 0 0 0 40 77 9 1 4 4 3 97 0 3 3 49 3 78 
EIF[ ]	/* EndIf */
NPUSHB[ ]	/* 21 values pushed */
25 24 57 54 50 47 42 40 32 30 24 37 25 37 38 34 51 50 10 9 26 
CALL[ ]	/* CallFunction */";
};
width = 459;
}
);
note = acircumflex;
unicode = 226;
},
{
glyphname = atilde;
kernLeft = a;
kernRight = a;
layers = (
{
layerId = m01;
shapes = (
{
closed = 1;
nodes = (
(209,-9,qs),
(134,-9,o),
(88,41,qs),
(37,95,o),
(37,184,qs),
(37,262,o),
(79,315,qs),
(129,377,o),
(212,377,qs),
(294,377,o),
(335,319,q),
(343,368,o),
(393,368,qs),
(398,368,ls),
(405,368,o),
(405,359,qs),
(405,9,ls),
(405,0,o),
(398,0,qs),
(339,0,ls),
(331,0,o),
(331,9,qs),
(331,52,l),
(289,-9,o)
);
},
{
closed = 1;
nodes = (
(331,126,o),
(331,184,qs),
(331,246,o),
(298,278,qs),
(269,306,o),
(223,306,qs),
(180,306,o),
(151,280,qs),
(114,246,o),
(114,184,qs),
(114,129,o),
(172,61,o),
(220,61,qs),
(272,61,o)
);
},
{
closed = 1;
nodes = (
(276,430,qs),
(257,430,o),
(221,445,qs),
(191,458,o),
(180,458,qs),
(164,458,o),
(160,439,qs),
(158,429,o),
(151,429,qs),
(116,429,ls),
(108,429,o),
(108,438,qs),
(112,513,o),
(170,513,qs),
(191,513,o),
(228,497,qs),
(259,484,o),
(271,484,qs),
(287,484,o),
(291,502,qs),
(294,512,o),
(302,512,qs),
(336,512,ls),
(345,512,o),
(345,503,q),
(337,430,o)
);
}
);
userData = {
assembly = "NPUSHB[ ]	/* 14 values pushed */
38 1 7 6 12 1 5 1 0 1 0 4 3 76 
MPPEM[ ]	/* MeasurePixelPerEm */
PUSHB[ ]	/* 1 value pushed */
20 
LT[ ]	/* LessThan */
IF[ ]	/* If */
NPUSHB[ ]	/* 47 values pushed */
0 7 6 10 6 7 114 0 10 9 9 10 112 8 1 6 11 1 9 1 6 9 105 0 5 5 1 97 2 1 1 1 42 77 12 1 4 4 0 97 3 1 0 0 40 0 78 
ELSE[ ]	/* Else */
MPPEM[ ]	/* MeasurePixelPerEm */
PUSHB[ ]	/* 1 value pushed */
35 
LT[ ]	/* LessThan */
IF[ ]	/* If */
NPUSHB[ ]	/* 55 values pushed */
0 7 6 10 6 7 114 0 10 9 9 10 112 8 1 6 11 1 9 2 6 9 105 0 1 1 42 77 0 5 5 2 97 0 2 2 48 77 0 0 0 40 77 12 1 4 4 3 97 0 3 3 49 3 78 
ELSE[ ]	/* Else */
NPUSHB[ ]	/* 57 values pushed */
0 7 6 10 6 7 10 128 0 10 9 6 10 9 126 8 1 6 11 1 9 2 6 9 105 0 1 1 42 77 0 5 5 2 97 0 2 2 48 77 0 0 0 40 77 12 1 4 4 3 97 0 3 3 49 3 78 
EIF[ ]	/* EndIf */
EIF[ ]	/* EndIf */
NPUSHB[ ]	/* 27 values pushed */
25 24 63 61 59 57 55 52 50 48 46 44 42 39 32 30 24 37 25 37 38 34 51 50 13 9 26 
CALL[ ]	/* CallFunction */";
};
width = 459;
}
);
note = atilde;
unicode = 227;
},
{
glyphname = adieresis;
kernLeft = a;
kernRight = a;
layers = (
{
layerId = m01;
shapes = (
{
closed = 1;
nodes = (
(209,-9,qs),
(134,-9,o),
(88,41,qs),
(37,95,o),
(37,184,qs),
(37,262,o),
(79,315,qs),
(129,377,o),
(212,377,qs),
(294,377,o),
(335,319,q),
(343,368,o),
(393,368,qs),
(398,368,ls),
(405,368,o),
(405,359,qs),
(405,9,ls),
(405,0,o),
(398,0,qs),
(339,0,ls),
(331,0,o),
(331,9,qs),
(331,52,l),
(289,-9,o)
);
},
{
closed = 1;
nodes = (
(331,126,o),
(331,184,qs),
(331,246,o),
(298,278,qs),
(269,306,o),
(223,306,qs),
(180,306,o),
(151,280,qs),
(114,246,o),
(114,184,qs),
(114,129,o),
(172,61,o),
(220,61,qs),
(272,61,o)
);
},
{
closed = 1;
nodes = (
(133,513,o),
(151,513,qs),
(170,513,o),
(196,486,o),
(196,467,qs),
(196,449,o),
(170,422,o),
(151,422,qs),
(133,422,o),
(107,449,o),
(107,467,qs),
(107,486,o)
);
},
{
closed = 1;
nodes = (
(269,513,o),
(288,513,qs),
(307,513,o),
(333,486,o),
(333,467,qs),
(333,449,o),
(307,422,o),
(288,422,qs),
(269,422,o),
(243,449,o),
(243,467,qs),
(243,486,o)
);
}
);
userData = {
assembly = "NPUSHB[ ]	/* 10 values pushed */
12 1 5 1 0 1 0 4 2 76 
MPPEM[ ]	/* MeasurePixelPerEm */
PUSHB[ ]	/* 1 value pushed */
20 
LT[ ]	/* LessThan */
IF[ ]	/* If */
NPUSHB[ ]	/* 34 values pushed */
9 1 7 8 1 6 1 7 6 105 0 5 5 1 97 2 1 1 1 42 77 10 1 4 4 0 97 3 1 0 0 40 0 78 
ELSE[ ]	/* Else */
NPUSHB[ ]	/* 42 values pushed */
9 1 7 8 1 6 2 7 6 105 0 1 1 42 77 0 5 5 2 97 0 2 2 48 77 0 0 0 40 77 10 1 4 4 3 97 0 3 3 49 3 78 
EIF[ ]	/* EndIf */
NPUSHB[ ]	/* 23 values pushed */
25 24 60 58 54 52 48 46 42 40 32 30 24 37 25 37 38 34 51 50 11 9 26 
CALL[ ]	/* CallFunction */";
};
width = 459;
}
);
note = adieresis;
unicode = 228;
},
{
glyphname = aring;
kernLeft = a;
kernRight = a;
layers = (
{
layerId = m01;
shapes = (
{
closed = 1;
nodes = (
(209,-9,qs),
(134,-9,o),
(88,41,qs),
(37,95,o),
(37,184,qs),
(37,262,o),
(79,315,qs),
(129,377,o),
(212,377,qs),
(294,377,o),
(335,319,q),
(343,368,o),
(393,368,qs),
(398,368,ls),
(405,368,o),
(405,359,qs),
(405,9,ls),
(405,0,o),
(398,0,qs),
(339,0,ls),
(331,0,o),
(331,9,qs),
(331,52,l),
(289,-9,o)
);
},
{
closed = 1;
nodes = (
(331,126,o),
(331,184,qs),
(331,246,o),
(298,278,qs),
(269,306,o),
(223,306,qs),
(180,306,o),
(151,280,qs),
(114,246,o),
(114,184,qs),
(114,129,o),
(172,61,o),
(220,61,qs),
(272,61,o)
);
},
{
closed = 1;
nodes = (
(190,559,o),
(220,559,qs),
(249,559,o),
(290,518,o),
(290,489,qs),
(290,460,o),
(249,419,o),
(220,419,qs),
(190,419,o),
(149,460,o),
(149,489,qs),
(149,518,o)
);
},
{
closed = 1;
nodes = (
(253,475,o),
(253,489,qs),
(253,504,o),
(234,524,o),
(220,524,qs),
(206,524,o),
(186,504,o),
(186,489,qs),
(186,475,o),
(206,455,o),
(220,455,qs),
(234,455,o)
);
}
);
userData = {
assembly = "NPUSHB[ ]	/* 10 values pushed */
12 1 5 1 0 1 0 4 2 76 
MPPEM[ ]	/* MeasurePixelPerEm */
PUSHB[ ]	/* 1 value pushed */
20 
LT[ ]	/* LessThan */
IF[ ]	/* If */
NPUSHB[ ]	/* 43 values pushed */
11 1 8 0 6 1 8 6 105 0 9 9 7 97 0 7 7 39 77 0 5 5 1 97 2 1 1 1 42 77 10 1 4 4 0 97 3 1 0 0 40 0 78 
ELSE[ ]	/* Else */
NPUSHB[ ]	/* 51 values pushed */
11 1 8 0 6 2 8 6 105 0 9 9 7 97 0 7 7 39 77 0 1 1 42 77 0 5 5 2 97 0 2 2 48 77 0 0 0 40 77 10 1 4 4 3 97 0 3 3 49 3 78 
EIF[ ]	/* EndIf */
NPUSHB[ ]	/* 27 values pushed */
51 50 25 24 57 55 50 61 51 61 48 46 42 40 32 30 24 37 25 37 38 34 51 50 12 9 26 
CALL[ ]	/* CallFunction */";
};
width = 459;
}
);
note = aring;
unicode = 229;
},
{
glyphname = ae;
kernLeft = a;
kernRight = e;
layers = (
{
layerId = m01;
shapes = (
{
closed = 1;
nodes = (
(406,0,o),
(398,0,qs),
(341,0,ls),
(333,0,o),
(333,9,qs),
(333,52,l),
(293,-9,o),
(210,-9,qs),
(136,-9,o),
(89,41,qs),
(38,96,o),
(38,184,qs),
(38,262,o),
(80,315,qs),
(130,377,o),
(213,377,qs),
(295,377,o),
(337,319,q),
(344,368,o),
(395,368,qs),
(398,368,ls),
(406,368,o),
(406,360,qs),
(406,319,l),
(455,377,o),
(534,377,qs),
(611,377,o),
(654,331,qs),
(696,286,o),
(696,209,qs),
(696,185,o),
(694,169,qs),
(693,157,o),
(679,157,qs),
(434,157,l),
(439,108,o),
(501,56,o),
(555,56,qs),
(614,56,o),
(666,93,qs),
(668,94,o),
(670,96,qs),
(677,101,o),
(680,101,qs),
(689,101,o),
(689,87,qs),
(689,55,o),
(658,27,qs),
(617,-9,o),
(546,-9,qs),
(456,-9,o),
(406,49,q),
(406,9,ls)
);
},
{
closed = 1;
nodes = (
(332,126,o),
(332,184,qs),
(332,246,o),
(300,278,qs),
(271,306,o),
(224,306,qs),
(181,306,o),
(152,280,qs),
(115,246,o),
(115,184,qs),
(115,129,o),
(173,61,o),
(221,61,qs),
(274,61,o)
);
},
{
closed = 1;
nodes = (
(624,261,o),
(578,312,o),
(534,312,qs),
(492,312,o),
(439,261,o),
(434,214,q),
(621,214,l)
);
}
);
userData = {
assembly = "MPPEM[ ]	/* MeasurePixelPerEm */
PUSHB[ ]	/* 1 value pushed */
20 
LT[ ]	/* LessThan */
IF[ ]	/* If */
NPUSHB[ ]	/* 12 values pushed */
34 28 2 10 4 46 0 2 0 2 2 76 
ELSE[ ]	/* Else */
MPPEM[ ]	/* MeasurePixelPerEm */
PUSHB[ ]	/* 1 value pushed */
31 
LT[ ]	/* LessThan */
IF[ ]	/* If */
NPUSHB[ ]	/* 12 values pushed */
34 28 2 10 5 46 0 2 8 2 2 76 
ELSE[ ]	/* Else */
NPUSHB[ ]	/* 12 values pushed */
34 28 2 11 5 46 0 2 8 2 2 76 
EIF[ ]	/* EndIf */
EIF[ ]	/* EndIf */
MPPEM[ ]	/* MeasurePixelPerEm */
PUSHB[ ]	/* 1 value pushed */
20 
LT[ ]	/* LessThan */
IF[ ]	/* If */
NPUSHB[ ]	/* 45 values pushed */
0 1 3 2 3 1 2 128 14 1 12 0 3 1 12 3 103 11 1 10 10 4 97 6 5 2 4 4 48 77 13 9 2 2 2 0 97 8 7 2 0 0 49 0 78 
ELSE[ ]	/* Else */
MPPEM[ ]	/* MeasurePixelPerEm */
PUSHB[ ]	/* 1 value pushed */
31 
LT[ ]	/* LessThan */
IF[ ]	/* If */
NPUSHB[ ]	/* 53 values pushed */
0 1 3 2 3 1 2 128 14 1 12 0 3 1 12 3 103 0 5 5 42 77 11 1 10 10 4 97 6 1 4 4 48 77 0 8 8 40 77 13 9 2 2 2 0 97 7 1 0 0 49 0 78 
ELSE[ ]	/* Else */
MPPEM[ ]	/* MeasurePixelPerEm */
PUSHB[ ]	/* 1 value pushed */
37 
LT[ ]	/* LessThan */
IF[ ]	/* If */
NPUSHB[ ]	/* 63 values pushed */
0 1 3 2 3 1 2 128 14 1 12 0 3 1 12 3 103 0 5 5 42 77 0 11 11 4 97 6 1 4 4 48 77 0 10 10 4 97 6 1 4 4 48 77 0 8 8 40 77 13 9 2 2 2 0 97 7 1 0 0 49 0 78 
ELSE[ ]	/* Else */
NPUSHB[ ]	/* 73 values pushed */
0 1 3 9 3 1 9 128 14 1 12 0 3 1 12 3 103 0 5 5 42 77 0 11 11 4 97 6 1 4 4 48 77 0 10 10 4 97 6 1 4 4 48 77 13 1 9 9 0 97 7 1 0 0 49 77 0 8 8 40 77 0 2 2 0 97 7 1 0 0 49 0 78 
EIF[ ]	/* EndIf */
EIF[ ]	/* EndIf */
EIF[ ]	/* EndIf */
NPUSHB[ ]	/* 28 values pushed */
67 67 54 53 67 73 67 73 71 69 61 59 53 66 54 66 51 38 34 51 38 34 37 20 33 15 9 31 
CALL[ ]	/* CallFunction */";
};
width = 731;
}
);
note = ae;
unicode = 230;
},
{
glyphname = ccedilla;
kernLeft = c;
kernRight = c;
layers = (
{
layerId = m01;
shapes = (
{
closed = 1;
nodes = (
(199,-98,o),
(181,-98,qs),
(131,-98,ls),
(122,-98,o),
(127,-89,qs),
(180,-7,l),
(119,3,o),
(82,47,qs),
(38,99,o),
(38,183,qs),
(38,264,o),
(82,317,qs),
(133,377,o),
(220,377,qs),
(266,377,o),
(304,362,qs),
(343,347,o),
(332,307,qs),
(327,288,l),
(326,280,o),
(320,280,qs),
(317,280,o),
(312,283,qs),
(266,307,o),
(223,307,qs),
(178,307,o),
(149,279,qs),
(115,245,o),
(115,182,qs),
(115,127,o),
(141,95,qs),
(172,57,o),
(231,57,qs),
(286,57,o),
(322,94,qs),
(329,101,o),
(334,101,qs),
(344,101,o),
(344,86,qs),
(344,52,o),
(287,-1,o),
(245,-8,q),
(205,-87,ls)
);
}
);
userData = {
assembly = "NPUSHB[ ]	/* 48 values pushed */
36 1 5 1 1 76 0 3 2 0 2 3 0 128 0 0 1 2 0 1 126 0 1 0 5 1 5 101 0 2 2 4 97 0 4 4 48 2 78 57 37 34 38 35 20 6 9 28 
CALL[ ]	/* CallFunction */";
};
width = 363;
}
);
note = ccedilla;
unicode = 231;
},
{
glyphname = egrave;
kernLeft = e;
kernRight = e;
layers = (
{
layerId = m01;
shapes = (
{
closed = 1;
nodes = (
(233,56,qs),
(294,56,o),
(346,93,qs),
(348,94,o),
(351,97,q),
(357,101,o),
(360,101,qs),
(370,101,o),
(370,87,qs),
(370,54,o),
(338,27,qs),
(296,-9,o),
(224,-9,qs),
(151,-9,o),
(101,31,qs),
(37,83,o),
(37,184,qs),
(37,263,o),
(79,315,qs),
(129,377,o),
(212,377,qs),
(289,377,o),
(332,331,qs),
(376,285,o),
(376,208,qs),
(376,188,o),
(374,169,qs),
(372,157,o),
(359,157,qs),
(111,157,l),
(122,56,o)
);
},
{
closed = 1;
nodes = (
(304,259,o),
(256,311,o),
(211,311,qs),
(169,311,o),
(117,260,o),
(113,214,q),
(302,214,l)
);
},
{
closed = 1;
nodes = (
(280,430,o),
(276,430,qs),
(224,430,ls),
(207,430,o),
(195,441,qs),
(113,507,ls),
(110,509,o),
(113,516,o),
(117,516,qs),
(181,516,ls),
(196,516,o),
(206,506,qs),
(280,439,l),
(283,437,o)
);
}
);
userData = {
assembly = "NPUSHB[ ]	/* 67 values pushed */
0 7 8 7 133 0 8 1 8 133 0 3 0 4 0 3 4 128 9 1 6 0 0 3 6 0 103 0 5 5 1 97 0 1 1 48 77 0 4 4 2 97 0 2 2 49 2 78 31 31 49 47 42 40 31 37 31 37 35 37 20 38 38 32 10 9 28 
CALL[ ]	/* CallFunction */";
};
width = 412;
}
);
note = egrave;
unicode = 232;
},
{
glyphname = eacute;
kernLeft = e;
kernRight = e;
layers = (
{
layerId = m01;
shapes = (
{
closed = 1;
nodes = (
(233,56,qs),
(294,56,o),
(346,93,qs),
(348,94,o),
(351,97,q),
(357,101,o),
(360,101,qs),
(370,101,o),
(370,87,qs),
(370,54,o),
(338,27,qs),
(296,-9,o),
(224,-9,qs),
(151,-9,o),
(101,31,qs),
(37,83,o),
(37,184,qs),
(37,263,o),
(79,315,qs),
(129,377,o),
(212,377,qs),
(289,377,o),
(332,331,qs),
(376,285,o),
(376,208,qs),
(376,188,o),
(374,169,qs),
(372,157,o),
(359,157,qs),
(111,157,l),
(122,56,o)
);
},
{
closed = 1;
nodes = (
(304,259,o),
(256,311,o),
(211,311,qs),
(169,311,o),
(117,260,o),
(113,214,q),
(302,214,l)
);
},
{
closed = 1;
nodes = (
(215,516,o),
(227,516,qs),
(293,516,ls),
(297,516,o),
(300,509,o),
(296,507,q),
(215,441,ls),
(203,430,o),
(186,430,qs),
(134,430,ls),
(129,430,o),
(127,437,o),
(130,439,q),
(203,506,ls)
);
}
);
userData = {
assembly = "NPUSHB[ ]	/* 67 values pushed */
0 8 7 8 133 0 7 1 7 133 0 3 0 4 0 3 4 128 9 1 6 0 0 3 6 0 103 0 5 5 1 97 0 1 1 48 77 0 4 4 2 97 0 2 2 49 2 78 31 31 50 47 43 40 31 37 31 37 35 37 20 38 38 32 10 9 28 
CALL[ ]	/* CallFunction */";
};
width = 412;
}
);
note = eacute;
unicode = 233;
},
{
glyphname = ecircumflex;
kernLeft = e;
kernRight = e;
layers = (
{
layerId = m01;
shapes = (
{
closed = 1;
nodes = (
(233,56,qs),
(294,56,o),
(346,93,qs),
(348,94,o),
(351,97,q),
(357,101,o),
(360,101,qs),
(370,101,o),
(370,87,qs),
(370,54,o),
(338,27,qs),
(296,-9,o),
(224,-9,qs),
(151,-9,o),
(101,31,qs),
(37,83,o),
(37,184,qs),
(37,263,o),
(79,315,qs),
(129,377,o),
(212,377,qs),
(289,377,o),
(332,331,qs),
(376,285,o),
(376,208,qs),
(376,188,o),
(374,169,qs),
(372,157,o),
(359,157,qs),
(111,157,l),
(122,56,o)
);
},
{
closed = 1;
nodes = (
(304,259,o),
(256,311,o),
(211,311,qs),
(169,311,o),
(117,260,o),
(113,214,q),
(302,214,l)
);
},
{
closed = 1;
nodes = (
(163,430,o),
(145,430,qs),
(98,430,ls),
(94,430,o),
(91,437,o),
(94,439,q),
(163,506,ls),
(173,516,o),
(188,516,qs),
(241,516,ls),
(255,516,o),
(265,506,qs),
(335,439,l),
(337,436,o),
(335,430,o),
(331,430,qs),
(284,430,ls),
(268,430,o),
(255,442,qs),
(214,485,l),
(174,442,ls)
);
}
);
userData = {
assembly = "NPUSHB[ ]	/* 76 values pushed */
52 1 7 8 1 76 0 8 7 8 133 9 1 7 1 7 133 0 3 0 4 0 3 4 128 10 1 6 0 0 3 6 0 103 0 5 5 1 97 0 1 1 48 77 0 4 4 2 97 0 2 2 49 2 78 31 31 57 54 50 47 42 40 31 37 31 37 35 37 20 38 38 32 11 9 28 
CALL[ ]	/* CallFunction */";
};
width = 412;
}
);
note = ecircumflex;
unicode = 234;
},
{
glyphname = edieresis;
kernLeft = e;
kernRight = e;
layers = (
{
layerId = m01;
shapes = (
{
closed = 1;
nodes = (
(233,56,qs),
(294,56,o),
(346,93,qs),
(348,94,o),
(351,97,q),
(357,101,o),
(360,101,qs),
(370,101,o),
(370,87,qs),
(370,54,o),
(338,27,qs),
(296,-9,o),
(224,-9,qs),
(151,-9,o),
(101,31,qs),
(37,83,o),
(37,184,qs),
(37,263,o),
(79,315,qs),
(129,377,o),
(212,377,qs),
(289,377,o),
(332,331,qs),
(376,285,o),
(376,208,qs),
(376,188,o),
(374,169,qs),
(372,157,o),
(359,157,qs),
(111,157,l),
(122,56,o)
);
},
{
closed = 1;
nodes = (
(304,259,o),
(256,311,o),
(211,311,qs),
(169,311,o),
(117,260,o),
(113,214,q),
(302,214,l)
);
},
{
closed = 1;
nodes = (
(126,513,o),
(145,513,qs),
(164,513,o),
(190,486,o),
(190,467,qs),
(190,449,o),
(164,422,o),
(145,422,qs),
(126,422,o),
(100,449,o),
(100,467,qs),
(100,486,o)
);
},
{
closed = 1;
nodes = (
(263,513,o),
(281,513,qs),
(300,513,o),
(326,486,o),
(326,467,qs),
(326,449,o),
(300,422,o),
(281,422,qs),
(263,422,o),
(236,449,o),
(236,467,qs),
(236,486,o)
);
}
);
userData = {
assembly = "NPUSHB[ ]	/* 71 values pushed */
0 3 0 4 0 3 4 128 10 1 8 9 1 7 1 8 7 105 11 1 6 0 0 3 6 0 103 0 5 5 1 97 0 1 1 48 77 0 4 4 2 97 0 2 2 49 2 78 31 31 60 58 54 52 48 46 42 40 31 37 31 37 35 37 20 38 38 32 12 9 28 
CALL[ ]	/* CallFunction */";
};
width = 412;
}
);
note = edieresis;
unicode = 235;
},
{
glyphname = igrave;
kernLeft = i;
kernRight = i;
layers = (
{
layerId = m01;
shapes = (
{
closed = 1;
nodes = (
(53,9,qs),
(53,359,ls),
(53,368,o),
(61,368,qs),
(66,368,ls),
(128,368,o),
(128,299,qs),
(128,9,ls),
(128,0,o),
(120,0,qs),
(61,0,ls),
(53,0,o)
);
},
{
closed = 1;
nodes = (
(173,430,o),
(169,430,qs),
(116,430,ls),
(100,430,o),
(88,441,qs),
(6,507,ls),
(3,509,o),
(5,516,o),
(10,516,qs),
(74,516,ls),
(89,516,o),
(99,506,qs),
(173,439,l),
(176,437,o)
);
}
);
userData = {
assembly = "NPUSHB[ ]	/* 37 values pushed */
0 2 3 2 133 0 3 1 3 133 0 1 1 42 77 4 1 0 0 40 0 78 2 0 23 21 16 14 8 5 0 11 2 11 5 9 22 
CALL[ ]	/* CallFunction */";
};
width = 180;
}
);
note = igrave;
unicode = 236;
},
{
glyphname = iacute;
kernLeft = i;
kernRight = i;
layers = (
{
layerId = m01;
shapes = (
{
closed = 1;
nodes = (
(54,9,qs),
(54,359,ls),
(54,368,o),
(61,368,qs),
(66,368,ls),
(128,368,o),
(128,299,qs),
(128,9,ls),
(128,0,o),
(120,0,qs),
(61,0,ls),
(54,0,o)
);
},
{
closed = 1;
nodes = (
(91,516,o),
(103,516,qs),
(169,516,ls),
(173,516,o),
(176,509,o),
(173,507,qs),
(91,441,ls),
(79,430,o),
(63,430,qs),
(10,430,ls),
(6,430,o),
(3,437,o),
(6,439,q),
(79,506,ls)
);
}
);
userData = {
assembly = "NPUSHB[ ]	/* 44 values pushed */
19 12 2 2 3 1 76 0 3 2 3 133 0 2 1 2 133 0 1 1 42 77 4 1 0 0 40 0 78 2 0 24 21 17 14 8 5 0 11 2 11 5 9 22 
CALL[ ]	/* CallFunction */";
};
width = 180;
}
);
note = iacute;
unicode = 237;
},
{
glyphname = icircumflex;
kernLeft = i;
kernRight = i;
layers = (
{
layerId = m01;
shapes = (
{
closed = 1;
nodes = (
(53,9,qs),
(53,359,ls),
(53,368,o),
(61,368,qs),
(66,368,ls),
(127,368,o),
(127,299,qs),
(127,9,ls),
(127,0,o),
(119,0,qs),
(61,0,ls),
(53,0,o)
);
},
{
closed = 1;
nodes = (
(38,430,o),
(19,430,qs),
(-27,430,ls),
(-31,430,o),
(-34,437,o),
(-31,439,q),
(37,506,ls),
(47,516,o),
(62,516,qs),
(116,516,ls),
(130,516,o),
(140,506,qs),
(209,439,ls),
(212,436,o),
(209,430,o),
(206,430,qs),
(159,430,ls),
(142,430,o),
(130,442,qs),
(89,485,l),
(48,442,ls)
);
}
);
userData = {
assembly = "NPUSHB[ ]	/* 46 values pushed */
26 1 2 3 1 76 0 3 2 3 133 4 1 2 1 2 133 0 1 1 42 77 5 1 0 0 40 0 78 2 0 31 28 24 21 16 14 8 5 0 11 2 11 6 9 22 
CALL[ ]	/* CallFunction */";
};
width = 180;
}
);
note = icircumflex;
unicode = 238;
},
{
glyphname = idieresis;
kernLeft = i;
kernRight = i;
layers = (
{
layerId = m01;
shapes = (
{
closed = 1;
nodes = (
(53,9,qs),
(53,359,ls),
(53,368,o),
(60,368,qs),
(65,368,ls),
(127,368,o),
(127,299,qs),
(127,9,ls),
(127,0,o),
(119,0,qs),
(60,0,ls),
(53,0,o)
);
},
{
closed = 1;
nodes = (
(3,513,o),
(21,513,qs),
(40,513,o),
(66,486,o),
(66,467,qs),
(66,448,o),
(40,422,o),
(21,422,qs),
(3,422,o),
(-23,449,o),
(-23,467,qs),
(-23,486,o)
);
},
{
closed = 1;
nodes = (
(139,513,o),
(158,513,qs),
(177,513,o),
(203,486,o),
(203,467,qs),
(203,449,o),
(177,422,o),
(158,422,qs),
(139,422,o),
(113,448,o),
(113,467,qs),
(113,486,o)
);
}
);
userData = {
assembly = "NPUSHB[ ]	/* 41 values pushed */
5 1 3 4 1 2 1 3 2 105 0 1 1 42 77 6 1 0 0 40 0 78 2 0 34 32 28 26 22 20 16 14 8 5 0 11 2 11 7 9 22 
CALL[ ]	/* CallFunction */";
};
width = 180;
}
);
note = idieresis;
unicode = 239;
},
{
glyphname = eth;
layers = (
{
layerId = m01;
shapes = (
{
closed = 1;
nodes = (
(130,407,l),
(124,405,o),
(120,412,q),
(102,436,l),
(98,443,o),
(106,447,qs),
(166,479,l),
(119,547,ls),
(112,556,o),
(124,556,qs),
(144,556,ls),
(173,556,o),
(206,541,o),
(220,522,qs),
(228,511,l),
(280,538,ls),
(287,542,o),
(291,534,q),
(309,510,l),
(313,502,o),
(306,499,qs),
(256,472,l),
(361,322,ls),
(407,259,o),
(407,195,qs),
(407,109,o),
(368,57,qs),
(320,-9,o),
(223,-9,qs),
(146,-9,o),
(96,34,qs),
(38,84,o),
(38,173,qs),
(38,252,o),
(77,305,qs),
(125,369,o),
(214,369,qs),
(226,369,o),
(246,367,q),
(193,441,l)
);
},
{
closed = 1;
nodes = (
(296,85,qs),
(331,117,o),
(331,179,qs),
(331,232,o),
(304,264,qs),
(273,300,o),
(222,300,qs),
(176,300,o),
(148,273,qs),
(114,240,o),
(114,179,qs),
(114,123,o),
(171,59,o),
(221,59,qs),
(267,59,o)
);
}
);
userData = {
assembly = "NPUSHB[ ]	/* 51 values pushed */
39 32 24 17 4 0 2 1 76 0 2 2 39 77 0 4 4 0 97 0 0 0 42 77 5 1 3 3 1 98 0 1 1 49 1 78 41 40 48 46 40 54 41 54 30 27 38 33 6 9 24 
CALL[ ]	/* CallFunction */";
};
width = 444;
}
);
note = eth;
unicode = 240;
},
{
glyphname = ntilde;
kernLeft = n;
kernRight = n;
layers = (
{
layerId = m01;
shapes = (
{
closed = 1;
nodes = (
(240,376,qs),
(305,376,o),
(344,338,qs),
(390,295,o),
(390,216,qs),
(390,9,ls),
(390,0,o),
(382,0,qs),
(323,0,ls),
(315,0,o),
(315,9,qs),
(315,202,ls),
(315,252,o),
(267,307,o),
(223,307,qs),
(126,307,o),
(126,198,qs),
(126,9,ls),
(126,0,o),
(119,0,qs),
(60,0,ls),
(52,0,o),
(52,9,qs),
(52,359,ls),
(52,368,o),
(60,368,qs),
(65,368,ls),
(116,368,o),
(124,318,q),
(162,376,o)
);
},
{
closed = 1;
nodes = (
(270,430,qs),
(251,430,o),
(214,445,qs),
(184,458,o),
(174,458,qs),
(157,458,o),
(154,439,qs),
(152,429,o),
(145,429,qs),
(110,429,ls),
(102,429,o),
(102,438,qs),
(106,513,o),
(164,513,qs),
(185,513,o),
(222,497,qs),
(253,484,o),
(265,484,qs),
(281,484,o),
(285,502,qs),
(288,512,o),
(296,512,qs),
(330,512,ls),
(339,512,o),
(339,503,q),
(331,430,o)
);
}
);
userData = {
assembly = "PUSHB[ ]	/* 6 values pushed */
30 1 6 5 1 76 
MPPEM[ ]	/* MeasurePixelPerEm */
PUSHB[ ]	/* 1 value pushed */
25 
LT[ ]	/* LessThan */
IF[ ]	/* If */
NPUSHB[ ]	/* 41 values pushed */
0 6 5 9 5 6 114 0 9 8 8 9 112 7 1 5 10 1 8 0 5 8 105 0 2 2 0 97 4 1 0 0 42 77 3 1 1 1 40 1 78 
ELSE[ ]	/* Else */
MPPEM[ ]	/* MeasurePixelPerEm */
PUSHB[ ]	/* 1 value pushed */
35 
LT[ ]	/* LessThan */
IF[ ]	/* If */
NPUSHB[ ]	/* 45 values pushed */
0 6 5 9 5 6 114 0 9 8 8 9 112 7 1 5 10 1 8 4 5 8 105 0 0 0 42 77 0 2 2 4 97 0 4 4 48 77 3 1 1 1 40 1 78 
ELSE[ ]	/* Else */
NPUSHB[ ]	/* 47 values pushed */
0 6 5 9 5 6 9 128 0 9 8 5 9 8 126 7 1 5 10 1 8 4 5 8 105 0 0 0 42 77 0 2 2 4 97 0 4 4 48 77 3 1 1 1 40 1 78 
EIF[ ]	/* EndIf */
EIF[ ]	/* EndIf */
NPUSHB[ ]	/* 16 values pushed */
55 53 51 49 50 34 34 50 37 52 35 51 49 11 9 31 
CALL[ ]	/* CallFunction */";
};
width = 441;
}
);
note = ntilde;
unicode = 241;
},
{
glyphname = ograve;
kernLeft = o;
kernRight = o;
layers = (
{
layerId = m01;
shapes = (
{
closed = 1;
nodes = (
(94,37,qs),
(37,90,o),
(37,183,qs),
(37,264,o),
(81,316,qs),
(133,377,o),
(222,377,qs),
(301,377,o),
(351,330,qs),
(409,277,o),
(409,184,qs),
(409,103,o),
(364,51,qs),
(313,-9,o),
(223,-9,qs),
(144,-9,o)
);
},
{
closed = 1;
nodes = (
(296,88,qs),
(332,121,o),
(332,183,qs),
(332,236,o),
(304,270,qs),
(273,306,o),
(222,306,qs),
(177,306,o),
(148,278,qs),
(114,244,o),
(114,183,qs),
(114,127,o),
(172,62,o),
(222,62,qs),
(267,62,o)
);
},
{
closed = 1;
nodes = (
(302,430,o),
(298,430,qs),
(245,430,ls),
(229,430,o),
(216,441,qs),
(135,507,ls),
(132,509,o),
(134,516,o),
(139,516,qs),
(203,516,ls),
(217,516,o),
(228,506,qs),
(301,439,l),
(305,437,o)
);
}
);
userData = {
assembly = "NPUSHB[ ]	/* 56 values pushed */
0 4 5 4 133 0 5 1 5 133 0 3 3 1 97 0 1 1 48 77 7 1 2 2 0 97 6 1 0 0 49 0 78 17 16 1 0 42 40 35 33 24 22 16 30 17 30 9 7 0 15 1 15 8 9 22 
CALL[ ]	/* CallFunction */";
};
width = 447;
}
);
note = ograve;
unicode = 242;
},
{
glyphname = oacute;
kernLeft = o;
kernRight = o;
layers = (
{
layerId = m01;
shapes = (
{
closed = 1;
nodes = (
(94,37,qs),
(37,90,o),
(37,183,qs),
(37,264,o),
(81,316,qs),
(133,377,o),
(222,377,qs),
(301,377,o),
(351,330,qs),
(409,277,o),
(409,184,qs),
(409,103,o),
(364,51,qs),
(313,-9,o),
(223,-9,qs),
(144,-9,o)
);
},
{
closed = 1;
nodes = (
(296,88,qs),
(332,121,o),
(332,183,qs),
(332,236,o),
(304,270,qs),
(273,306,o),
(222,306,qs),
(177,306,o),
(148,278,qs),
(114,244,o),
(114,183,qs),
(114,127,o),
(172,62,o),
(222,62,qs),
(267,62,o)
);
},
{
closed = 1;
nodes = (
(227,516,o),
(239,516,qs),
(305,516,ls),
(309,516,o),
(312,509,o),
(309,507,qs),
(228,441,ls),
(215,430,o),
(199,430,qs),
(146,430,ls),
(142,430,o),
(139,437,o),
(142,439,q),
(215,506,ls)
);
}
);
userData = {
assembly = "NPUSHB[ ]	/* 63 values pushed */
38 31 2 4 5 1 76 0 5 4 5 133 0 4 1 4 133 0 3 3 1 97 0 1 1 48 77 7 1 2 2 0 97 6 1 0 0 49 0 78 17 16 1 0 43 40 36 33 24 22 16 30 17 30 9 7 0 15 1 15 8 9 22 
CALL[ ]	/* CallFunction */";
};
width = 447;
}
);
note = oacute;
unicode = 243;
},
{
glyphname = ocircumflex;
kernLeft = o;
kernRight = o;
layers = (
{
layerId = m01;
shapes = (
{
closed = 1;
nodes = (
(94,37,qs),
(37,90,o),
(37,183,qs),
(37,264,o),
(81,316,qs),
(133,377,o),
(222,377,qs),
(301,377,o),
(351,330,qs),
(409,277,o),
(409,184,qs),
(409,103,o),
(364,51,qs),
(313,-9,o),
(223,-9,qs),
(144,-9,o)
);
},
{
closed = 1;
nodes = (
(296,88,qs),
(332,121,o),
(332,183,qs),
(332,236,o),
(304,270,qs),
(273,306,o),
(222,306,qs),
(177,306,o),
(148,278,qs),
(114,244,o),
(114,183,qs),
(114,127,o),
(172,62,o),
(222,62,qs),
(267,62,o)
);
},
{
closed = 1;
nodes = (
(172,430,o),
(154,430,qs),
(107,430,ls),
(103,430,o),
(100,437,o),
(103,439,q),
(171,506,ls),
(181,516,o),
(196,516,qs),
(250,516,ls),
(264,516,o),
(274,506,qs),
(344,439,ls),
(346,437,o),
(343,430,o),
(340,430,qs),
(293,430,ls),
(276,430,o),
(264,442,qs),
(223,485,l),
(183,442,ls)
);
}
);
userData = {
assembly = "NPUSHB[ ]	/* 65 values pushed */
45 1 4 5 1 76 0 5 4 5 133 6 1 4 1 4 133 0 3 3 1 97 0 1 1 48 77 8 1 2 2 0 97 7 1 0 0 49 0 78 17 16 1 0 50 47 43 40 35 33 24 22 16 30 17 30 9 7 0 15 1 15 9 9 22 
CALL[ ]	/* CallFunction */";
};
width = 447;
}
);
note = ocircumflex;
unicode = 244;
},
{
glyphname = otilde;
kernLeft = o;
kernRight = o;
layers = (
{
layerId = m01;
shapes = (
{
closed = 1;
nodes = (
(94,37,qs),
(37,90,o),
(37,183,qs),
(37,264,o),
(81,316,qs),
(133,377,o),
(222,377,qs),
(301,377,o),
(351,330,qs),
(409,277,o),
(409,184,qs),
(409,103,o),
(364,51,qs),
(313,-9,o),
(223,-9,qs),
(144,-9,o)
);
},
{
closed = 1;
nodes = (
(296,88,qs),
(332,121,o),
(332,183,qs),
(332,236,o),
(304,270,qs),
(273,306,o),
(222,306,qs),
(177,306,o),
(148,278,qs),
(114,244,o),
(114,183,qs),
(114,127,o),
(172,62,o),
(222,62,qs),
(267,62,o)
);
},
{
closed = 1;
nodes = (
(270,430,qs),
(251,430,o),
(214,445,qs),
(184,458,o),
(174,458,qs),
(157,458,o),
(154,439,qs),
(152,429,o),
(145,429,qs),
(110,429,ls),
(102,429,o),
(102,438,qs),
(106,513,o),
(164,513,qs),
(185,513,o),
(222,497,qs),
(253,484,o),
(265,484,qs),
(281,484,o),
(285,502,qs),
(288,512,o),
(296,512,qs),
(330,512,ls),
(339,512,o),
(339,503,q),
(331,430,o)
);
}
);
userData = {
assembly = "PUSHB[ ]	/* 6 values pushed */
31 1 5 4 1 76 
MPPEM[ ]	/* MeasurePixelPerEm */
PUSHB[ ]	/* 1 value pushed */
35 
LT[ ]	/* LessThan */
IF[ ]	/* If */
NPUSHB[ ]	/* 46 values pushed */
0 5 4 8 4 5 114 0 8 7 7 8 112 6 1 4 9 1 7 1 4 7 105 0 3 3 1 97 0 1 1 48 77 11 1 2 2 0 97 10 1 0 0 49 0 78 
ELSE[ ]	/* Else */
NPUSHB[ ]	/* 48 values pushed */
0 5 4 8 4 5 8 128 0 8 7 4 8 7 126 6 1 4 9 1 7 1 4 7 105 0 3 3 1 97 0 1 1 48 77 11 1 2 2 0 97 10 1 0 0 49 0 78 
EIF[ ]	/* EndIf */
NPUSHB[ ]	/* 31 values pushed */
17 16 1 0 56 54 52 50 48 45 43 41 39 37 35 32 24 22 16 30 17 30 9 7 0 15 1 15 12 9 22 
CALL[ ]	/* CallFunction */";
};
width = 447;
}
);
note = otilde;
unicode = 245;
},
{
glyphname = odieresis;
kernLeft = o;
kernRight = o;
layers = (
{
layerId = m01;
shapes = (
{
closed = 1;
nodes = (
(94,37,qs),
(37,90,o),
(37,183,qs),
(37,264,o),
(81,316,qs),
(133,377,o),
(222,377,qs),
(301,377,o),
(351,330,qs),
(409,277,o),
(409,184,qs),
(409,103,o),
(364,51,qs),
(313,-9,o),
(223,-9,qs),
(144,-9,o)
);
},
{
closed = 1;
nodes = (
(296,88,qs),
(332,121,o),
(332,183,qs),
(332,236,o),
(304,270,qs),
(273,306,o),
(222,306,qs),
(177,306,o),
(148,278,qs),
(114,244,o),
(114,183,qs),
(114,127,o),
(172,62,o),
(222,62,qs),
(267,62,o)
);
},
{
closed = 1;
nodes = (
(136,513,o),
(155,513,qs),
(174,513,o),
(200,486,o),
(200,467,qs),
(200,449,o),
(174,422,o),
(155,422,qs),
(136,422,o),
(110,449,o),
(110,467,qs),
(110,486,o)
);
},
{
closed = 1;
nodes = (
(273,513,o),
(291,513,qs),
(310,513,o),
(336,486,o),
(336,467,qs),
(336,449,o),
(310,422,o),
(291,422,qs),
(273,422,o),
(246,449,o),
(246,467,qs),
(246,486,o)
);
}
);
userData = {
assembly = "NPUSHB[ ]	/* 60 values pushed */
7 1 5 6 1 4 1 5 4 105 0 3 3 1 97 0 1 1 48 77 9 1 2 2 0 97 8 1 0 0 49 0 78 17 16 1 0 53 51 47 45 41 39 35 33 24 22 16 30 17 30 9 7 0 15 1 15 10 9 22 
CALL[ ]	/* CallFunction */";
};
width = 447;
}
);
note = odieresis;
unicode = 246;
},
{
glyphname = divide;
layers = (
{
layerId = m01;
shapes = (
{
closed = 1;
nodes = (
(37,247,qs),
(37,295,ls),
(37,304,o),
(45,304,qs),
(315,304,ls),
(366,304,o),
(366,257,qs),
(366,247,ls),
(366,238,o),
(358,238,qs),
(45,238,ls),
(37,238,o)
);
},
{
closed = 1;
nodes = (
(183,448,o),
(201,448,qs),
(219,448,o),
(244,423,o),
(244,404,qs),
(244,387,o),
(219,362,o),
(201,362,qs),
(183,362,o),
(158,387,o),
(158,404,qs),
(158,423,o)
);
},
{
closed = 1;
nodes = (
(184,181,o),
(201,181,qs),
(219,181,o),
(244,155,o),
(244,137,qs),
(244,119,o),
(219,94,o),
(201,94,qs),
(183,94,o),
(158,120,o),
(158,137,qs),
(158,155,o)
);
}
);
userData = {
assembly = "NPUSHB[ ]	/* 52 values pushed */
0 3 0 2 1 3 2 105 0 1 6 1 0 5 1 0 103 0 5 4 4 5 89 0 5 5 4 97 0 4 5 4 81 2 0 34 32 28 26 22 20 16 14 8 5 0 11 2 11 7 9 22 
CALL[ ]	/* CallFunction */";
};
width = 403;
}
);
note = divide;
unicode = 247;
},
{
glyphname = oslash;
kernLeft = o;
kernRight = o;
layers = (
{
layerId = m01;
shapes = (
{
closed = 1;
nodes = (
(251,306,o),
(223,306,qs),
(178,306,o),
(149,278,qs),
(115,245,o),
(115,183,qs),
(115,127,o),
(144,96,q),
(271,294,l)
);
},
{
closed = 1;
nodes = (
(203,61,o),
(223,61,qs),
(268,61,o),
(297,88,qs),
(333,120,o),
(333,183,qs),
(333,227,o),
(312,257,q),
(190,66,l)
);
},
{
closed = 1;
nodes = (
(95,37,qs),
(38,90,o),
(38,183,qs),
(38,264,o),
(82,316,qs),
(134,377,o),
(223,377,qs),
(302,377,o),
(352,330,qs),
(410,277,o),
(410,184,qs),
(410,103,o),
(365,51,qs),
(314,-9,o),
(224,-9,qs),
(145,-9,o)
);
}
);
userData = {
assembly = "NPUSHB[ ]	/* 42 values pushed */
17 8 2 1 0 1 76 0 0 0 3 97 0 3 3 48 77 0 1 1 2 97 4 1 2 2 49 2 78 19 18 27 25 18 33 19 33 39 37 5 9 24 
CALL[ ]	/* CallFunction */";
};
width = 447;
}
);
note = oslash;
unicode = 248;
},
{
glyphname = ugrave;
kernLeft = u;
kernRight = u;
layers = (
{
layerId = m01;
shapes = (
{
closed = 1;
nodes = (
(95,32,qs),
(49,79,o),
(49,172,qs),
(49,359,ls),
(49,368,o),
(57,368,qs),
(62,368,ls),
(123,368,o),
(123,299,qs),
(123,164,ls),
(123,113,o),
(170,59,o),
(213,59,qs),
(303,59,o),
(303,161,qs),
(303,359,ls),
(303,368,o),
(311,368,qs),
(316,368,ls),
(378,368,o),
(378,299,qs),
(378,167,ls),
(378,89,o),
(342,43,qs),
(299,-10,o),
(213,-10,qs),
(137,-10,o)
);
},
{
closed = 1;
nodes = (
(282,430,o),
(278,430,qs),
(226,430,ls),
(209,430,o),
(197,441,qs),
(115,507,ls),
(112,509,o),
(115,516,o),
(119,516,qs),
(183,516,ls),
(198,516,o),
(208,506,qs),
(282,439,l),
(285,437,o)
);
}
);
userData = {
assembly = "NPUSHB[ ]	/* 47 values pushed */
0 4 5 4 133 0 5 1 5 133 3 1 1 1 42 77 0 2 2 0 98 6 1 0 0 46 0 78 1 0 38 36 31 29 21 18 14 12 9 6 0 26 1 26 7 9 22 
CALL[ ]	/* CallFunction */";
};
width = 432;
}
);
note = ugrave;
unicode = 249;
},
{
glyphname = uacute;
kernLeft = u;
kernRight = u;
layers = (
{
layerId = m01;
shapes = (
{
closed = 1;
nodes = (
(95,32,qs),
(49,79,o),
(49,172,qs),
(49,359,ls),
(49,368,o),
(57,368,qs),
(62,368,ls),
(123,368,o),
(123,299,qs),
(123,164,ls),
(123,113,o),
(170,59,o),
(213,59,qs),
(303,59,o),
(303,161,qs),
(303,359,ls),
(303,368,o),
(311,368,qs),
(316,368,ls),
(378,368,o),
(378,299,qs),
(378,167,ls),
(378,89,o),
(342,43,qs),
(299,-10,o),
(213,-10,qs),
(137,-10,o)
);
},
{
closed = 1;
nodes = (
(215,516,o),
(228,516,qs),
(293,516,ls),
(298,516,o),
(301,509,o),
(297,507,q),
(216,441,ls),
(204,430,o),
(187,430,qs),
(135,430,ls),
(130,430,o),
(128,437,o),
(131,439,q),
(204,506,ls)
);
}
);
userData = {
assembly = "NPUSHB[ ]	/* 47 values pushed */
0 5 4 5 133 0 4 1 4 133 3 1 1 1 42 77 0 2 2 0 98 6 1 0 0 46 0 78 1 0 39 36 32 29 21 18 14 12 9 6 0 26 1 26 7 9 22 
CALL[ ]	/* CallFunction */";
};
width = 432;
}
);
note = uacute;
unicode = 250;
},
{
glyphname = ucircumflex;
kernLeft = u;
kernRight = u;
layers = (
{
layerId = m01;
shapes = (
{
closed = 1;
nodes = (
(95,32,qs),
(49,79,o),
(49,172,qs),
(49,359,ls),
(49,368,o),
(57,368,qs),
(62,368,ls),
(123,368,o),
(123,299,qs),
(123,164,ls),
(123,113,o),
(170,59,o),
(213,59,qs),
(303,59,o),
(303,161,qs),
(303,359,ls),
(303,368,o),
(311,368,qs),
(316,368,ls),
(378,368,o),
(378,299,qs),
(378,167,ls),
(378,89,o),
(342,43,qs),
(299,-10,o),
(213,-10,qs),
(137,-10,o)
);
},
{
closed = 1;
nodes = (
(159,430,o),
(141,430,qs),
(94,430,ls),
(90,430,o),
(87,437,o),
(90,439,q),
(158,506,ls),
(168,516,o),
(183,516,qs),
(237,516,ls),
(251,516,o),
(261,506,qs),
(331,439,ls),
(333,437,o),
(330,430,o),
(327,430,qs),
(280,430,ls),
(263,430,o),
(251,442,qs),
(210,485,l),
(170,442,ls)
);
}
);
userData = {
assembly = "NPUSHB[ ]	/* 56 values pushed */
41 1 4 5 1 76 0 5 4 5 133 6 1 4 1 4 133 3 1 1 1 42 77 0 2 2 0 98 7 1 0 0 46 0 78 1 0 46 43 39 36 31 29 21 18 14 12 9 6 0 26 1 26 8 9 22 
CALL[ ]	/* CallFunction */";
};
width = 432;
}
);
note = ucircumflex;
unicode = 251;
},
{
glyphname = udieresis;
kernLeft = u;
kernRight = u;
layers = (
{
layerId = m01;
shapes = (
{
closed = 1;
nodes = (
(95,32,qs),
(49,79,o),
(49,172,qs),
(49,359,ls),
(49,368,o),
(57,368,qs),
(62,368,ls),
(123,368,o),
(123,299,qs),
(123,164,ls),
(123,113,o),
(170,59,o),
(213,59,qs),
(303,59,o),
(303,161,qs),
(303,359,ls),
(303,368,o),
(311,368,qs),
(316,368,ls),
(378,368,o),
(378,299,qs),
(378,167,ls),
(378,89,o),
(342,43,qs),
(299,-10,o),
(213,-10,qs),
(137,-10,o)
);
},
{
closed = 1;
nodes = (
(127,513,o),
(146,513,qs),
(165,513,o),
(191,486,o),
(191,467,qs),
(191,448,o),
(164,422,o),
(146,422,qs),
(127,422,o),
(101,449,o),
(101,467,qs),
(101,486,o)
);
},
{
closed = 1;
nodes = (
(263,513,o),
(282,513,qs),
(301,513,o),
(327,486,o),
(327,467,qs),
(327,449,o),
(301,422,o),
(282,422,qs),
(264,422,o),
(237,448,o),
(237,467,qs),
(237,486,o)
);
}
);
userData = {
assembly = "NPUSHB[ ]	/* 51 values pushed */
7 1 5 6 1 4 1 5 4 105 3 1 1 1 42 77 0 2 2 0 97 8 1 0 0 46 0 78 1 0 49 47 43 41 37 35 31 29 21 18 14 12 9 6 0 26 1 26 9 9 22 
CALL[ ]	/* CallFunction */";
};
width = 432;
}
);
note = udieresis;
unicode = 252;
},
{
glyphname = yacute;
kernLeft = y;
kernRight = y;
layers = (
{
layerId = m01;
shapes = (
{
closed = 1;
nodes = (
(14,368,o),
(20,368,qs),
(37,368,ls),
(67,368,o),
(98,342,o),
(111,306,qs),
(183,88,l),
(271,357,ls),
(275,368,o),
(287,368,qs),
(342,368,ls),
(348,368,o),
(347,359,q),
(216,-9,ls),
(184,-102,o),
(125,-171,o),
(76,-171,qs),
(42,-171,o),
(-8,-125,o),
(-8,-93,qs),
(-8,-78,o),
(2,-78,qs),
(6,-78,o),
(11,-82,qs),
(38,-106,o),
(63,-106,qs),
(90,-106,o),
(122,-66,o),
(143,-7,q),
(15,359,l)
);
},
{
closed = 1;
nodes = (
(194,516,o),
(206,516,qs),
(272,516,ls),
(277,516,o),
(279,509,o),
(276,507,qs),
(195,441,ls),
(182,430,o),
(166,430,qs),
(113,430,ls),
(109,430,o),
(106,437,o),
(109,439,q),
(183,506,ls)
);
}
);
userData = {
assembly = "NPUSHB[ ]	/* 55 values pushed */
30 1 5 6 22 1 1 3 2 76 0 6 5 6 133 0 5 3 5 133 0 1 3 0 3 1 0 128 4 1 3 3 42 77 0 0 0 2 98 0 2 2 50 2 78 52 53 37 52 35 34 34 7 9 29 
CALL[ ]	/* CallFunction */";
};
width = 368;
}
);
note = yacute;
unicode = 253;
},
{
glyphname = thorn;
layers = (
{
layerId = m01;
shapes = (
{
closed = 1;
nodes = (
(127,-160,o),
(120,-160,qs),
(61,-160,ls),
(53,-160,o),
(53,-151,qs),
(53,547,ls),
(53,556,o),
(61,556,qs),
(66,556,ls),
(127,556,o),
(127,487,qs),
(127,320,l),
(169,377,o),
(247,377,qs),
(322,377,o),
(369,329,qs),
(422,276,o),
(422,184,qs),
(422,107,o),
(383,54,qs),
(336,-9,o),
(252,-9,qs),
(166,-9,o),
(127,49,q),
(127,-151,ls)
);
},
{
closed = 1;
nodes = (
(309,88,qs),
(345,123,o),
(345,184,qs),
(345,235,o),
(320,268,qs),
(290,306,o),
(236,306,qs),
(193,306,o),
(165,283,qs),
(127,251,o),
(127,184,qs),
(127,127,o),
(158,94,qs),
(189,61,o),
(238,61,qs),
(280,61,o)
);
}
);
userData = {
assembly = "NPUSHB[ ]	/* 57 values pushed */
12 1 5 1 0 1 0 4 2 76 0 2 2 39 77 0 5 5 1 97 0 1 1 48 77 6 1 4 4 0 97 0 0 0 49 77 0 3 3 44 3 78 26 25 34 32 25 40 26 40 51 51 38 33 7 9 26 
CALL[ ]	/* CallFunction */";
};
width = 459;
}
);
note = thorn;
unicode = 254;
},
{
glyphname = ydieresis;
kernLeft = y;
kernRight = y;
layers = (
{
layerId = m01;
shapes = (
{
closed = 1;
nodes = (
(14,368,o),
(20,368,qs),
(37,368,ls),
(67,368,o),
(98,342,o),
(111,306,qs),
(183,88,l),
(271,357,ls),
(275,368,o),
(287,368,qs),
(342,368,ls),
(348,368,o),
(347,359,q),
(216,-9,ls),
(184,-102,o),
(125,-171,o),
(76,-171,qs),
(42,-171,o),
(-8,-125,o),
(-8,-93,qs),
(-8,-78,o),
(2,-78,qs),
(6,-78,o),
(11,-82,qs),
(38,-106,o),
(63,-106,qs),
(90,-106,o),
(122,-66,o),
(143,-7,q),
(15,359,l)
);
},
{
closed = 1;
nodes = (
(95,513,o),
(114,513,qs),
(133,513,o),
(159,486,o),
(159,467,qs),
(159,448,o),
(132,422,o),
(114,422,qs),
(95,422,o),
(69,449,o),
(69,467,qs),
(69,486,o)
);
},
{
closed = 1;
nodes = (
(231,513,o),
(250,513,qs),
(269,513,o),
(295,486,o),
(295,467,qs),
(295,449,o),
(269,422,o),
(250,422,qs),
(232,422,o),
(205,448,o),
(205,467,qs),
(205,486,o)
);
}
);
userData = {
assembly = "NPUSHB[ ]	/* 53 values pushed */
22 1 1 3 1 76 0 1 3 0 3 1 0 128 8 1 6 7 1 5 3 6 5 105 4 1 3 3 42 77 0 0 0 2 98 0 2 2 50 2 78 36 36 36 37 37 52 35 34 34 9 9 31 
CALL[ ]	/* CallFunction */";
};
width = 368;
}
);
note = ydieresis;
unicode = 255;
},
{
glyphname = dotlessi;
kernLeft = r;
kernRight = i;
layers = (
{
layerId = m01;
shapes = (
{
closed = 1;
nodes = (
(52,9,qs),
(52,359,ls),
(52,368,o),
(60,368,qs),
(65,368,ls),
(126,368,o),
(126,299,qs),
(126,9,ls),
(126,0,o),
(119,0,qs),
(60,0,ls),
(52,0,o)
);
}
);
userData = {
assembly = "NPUSHB[ ]	/* 23 values pushed */
0 1 1 42 77 2 1 0 0 40 0 78 2 0 8 5 0 11 2 11 3 9 22 
CALL[ ]	/* CallFunction */";
};
width = 180;
}
);
note = dotlessi;
unicode = 305;
},
{
glyphname = Lslash;
layers = (
{
layerId = m01;
shapes = (
{
closed = 1;
nodes = (
(360,71,o),
(360,27,qs),
(360,11,ls),
(360,0,o),
(349,0,qs),
(81,0,ls),
(73,0,o),
(73,9,qs),
(73,204,l),
(28,180,ls),
(18,175,o),
(18,185,qs),
(18,234,ls),
(18,244,o),
(27,248,qs),
(73,273,l),
(73,547,ls),
(73,556,o),
(81,556,qs),
(87,556,ls),
(149,556,o),
(149,485,qs),
(149,315,l),
(284,388,ls),
(292,393,o),
(292,383,qs),
(292,333,ls),
(292,322,o),
(285,318,qs),
(149,246,l),
(149,71,l),
(315,71,ls)
);
}
);
userData = {
assembly = "NPUSHB[ ]	/* 37 values pushed */
22 15 8 1 4 2 0 1 76 0 0 0 39 77 3 1 2 2 1 96 0 1 1 40 1 78 0 0 0 31 0 30 59 58 4 9 24 
CALL[ ]	/* CallFunction */";
};
width = 378;
}
);
note = Lslash;
unicode = 321;
},
{
glyphname = lslash;
layers = (
{
layerId = m01;
shapes = (
{
closed = 1;
nodes = (
(18,175,o),
(18,185,qs),
(18,233,ls),
(18,242,o),
(27,247,qs),
(68,268,l),
(68,547,ls),
(68,556,o),
(76,556,qs),
(81,556,ls),
(142,556,o),
(142,487,qs),
(142,310,l),
(198,340,ls),
(208,346,o),
(208,335,qs),
(208,286,ls),
(208,277,o),
(199,272,qs),
(142,242,l),
(142,111,ls),
(142,59,o),
(181,59,qs),
(207,59,o),
(229,83,qs),
(234,89,o),
(239,89,qs),
(247,89,o),
(247,76,qs),
(247,39,o),
(198,-9,o),
(161,-9,qs),
(68,-9,o),
(68,106,qs),
(68,202,l),
(28,180,ls)
);
}
);
userData = {
assembly = "NPUSHB[ ]	/* 40 values pushed */
29 22 15 0 4 1 3 1 76 0 1 3 2 3 1 2 128 0 3 3 39 77 0 2 2 0 98 0 0 0 49 0 78 59 35 19 34 4 9 26 
CALL[ ]	/* CallFunction */";
};
width = 248;
}
);
note = lslash;
unicode = 322;
},
{
glyphname = OE;
kernLeft = O;
kernRight = E;
layers = (
{
layerId = m01;
shapes = (
{
closed = 1;
nodes = (
(792,71,o),
(792,27,qs),
(792,11,ls),
(792,0,o),
(781,0,qs),
(482,0,ls),
(473,0,o),
(473,9,qs),
(473,67,l),
(412,-10,o),
(301,-10,qs),
(190,-10,o),
(124,58,qs),
(49,135,o),
(49,277,qs),
(49,401,o),
(107,478,qs),
(175,567,o),
(301,567,qs),
(411,567,o),
(473,489,q),
(473,547,ls),
(473,556,o),
(482,556,qs),
(738,556,ls),
(783,556,o),
(783,513,qs),
(783,496,ls),
(783,485,o),
(772,485,qs),
(549,485,l),
(549,312,l),
(719,312,ls),
(764,312,o),
(764,268,qs),
(764,252,ls),
(764,242,o),
(753,242,qs),
(549,242,l),
(549,71,l),
(747,71,ls)
);
},
{
closed = 1;
nodes = (
(414,100,qs),
(473,154,o),
(473,277,qs),
(473,386,o),
(426,442,qs),
(382,495,o),
(301,495,qs),
(231,495,o),
(188,455,qs),
(128,400,o),
(128,277,qs),
(128,168,o),
(175,113,qs),
(219,62,o),
(301,62,qs),
(371,62,o)
);
}
);
userData = {
assembly = "MPPEM[ ]	/* MeasurePixelPerEm */
PUSHB[ ]	/* 1 value pushed */
18 
LT[ ]	/* LessThan */
IF[ ]	/* If */
NPUSHB[ ]	/* 10 values pushed */
19 1 2 3 31 1 5 7 2 76 
ELSE[ ]	/* Else */
MPPEM[ ]	/* MeasurePixelPerEm */
PUSHB[ ]	/* 1 value pushed */
20 
LT[ ]	/* LessThan */
IF[ ]	/* If */
NPUSHB[ ]	/* 10 values pushed */
19 1 2 9 31 1 6 7 2 76 
ELSE[ ]	/* Else */
NPUSHB[ ]	/* 10 values pushed */
19 1 2 9 31 1 8 7 2 76 
EIF[ ]	/* EndIf */
EIF[ ]	/* EndIf */
MPPEM[ ]	/* MeasurePixelPerEm */
PUSHB[ ]	/* 1 value pushed */
18 
LT[ ]	/* LessThan */
IF[ ]	/* If */
NPUSHB[ ]	/* 35 values pushed */
0 1 0 0 7 1 0 103 9 1 2 2 3 97 4 1 3 3 39 77 11 8 10 3 7 7 5 97 6 1 5 5 46 5 78 
ELSE[ ]	/* Else */
MPPEM[ ]	/* MeasurePixelPerEm */
PUSHB[ ]	/* 1 value pushed */
20 
LT[ ]	/* LessThan */
IF[ ]	/* If */
NPUSHB[ ]	/* 55 values pushed */
0 1 0 0 7 1 0 103 0 9 9 4 97 0 4 4 39 77 0 2 2 3 95 0 3 3 39 77 11 8 10 3 7 7 6 95 0 6 6 40 77 11 8 10 3 7 7 5 97 0 5 5 46 5 78 
ELSE[ ]	/* Else */
MPPEM[ ]	/* MeasurePixelPerEm */
PUSHB[ ]	/* 1 value pushed */
35 
LT[ ]	/* LessThan */
IF[ ]	/* If */
NPUSHB[ ]	/* 51 values pushed */
0 1 0 0 7 1 0 103 0 9 9 4 97 0 4 4 39 77 0 2 2 3 95 0 3 3 39 77 10 1 7 7 6 95 0 6 6 40 77 11 1 8 8 5 97 0 5 5 46 5 78 
ELSE[ ]	/* Else */
NPUSHB[ ]	/* 49 values pushed */
0 4 0 9 2 4 9 105 0 1 0 0 7 1 0 103 0 2 2 3 95 0 3 3 39 77 10 1 7 7 6 95 0 6 6 40 77 11 1 8 8 5 97 0 5 5 46 5 78 
EIF[ ]	/* EndIf */
EIF[ ]	/* EndIf */
EIF[ ]	/* EndIf */
NPUSHB[ ]	/* 24 values pushed */
42 41 0 0 50 48 41 56 42 56 0 40 0 39 51 38 35 51 33 35 33 12 9 29 
CALL[ ]	/* CallFunction */";
};
width = 821;
}
);
note = OE;
unicode = 338;
},
{
glyphname = oe;
kernLeft = o;
kernRight = e;
layers = (
{
layerId = m01;
shapes = (
{
closed = 1;
nodes = (
(224,-9,qs),
(145,-9,o),
(95,37,qs),
(38,90,o),
(38,183,qs),
(38,264,o),
(82,316,qs),
(134,377,o),
(223,377,qs),
(322,377,o),
(370,303,q),
(417,377,o),
(505,377,qs),
(582,377,o),
(626,331,qs),
(669,285,o),
(669,208,qs),
(669,179,o),
(668,169,qs),
(667,157,o),
(652,157,qs),
(407,157,l),
(416,56,o),
(526,56,qs),
(587,56,o),
(639,93,qs),
(640,94,o),
(642,95,qs),
(650,101,o),
(653,101,qs),
(663,101,o),
(663,87,qs),
(663,54,o),
(631,27,qs),
(589,-9,o),
(517,-9,qs),
(417,-9,o),
(370,64,q),
(322,-9,o)
);
},
{
closed = 1;
nodes = (
(297,88,qs),
(333,120,o),
(333,183,qs),
(333,236,o),
(305,270,qs),
(274,306,o),
(223,306,qs),
(178,306,o),
(149,278,qs),
(115,245,o),
(115,183,qs),
(115,129,o),
(141,97,qs),
(171,61,o),
(223,61,qs),
(268,61,o)
);
},
{
closed = 1;
nodes = (
(596,260,o),
(549,311,o),
(505,311,qs),
(417,311,o),
(407,214,q),
(595,214,l)
);
}
);
userData = {
assembly = "PUSHB[ ]	/* 6 values pushed */
27 1 10 8 1 76 
MPPEM[ ]	/* MeasurePixelPerEm */
PUSHB[ ]	/* 1 value pushed */
37 
LT[ ]	/* LessThan */
IF[ ]	/* If */
NPUSHB[ ]	/* 43 values pushed */
0 1 3 2 3 1 2 128 12 1 10 0 3 1 10 3 103 9 1 8 8 4 97 5 1 4 4 48 77 11 7 2 2 2 0 97 6 1 0 0 49 0 78 
ELSE[ ]	/* Else */
NPUSHB[ ]	/* 63 values pushed */
0 1 3 7 3 1 7 128 12 1 10 0 3 1 10 3 103 0 9 9 4 97 5 1 4 4 48 77 0 8 8 4 97 5 1 4 4 48 77 11 1 7 7 0 97 6 1 0 0 49 77 0 2 2 0 97 6 1 0 0 49 0 78 
EIF[ ]	/* EndIf */
NPUSHB[ ]	/* 26 values pushed */
55 55 40 39 55 60 55 60 58 56 48 46 39 54 40 54 38 34 38 33 37 20 33 13 9 29 
CALL[ ]	/* CallFunction */";
};
width = 704;
}
);
note = oe;
unicode = 339;
},
{
glyphname = Scaron;
kernLeft = S;
kernRight = S;
layers = (
{
layerId = m01;
shapes = (
{
closed = 1;
nodes = (
(34,143,qs),
(41,143,o),
(47,136,qs),
(112,59,o),
(209,59,qs),
(270,59,o),
(339,108,o),
(339,150,qs),
(339,183,o),
(307,206,qs),
(285,222,o),
(232,240,qs),
(142,272,o),
(115,288,qs),
(37,333,o),
(37,414,qs),
(37,478,o),
(83,519,qs),
(136,566,o),
(224,566,qs),
(298,566,o),
(360,539,qs),
(409,520,o),
(398,479,qs),
(393,459,ls),
(391,449,o),
(385,449,qs),
(380,449,o),
(370,455,qs),
(302,498,o),
(223,498,qs),
(174,498,o),
(114,454,o),
(114,418,qs),
(114,384,o),
(146,361,qs),
(168,344,o),
(221,326,qs),
(313,294,o),
(338,280,qs),
(416,237,o),
(416,159,qs),
(416,87,o),
(370,42,qs),
(316,-11,o),
(217,-11,qs),
(129,-11,o),
(74,30,qs),
(21,70,o),
(21,123,qs),
(21,143,o)
);
},
{
closed = 1;
nodes = (
(275,693,o),
(294,693,qs),
(340,693,ls),
(345,693,o),
(347,687,o),
(344,684,qs),
(275,618,ls),
(264,608,o),
(251,608,qs),
(197,608,ls),
(183,608,o),
(172,618,qs),
(104,684,ls),
(101,687,o),
(104,693,o),
(108,693,qs),
(154,693,ls),
(173,693,o),
(183,683,qs),
(224,640,l),
(265,683,ls)
);
}
);
userData = {
assembly = "MPPEM[ ]	/* MeasurePixelPerEm */
PUSHB[ ]	/* 1 value pushed */
39 
LT[ ]	/* LessThan */
IF[ ]	/* If */
NPUSHB[ ]	/* 47 values pushed */
8 1 6 7 6 133 0 7 3 7 133 0 2 1 5 1 2 5 128 0 5 4 1 5 4 126 0 1 1 3 97 0 3 3 39 77 0 4 4 0 98 0 0 0 46 0 78 
ELSE[ ]	/* Else */
NPUSHB[ ]	/* 45 values pushed */
8 1 6 7 6 133 0 7 3 7 133 0 2 1 5 1 2 5 128 0 5 4 1 5 4 126 0 3 0 1 2 3 1 106 0 4 4 0 98 0 0 0 46 0 78 
EIF[ ]	/* EndIf */
NPUSHB[ ]	/* 12 values pushed */
52 53 35 34 45 37 34 45 35 9 9 31 
CALL[ ]	/* CallFunction */";
};
width = 444;
}
);
note = Scaron;
unicode = 352;
},
{
glyphname = scaron;
kernLeft = s;
layers = (
{
layerId = m01;
shapes = (
{
closed = 1;
nodes = (
(165,313,qs),
(106,313,o),
(106,273,qs),
(106,258,o),
(134,235,o),
(173,220,qs),
(246,192,o),
(295,147,o),
(295,108,qs),
(295,58,o),
(263,26,qs),
(224,-11,o),
(155,-11,qs),
(101,-11,o),
(22,45,o),
(22,84,qs),
(22,101,o),
(33,101,qs),
(38,101,o),
(42,96,q),
(90,53,o),
(148,53,qs),
(220,53,o),
(220,101,qs),
(220,117,o),
(191,140,o),
(153,154,qs),
(80,182,o),
(30,227,o),
(30,267,qs),
(30,314,o),
(65,344,qs),
(103,377,o),
(166,377,qs),
(214,377,o),
(251,359,qs),
(286,344,o),
(278,305,qs),
(275,292,ls),
(273,285,o),
(268,285,qs),
(266,285,o),
(262,287,qs),
(259,288,o),
(259,288,q),
(212,313,o)
);
},
{
closed = 1;
nodes = (
(211,516,o),
(229,516,qs),
(276,516,ls),
(280,516,o),
(283,509,o),
(280,507,q),
(210,440,ls),
(200,430,o),
(186,430,qs),
(133,430,ls),
(118,430,o),
(108,440,qs),
(39,507,l),
(37,510,o),
(39,516,o),
(43,516,qs),
(90,516,ls),
(108,516,o),
(119,505,qs),
(159,462,l),
(200,505,ls)
);
}
);
userData = {
assembly = "NPUSHB[ ]	/* 64 values pushed */
60 1 7 6 1 76 0 7 6 1 6 7 1 128 0 3 0 2 0 3 2 128 8 1 6 0 0 3 6 0 105 0 5 5 1 97 0 1 1 48 77 0 2 2 4 98 0 4 4 46 4 78 52 53 35 42 35 34 42 37 35 9 9 31 
CALL[ ]	/* CallFunction */";
};
width = 317;
}
);
note = scaron;
unicode = 353;
},
